SplineFontDB: 3.0
FontName: WireWyrmMedium
FullName: WireWyrm Medium
FamilyName: WireWyrm
Weight: Medium
Copyright: Created by James,,, with FontForge 2.0 (http://fontforge.sf.net)
UComments: "2011-11-17: Created." 
Version: 001.000
ItalicAngle: 0
UnderlinePosition: -204
UnderlineWidth: 102
Ascent: 1618
Descent: 430
LayerCount: 2
Layer: 0 0 "Back"  1
Layer: 1 0 "Fore"  0
XUID: [1021 701 1124907257 9794733]
FSType: 0
OS2Version: 0
OS2_WeightWidthSlopeOnly: 0
OS2_UseTypoMetrics: 1
CreationTime: 1321514954
ModificationTime: 1325547470
PfmFamily: 17
TTFWeight: 200
TTFWidth: 5
LineGap: 184
VLineGap: 184
OS2TypoAscent: 0
OS2TypoAOffset: 1
OS2TypoDescent: 0
OS2TypoDOffset: 1
OS2TypoLinegap: 184
OS2WinAscent: 0
OS2WinAOffset: 1
OS2WinDescent: 0
OS2WinDOffset: 1
HheadAscent: 0
HheadAOffset: 1
HheadDescent: 0
HheadDOffset: 1
OS2Vendor: 'PfEd'
Lookup: 258 0 0 "'kern' Horizontal Kerning in Latin lookup 0"  {"'kern' Horizontal Kerning in Latin lookup 0-1" [307,30,0] } ['kern' ('DFLT' <'dflt' > 'latn' <'dflt' > ) ]
MarkAttachClasses: 1
DEI: 91125

StartChar: b
Encoding: 98 98 0
Width: 985
VWidth: 0
Flags: W
HStem: -19 88.999<356.803 648.51> 845 89<403.578 624.824> 1274 89<22.3959 154.952>
VStem: 20 274.952<1274.38 1354.11> 155.952 139.785<132.64 749.255 844.325 1274> 794.952 140<246.487 646.822>
LayerCount: 2
Back
SplineSet
95 1368 m 29
 230 1368 l 21
 231 0 l 13
232 643 m 7
 232 787 416.077148438 913.99609375 534.077148438 913.99609375 c 4
 711.077148438 913.99609375 870 721 870 454 c 4
 870 187 705 0 528 0 c 4
 390 0 232 18 232 285 c 4
EndSplineSet
Fore
SplineSet
21.9521484375 1318 m 0xf4
 30.9521484375 1342 69.9521484375 1363 106.952148438 1363 c 2
 241.952148438 1363 l 2
 273.952148438 1363 294.952148438 1346 294.952148438 1329 c 2xf4
 295.326171875 844.325195312 l 1
 367.619140625 897.751953125 458.935546875 934 545.952148438 934 c 0
 784.952148438 934 934.952148438 720 934.952148438 465 c 0
 934.952148438 393 922.952148438 327 899.952148438 267 c 0
 841.952148438 115 698.952148438 -19 505.952148438 -19 c 0
 433.400390625 -19 355.365234375 -11.892578125 291.522460938 20.44140625 c 1
 281.625976562 2.73046875 256.194335938 -13.34765625 225.952148438 -18 c 0
 220.109375 -18.8984375 214.446289062 -19.326171875 209.041015625 -19.326171875 c 0
 178.359375 -19.326171875 155.952148438 -5.5546875 155.952148438 14 c 2xec
 154.952148438 1274 l 1
 72.9521484375 1274 l 2
 41.37890625 1274 20 1288.56347656 20 1307.74804688 c 0
 20 1311.04589844 20.6318359375 1314.47949219 21.9521484375 1318 c 0xf4
511.952148438 845 m 0
 462.6015625 845 296.952148438 766.723632812 296.952148438 644 c 0
 296.952148438 641.110351562 296.446289062 638.189453125 295.48828125 635.279296875 c 2
 295.737304688 312.693359375 l 2xec
 296.53515625 310.23828125 296.952148438 307.666015625 296.952148438 305 c 0
 296.952148438 71.93359375 420.73828125 69.9990234375 534.215820312 69.9990234375 c 0
 536.130859375 69.9990234375 538.04296875 70 539.952148438 70 c 0
 603.952148438 70 706.952148438 122 762.952148438 267 c 0
 782.952148438 318 794.952148438 379 794.952148438 444 c 0
 794.952148438 694 626.952148438 845 511.952148438 845 c 0
EndSplineSet
EndChar

StartChar: c
Encoding: 99 99 1
Width: 875
VWidth: 0
Flags: W
HStem: -19 89<362.411 669.172> 845 89<338.292 642.187>
VStem: 52 141<263.575 665.532>
LayerCount: 2
Back
SplineSet
882 109.200195312 m 5
 798 41.2001953125 726 0 573.5 0 c 4
 396.307617188 0 231.5 187.583984375 231.5 454.200195312 c 4
 231.5 720.81640625 396.307617188 914.400390625 573.5 914.400390625 c 5
 718.357379171 914.161217278 815.733398438 874.16015625 883.733398438 784.16015625 c 5
 883.733398438 784.16015625 827.002929688 726.8203125 790.733398438 690.16015625 c 28
EndSplineSet
Fore
SplineSet
823 167 m 0
 836.5 161 843.25 151 843.25 139.875 c 0
 843.25 128.75 836.5 116.5 823 106 c 0
 732 36 625 -19 447 -19 c 0
 209 -19 52 188 52 444 c 0
 52 517 65 584 88 645 c 0
 146 796 288 934 482 934 c 0
 648 934 764 886 839 793 c 0
 842.642578125 788.263671875 844.294921875 782.864257812 844.294921875 777.28515625 c 0
 844.294921875 767.548828125 839.263671875 757.263671875 831 749 c 2
 738 660 l 2
 720.828125 643.57421875 691.391601562 633.280273438 664.67578125 633.280273438 c 0
 655.608398438 633.280273438 646.854492188 634.465820312 639 637 c 0
 620.924804688 642.831054688 611.688476562 654.1015625 611.688476562 666.846679688 c 0
 611.688476562 675.959960938 616.411132812 685.828125 626 695 c 2
 693 759 l 1
 634 821 560 845 447 845 c 0
 385 845 281 791 225 645 c 0
 205 593 193 531 193 465 c 0
 193 217 365 70 482 70 c 0
 609 70 646 92 723 151 c 0
 741.086914062 165.067382812 767.69921875 172.852539062 791.4140625 172.852539062 c 0
 803.102539062 172.852539062 814.086914062 170.961914062 823 167 c 0
EndSplineSet
EndChar

StartChar: e
Encoding: 101 101 2
Width: 942
VWidth: 0
Flags: W
HStem: -19 89<362.055 668.234> 483 88<203 753> 845 89<338.14 614.24>
VStem: 52 140<263.656 482.071>
LayerCount: 2
Back
SplineSet
107 531 m 29
 807 531 l 21
 803 753 687 912 443 914 c 5
 266 914 102 721 102 454 c 4
 102 187 267 0 444 0 c 4
 596 0 668 41 752 109 c 5
EndSplineSet
Fore
SplineSet
203 571 m 1
 753 571 l 1
 731 744 621 843 446 845 c 0
 442 845 438 845 435 845 c 0
 365 840 241 756 203 571 c 1
897 538 m 0
 897 506.715820312 849.991210938 483 810 483 c 2
 193 483 l 1
 193 477 192 471 192 465 c 0
 192 216 364 70 481 70 c 0
 608 70 645 92 722 151 c 0
 739.735351562 164.793945312 765.66796875 172.116210938 789.029296875 172.116210938 c 0
 801.232421875 172.116210938 812.735351562 170.118164062 822 166 c 0
 835.5 160 842.25 150.25 842.25 139.375 c 0
 842.25 128.5 835.5 116.5 822 106 c 0
 731 36 624 -19 447 -19 c 0
 210 -19 52 188 52 444 c 0
 52 468 53 490 56 513 c 0
 80 713 208 896 424 929 c 0
 443 932 462 934 481 934 c 0
 776 932 893 753 897 538 c 0
EndSplineSet
EndChar

StartChar: z
Encoding: 122 122 3
Width: 1039
VWidth: 0
Flags: W
HStem: -19 89<272 866.537> 844 89<235 754>
VStem: 95 140<729.734 844>
LayerCount: 2
Back
SplineSet
1036 104 m 4
 998.111936573 32.4674905105 947.767578125 0 811.73828125 0 c 6
 260 0 l 13
 956 913 l 29
 260 913 l 29
 259 783 l 29
EndSplineSet
Fore
SplineSet
966 168 m 0
 994.086914062 165.659179688 1011.21679688 151.75390625 1011.21679688 134.35546875 c 0
 1011.21679688 129.454101562 1009.85742188 124.275390625 1007 119 c 0
 960 35 862 -19 700 -19 c 2
 148 -19 l 2
 113.545898438 -19 95.5791015625 -2.5126953125 95.5791015625 15.6689453125 c 0
 95.5791015625 22.8173828125 98.3564453125 30.2275390625 104 37 c 2
 754 844 l 1
 235 844 l 1
 234 776 l 2
 234 753 203 728 164 722 c 0
 158.408203125 721.139648438 152.981445312 720.731445312 147.787109375 720.731445312 c 0
 116.748046875 720.731445312 94 735.297851562 94 755 c 2
 95 878 l 2
 95 909.284179688 142.008789062 933 182 933 c 2
 878 933 l 2
 909.586914062 933 931.025390625 918.51171875 931.025390625 899.313476562 c 0
 931.025390625 892.340820312 928.197265625 884.747070312 922 877 c 2
 272 70 l 1
 734 70 l 2
 844 70 847 78 875 129 c 0
 887.046875 151.239257812 923.994140625 168.327148438 957.995117188 168.327148438 c 0
 960.686523438 168.327148438 963.359375 168.219726562 966 168 c 0
EndSplineSet
EndChar

StartChar: v
Encoding: 118 118 4
Width: 1258
VWidth: 0
Flags: W
HStem: -19.2266 21G<580.712 599.29> 845 89<50.3959 189.805 327.688 429.508 810.396 918.338 1045.42 1189.51>
VStem: 182.56 145.129<717.929 845> 918.338 137.105<707.818 845>
LayerCount: 2
Back
SplineSet
884 914 m 29
 1128 914 l 29
124 914 m 29
 368 914 l 29
256 914 m 21
 260 722 500 314 616 0 c 5
 768 309 988 746 1000 914 c 13
EndSplineSet
Fore
SplineSet
49.9521484375 889 m 0
 58.9521484375 913 97.9521484375 934 134.952148438 934 c 2
 378.952148438 934 l 2
 410.524414062 934 431.903320312 918.708984375 431.903320312 899.310546875 c 0
 431.903320312 895.975585938 431.271484375 892.520507812 429.952148438 889 c 0
 420.952148438 865 381.952148438 845 344.952148438 845 c 2
 327.688476562 845 l 1
 363.141601562 688.106445312 512.436523438 418.342773438 621.952148438 179 c 1
 749.6328125 424.329101562 888.125976562 706.255859375 918.337890625 845 c 1
 860.952148438 845 l 2
 829.37890625 845 808 859.563476562 808 878.748046875 c 0
 808 882.045898438 808.631835938 885.479492188 809.952148438 889 c 0
 818.952148438 913 857.952148438 934 894.952148438 934 c 2
 1138.95214844 934 l 2
 1170.52441406 934 1191.90332031 918.708984375 1191.90332031 899.310546875 c 0
 1191.90332031 895.975585938 1191.27148438 892.520507812 1189.95214844 889 c 0
 1180.95214844 865 1141.95214844 845 1104.95214844 845 c 2
 1055.44335938 845 l 1
 1011.19433594 650.471679688 815.143554688 287.381835938 676.952148438 21 c 0
 669.952148438 7 651.952148438 -6 630.952148438 -13 c 0
 618.29296875 -17.2197265625 605.319335938 -19.2265625 593.259765625 -19.2265625 c 0
 568.1640625 -19.2265625 547.030273438 -10.53515625 540.952148438 5 c 0
 432.075195312 283.345703125 209.362304688 640.5703125 182.559570312 845 c 1
 100.952148438 845 l 2
 69.37890625 845 48 859.563476562 48 878.748046875 c 0
 48 882.045898438 48.6318359375 885.479492188 49.9521484375 889 c 0
EndSplineSet
EndChar

StartChar: w
Encoding: 119 119 5
AltUni2: 0002b7.ffffffff.0
Width: 1815
VWidth: 0
Flags: W
HStem: -19.5537 21G<525.379 553.606 1185.38 1213.61> 844 89<49.3959 187.104 325.134 428.508 1369.4 1478.86 1605.81 1746.92>
VStem: 181.191 143.942<691.63 844> 844.952 140<614.533 806.746> 1478.86 137.353<688.531 848>
LayerCount: 2
Back
SplineSet
1394 917 m 29
 1638 917 l 29
1510 913 m 21
 1498 745 1328 309 1176 0 c 5
 1060 314 876 597 872 789 c 5
 860 621 668 309 516 0 c 5
 400 314 210 721 206 913 c 13
74 913 m 29
 318 913 l 29
EndSplineSet
Fore
SplineSet
48.9521484375 888 m 0
 57.9521484375 912 96.9521484375 933 133.952148438 933 c 2
 377.952148438 933 l 2
 409.524414062 933 430.903320312 917.708984375 430.903320312 898.310546875 c 0
 430.903320312 894.975585938 430.271484375 891.520507812 428.952148438 888 c 0
 419.952148438 864 380.952148438 844 343.952148438 844 c 2
 325.133789062 844 l 1
 353.458007812 685.866210938 472.987304688 418.73828125 572.952148438 179 c 1
 704.952148438 419 835.952148438 644 844.952148438 762 c 0
 845.952148438 780 871.952148438 805 908.952148438 813 c 0
 916.588867188 814.52734375 924.043945312 815.252929688 931.115234375 815.252929688 c 0
 961.077148438 815.252929688 984.142578125 802.2265625 984.952148438 782 c 0
 987.952148438 641 1116.95214844 427 1228.95214844 183 c 1
 1345.08691406 427.252929688 1455.27539062 709.735351562 1478.86425781 848 c 1
 1419.95214844 848 l 2
 1388.37890625 848 1367 862.563476562 1367 881.748046875 c 0
 1367 885.045898438 1367.63183594 888.479492188 1368.95214844 892 c 0
 1377.95214844 916 1416.95214844 936 1453.95214844 936 c 2
 1697.95214844 936 l 2
 1729.52441406 936 1750.90332031 921.436523438 1750.90332031 902.251953125 c 0
 1750.90332031 898.954101562 1750.27148438 895.520507812 1748.95214844 892 c 0
 1739.95214844 868 1700.95214844 848 1663.95214844 848 c 2
 1616.21679688 848 l 1
 1580.80859375 657.271484375 1426.69824219 291.525390625 1285.95214844 21 c 0
 1275.81835938 1.5126953125 1231.60644531 -19.5537109375 1195.60644531 -19.5537109375 c 0
 1175.15234375 -19.5537109375 1157.34863281 -12.75390625 1149.95214844 5 c 1
 1073.95214844 198 967.952148438 382 902.952148438 538 c 1
 828.952148438 385 719.952148438 201 625.952148438 21 c 0
 615.818359375 1.5126953125 571.606445312 -19.5537109375 535.606445312 -19.5537109375 c 0
 515.15234375 -19.5537109375 497.348632812 -12.75390625 489.952148438 5 c 1
 380.209960938 285.029296875 203.34375 642.029296875 181.19140625 844 c 1
 99.9521484375 844 l 2
 68.37890625 844 47 858.563476562 47 877.748046875 c 0
 47 881.045898438 47.6318359375 884.479492188 48.9521484375 888 c 0
EndSplineSet
EndChar

StartChar: x
Encoding: 120 120 6
AltUni2: 0002e3.ffffffff.0
Width: 1223
VWidth: 0
Flags: W
HStem: -19 89<83.3959 230.669 353.156 462.508 763.396 861.105 998.177 1142.51> 845 89<83.3959 241.995 382.29 462.527 763.396 862.444 976.813 1142.51>
VStem: 216.556 136.601<70 159.379>
LayerCount: 2
Back
SplineSet
368 0 m 29
 124 0 l 29
1048 0 m 29
 804 0 l 29
804 914 m 29
 1048 914 l 29
124 914 m 29
 368 914 l 29
256 914 m 20
 258.967773438 771.533203125 916 252.5 916 0 c 4
920 910 m 4
 920 781.5 252 248.5 252 4 c 4
EndSplineSet
Fore
SplineSet
82.9521484375 889 m 0
 91.9521484375 913 130.952148438 934 167.952148438 934 c 2
 411.952148438 934 l 2
 443.524414062 934 464.903320312 918.708984375 464.903320312 899.310546875 c 0
 464.903320312 895.975585938 464.271484375 892.520507812 462.952148438 889 c 0
 454.302734375 865.936523438 417.94921875 846.56640625 382.290039062 845.090820312 c 1
 427.654296875 785.704101562 520.1328125 695.615234375 620.612304688 593.814453125 c 1
 729.5 702.640625 826.728515625 795.11328125 862.444335938 845 c 1
 813.952148438 845 l 2
 782.37890625 845 761 859.563476562 761 878.748046875 c 0
 761 882.045898438 761.631835938 885.479492188 762.952148438 889 c 0
 771.952148438 913 810.952148438 934 847.952148438 934 c 2
 1091.95214844 934 l 2
 1123.52441406 934 1144.90332031 918.708984375 1144.90332031 899.310546875 c 0
 1144.90332031 895.975585938 1144.27148438 892.520507812 1142.95214844 889 c 0
 1133.95214844 865 1094.95214844 845 1057.95214844 845 c 2
 1002.18066406 845 l 1
 960.361328125 760.581054688 835.772460938 635.524414062 706.4609375 505.521484375 c 1
 849.592773438 355.364257812 986.794921875 192.640625 1009.6328125 70 c 1
 1091.95214844 70 l 2
 1123.52441406 70 1144.90332031 54.708984375 1144.90332031 35.310546875 c 0
 1144.90332031 31.9755859375 1144.27148438 28.5205078125 1142.95214844 25 c 0
 1133.95214844 1 1094.95214844 -19 1057.95214844 -19 c 2
 934.3359375 -19 l 2
 931.512695312 -19.2197265625 928.745117188 -19.326171875 926.041015625 -19.326171875 c 0
 923.290039062 -19.326171875 920.60546875 -19.2158203125 917.998046875 -19 c 2
 813.952148438 -19 l 2
 782.37890625 -19 761 -4.4365234375 761 14.748046875 c 0
 761 18.0458984375 761.631835938 21.4794921875 762.952148438 25 c 0
 771.952148438 49 810.952148438 70 847.952148438 70 c 2
 861.10546875 70 l 1
 826.489257812 160.96875 720.564453125 280.578125 604.109375 401.78515625 c 1
 482.30078125 276.329101562 375.331054688 155.069335938 353.15625 70 c 1
 411.952148438 70 l 2
 443.524414062 70 464.903320312 54.708984375 464.903320312 35.310546875 c 0
 464.903320312 31.9755859375 464.271484375 28.5205078125 462.952148438 25 c 0
 453.952148438 1 414.952148438 -19 377.952148438 -19 c 2
 133.952148438 -19 l 2
 102.37890625 -19 81 -4.4365234375 81 14.748046875 c 0
 81 18.0458984375 81.6318359375 21.4794921875 82.9521484375 25 c 0
 91.9521484375 49 130.952148438 70 167.952148438 70 c 2
 216.555664062 70 l 1
 249.065429688 189.643554688 381.006835938 346.026367188 518.502929688 489.751953125 c 1
 382.458007812 628.568359375 251.983398438 760.802734375 220.239257812 845 c 1
 133.952148438 845 l 2
 102.37890625 845 81 859.563476562 81 878.748046875 c 0
 81 882.045898438 81.6318359375 885.479492188 82.9521484375 889 c 0
EndSplineSet
EndChar

StartChar: l
Encoding: 108 108 8
AltUni2: 0002e1.ffffffff.0
Width: 496
VWidth: 0
Flags: W
HStem: -19 89<57.3959 183.907 323.926 452.508> 1274 89<50.3959 182.952>
VStem: 48 274.952<1274.38 1354.11> 183.907 140.019<70 1274>
LayerCount: 2
Back
SplineSet
102 0 m 29
 362 0 l 29
95 1368 m 25
 230 1368 l 17
 231 0 l 9
EndSplineSet
Fore
SplineSet
49.9521484375 1318 m 0xe0
 58.9521484375 1342 97.9521484375 1363 134.952148438 1363 c 2
 269.952148438 1363 l 2
 301.952148438 1363 322.952148438 1346 322.952148438 1329 c 2xe0
 323.92578125 70 l 1
 401.952148438 70 l 2
 433.524414062 70 454.903320312 54.708984375 454.903320312 35.310546875 c 0
 454.903320312 31.9755859375 454.271484375 28.5205078125 452.952148438 25 c 0
 443.952148438 1 404.952148438 -19 367.952148438 -19 c 2
 245.3359375 -19 l 2
 242.512695312 -19.2197265625 239.745117188 -19.326171875 237.041015625 -19.326171875 c 0
 234.290039062 -19.326171875 231.60546875 -19.2158203125 228.998046875 -19 c 2
 107.952148438 -19 l 2
 76.37890625 -19 55 -4.4365234375 55 14.748046875 c 0
 55 18.0458984375 55.6318359375 21.4794921875 56.9521484375 25 c 0
 65.9521484375 49 104.952148438 70 141.952148438 70 c 2
 183.907226562 70 l 1xd0
 182.952148438 1274 l 1
 100.952148438 1274 l 2
 69.37890625 1274 48 1288.56347656 48 1307.74804688 c 0
 48 1311.04589844 48.6318359375 1314.47949219 49.9521484375 1318 c 0xe0
EndSplineSet
EndChar

StartChar: i
Encoding: 105 105 9
Width: 521
VWidth: 0
Flags: W
HStem: -19 89<80.3959 206.885 346.912 475.508> 845 89<73.3959 205.952> 1196 179<189.492 350.412>
VStem: 71 274.952<845.376 925.11> 171.863 190.089<1211.28 1356.18> 206.885 140.027<70 845>
LayerCount: 2
Back
SplineSet
196 1333.19995117 m 4
 196 1359.69595117 208.544 1381.19995117 224 1381.19995117 c 4
 239.456 1381.19995117 252 1359.69595117 252 1333.19995117 c 4
 252 1306.70395117 239.456 1285.19995117 224 1285.19995117 c 4
 208.544 1285.19995117 196 1306.70395117 196 1333.19995117 c 4
102 0 m 25
 362 0 l 25
95 914 m 25
 230 914 l 17
 231 0 l 9
EndSplineSet
Fore
SplineSet
72.9521484375 889 m 0xf0
 81.9521484375 913 120.952148438 934 157.952148438 934 c 2
 292.952148438 934 l 2
 324.952148438 934 345.952148438 917 345.952148438 900 c 2xf0
 346.912109375 70 l 1
 424.952148438 70 l 2
 456.524414062 70 477.903320312 54.708984375 477.903320312 35.310546875 c 0
 477.903320312 31.9755859375 477.271484375 28.5205078125 475.952148438 25 c 0
 466.952148438 1 427.952148438 -19 390.952148438 -19 c 2
 268.3359375 -19 l 2
 265.512695312 -19.2197265625 262.745117188 -19.326171875 260.041015625 -19.326171875 c 0
 257.290039062 -19.326171875 254.60546875 -19.2158203125 251.998046875 -19 c 2
 130.952148438 -19 l 2
 99.37890625 -19 78 -4.4365234375 78 14.748046875 c 0
 78 18.0458984375 78.6318359375 21.4794921875 79.9521484375 25 c 0
 88.9521484375 49 127.952148438 70 164.952148438 70 c 2
 206.884765625 70 l 1xe4
 205.952148438 845 l 1
 123.952148438 845 l 2
 92.37890625 845 71 859.563476562 71 878.748046875 c 0
 71 882.045898438 71.6318359375 885.479492188 72.9521484375 889 c 0xf0
171.952148438 1275 m 4
 171.952148438 1287 173.952148438 1298 177.952148438 1309 c 4
 180.952148438 1317 201.952148438 1375 286.952148438 1375 c 4
 363.40625 1375 368.040039062 1330.98046875 368.040039062 1305.37890625 c 4
 368.040039062 1301.84765625 367.952148438 1298.66699219 367.952148438 1296 c 4
 367.952148438 1284 365.952148438 1273 361.952148438 1262 c 4
 358.952148438 1254 337.952148438 1196 252.952148438 1196 c 4
 176.497070312 1196 171.86328125 1240.01953125 171.86328125 1265.62109375 c 4xe8
 171.86328125 1269.15234375 171.952148438 1272.33300781 171.952148438 1275 c 4
EndSplineSet
EndChar

StartChar: r
Encoding: 114 114 10
AltUni2: 0002b3.ffffffff.0
Width: 939
VWidth: 0
Flags: W
HStem: -19 89<81.3959 207.884 347.912 476.508> 843 89<74.3959 206.952 453.006 692.43>
VStem: 207.884 140.028<70 731.943 838.782 843> 759.952 141<583.199 779.081>
LayerCount: 2
Back
SplineSet
234.5 584.049804688 m 31
 234.5 761.125976562 372.423828125 911.049804688 549.5 911.049804688 c 31
 673.696289062 911.049804688 783.5 819.24609375 783.5 695.049804688 c 31
 783.5 656.157226562 771.5 623.049804688 747.5 602.049804688 c 4
102 0 m 29
 362 0 l 29
95 912 m 29
 230 912 l 21
 230.333007812 601.333007812 230.666666667 310.666666667 231 0 c 12
EndSplineSet
Fore
SplineSet
73.9521484375 887 m 0
 82.9521484375 911 121.952148438 932 158.952148438 932 c 2
 293.952148438 932 l 2
 325.952148438 932 346.952148438 915 346.952148438 898 c 2
 347.020507812 838.782226562 l 1
 414.948242188 893.587890625 506.1875 931 613.952148438 931 c 0
 783.952148438 931 900.952148438 823 900.952148438 693 c 0
 900.952148438 652 890.952148438 610 846.952148438 574 c 0
 828.544921875 559.1328125 800.616210938 550.280273438 775.583007812 550.280273438 c 0
 765.255859375 550.280273438 755.421875 551.787109375 746.952148438 555 c 0
 731.529296875 560.849609375 723.743164062 571.5078125 723.743164062 583.36328125 c 0
 723.743164062 593.80078125 729.778320312 605.16796875 741.952148438 615 c 0
 745.952148438 618 759.952148438 640 759.952148438 672 c 0
 759.952148438 777 656.952148438 842 578.952148438 842 c 0
 498.952148438 842 410.952148438 793 369.952148438 686 c 0
 357.952148438 656 351.952148438 623 351.952148438 588 c 0
 351.952148438 582.865234375 350.306640625 577.630859375 347.329101562 572.53125 c 1
 347.912109375 70 l 1
 425.952148438 70 l 2
 457.524414062 70 478.903320312 54.708984375 478.903320312 35.310546875 c 0
 478.903320312 31.9755859375 478.271484375 28.5205078125 476.952148438 25 c 0
 467.952148438 1 428.952148438 -19 391.952148438 -19 c 2
 269.3359375 -19 l 2
 266.512695312 -19.2197265625 263.745117188 -19.326171875 261.041015625 -19.326171875 c 0
 258.290039062 -19.326171875 255.60546875 -19.2158203125 252.998046875 -19 c 2
 131.952148438 -19 l 2
 100.37890625 -19 79 -4.4365234375 79 14.748046875 c 0
 79 18.0458984375 79.6318359375 21.4794921875 80.9521484375 25 c 0
 89.9521484375 49 128.952148438 70 165.952148438 70 c 2
 207.883789062 70 l 1
 206.952148438 843 l 1
 124.952148438 843 l 2
 93.37890625 843 72 857.563476562 72 876.748046875 c 0
 72 880.045898438 72.6318359375 883.479492188 73.9521484375 887 c 0
EndSplineSet
EndChar

StartChar: n
Encoding: 110 110 11
Width: 1147
VWidth: 0
Flags: W
HStem: -19 89<83.3966 202.885 342.912 463.508 718.397 841.845 982.887 1098.51> 845 89<69.3959 201.952 438.618 725.07>
VStem: 202.885 140.027<70 754.786> 841.845 141.042<70 719.989>
LayerCount: 2
Back
SplineSet
762.5 0.0009765625 m 29
 1006.5 0.0009765625 l 29
127.5 0.0009765625 m 29
 371.5 0.0009765625 l 29
113 914 m 29
 248 914 l 21
 249 0 l 13
250 643 m 7
 250 787 412.5 913.9921875 562.077148438 913.99609375 c 4
 728.5 914 887.5 821.599609375 887.5 554.599609375 c 6
 888.5 0 l 5
EndSplineSet
Fore
SplineSet
568.952148438 845 m 0
 486.927734375 845 343.952148438 769.78125 343.952148438 644 c 0
 343.952148438 640.888671875 343.366210938 637.740234375 342.258789062 634.606445312 c 1
 342.912109375 70 l 1
 412.952148438 70 l 2
 444.524414062 70 465.903320312 54.708984375 465.903320312 35.310546875 c 0
 465.903320312 31.9755859375 465.271484375 28.5205078125 463.952148438 25 c 0
 454.952148438 1 414.952148438 -19 377.952148438 -19 c 2
 264.3359375 -19 l 2
 261.512695312 -19.2197265625 258.745117188 -19.326171875 256.041015625 -19.326171875 c 0
 253.290039062 -19.326171875 250.60546875 -19.2158203125 247.998046875 -19 c 2
 133.952148438 -19 l 2
 102.37890625 -19 81 -4.4365234375 81 14.748046875 c 0
 81 18.0458984375 81.6318359375 21.4794921875 82.9521484375 25 c 0
 91.9521484375 49 131.952148438 70 168.952148438 70 c 2
 202.884765625 70 l 1
 201.952148438 845 l 1
 119.952148438 845 l 2
 88.37890625 845 67 859.563476562 67 878.748046875 c 0
 67 882.045898438 67.6318359375 885.479492188 68.9521484375 889 c 0
 77.9521484375 913 116.952148438 934 153.952148438 934 c 2
 288.952148438 934 l 2
 320.952148438 934 341.952148438 917 341.952148438 900 c 2
 342.010742188 849.249023438 l 1
 413.387695312 900.038085938 505.916015625 934 602.952148438 934 c 0
 812.952148438 934 981.952148438 822 981.952148438 560 c 2
 982.88671875 70 l 1
 1047.95214844 70 l 2
 1079.52441406 70 1100.90332031 54.708984375 1100.90332031 35.310546875 c 0
 1100.90332031 31.9755859375 1100.27148438 28.5205078125 1098.95214844 25 c 0
 1089.95214844 1 1049.95214844 -19 1012.95214844 -19 c 2
 904.319335938 -19 l 2
 901.486328125 -19.2197265625 898.703125 -19.326171875 895.98046875 -19.326171875 c 0
 893.209960938 -19.326171875 890.501953125 -19.2158203125 887.8671875 -19 c 2
 768.952148438 -19 l 2
 737.37890625 -19 716 -4.4365234375 716 14.748046875 c 0
 716 18.0458984375 716.631835938 21.4794921875 717.952148438 25 c 0
 726.952148438 49 766.952148438 70 803.952148438 70 c 2
 841.844726562 70 l 1
 840.952148438 539 l 2
 840.952148438 782 691.952148438 845 568.952148438 845 c 0
EndSplineSet
EndChar

StartChar: o
Encoding: 111 111 12
Width: 1006
VWidth: 0
Flags: W
HStem: -19 89<382.394 647.529> 845 89<355.242 618.847>
VStem: 50 141<273.114 651.442> 815 141<263.43 627.179>
LayerCount: 2
Back
SplineSet
474.419921875 0 m 4
 283.051757812 0 94.259765625 187.583984375 94.259765625 454.200195312 c 4
 94.259765625 720.81640625 282.916992188 914 474.28515625 914 c 5
 665.65234375 914 859.98046875 720.81640625 859.98046875 454.200195312 c 4
 859.98046875 187.583984375 665.788085938 0 474.419921875 0 c 4
EndSplineSet
Fore
SplineSet
483 -19 m 0
 235 -19 50 185 50 444 c 0
 50 509 61 570 83 626 c 0
 147 791 310 934 517 934 c 0
 765 934 956 724 956 465 c 0
 956 402 945 343 924 289 c 0
 859 122 689 -19 483 -19 c 0
518 70 m 0
 603 70 728 135 787 289 c 0
 805 335 815 387 815 444 c 0
 815 689 618 845 483 845 c 0
 401 845 279 780 220 626 c 0
 202 578 191 524 191 465 c 0
 191 220 383 70 518 70 c 0
EndSplineSet
EndChar

StartChar: s
Encoding: 115 115 13
AltUni2: 0002e2.ffffffff.0 00017f.ffffffff.0
Width: 850
VWidth: 0
Flags: W
HStem: -19 89<354.222 620.607> 65.1982 212.734<89.1553 273.26> 845 89<324.445 571.202>
VStem: 152.361 140<608.658 813.769> 663.361 141<110.545 332.81>
LayerCount: 2
Back
SplineSet
278 221 m 29
 130 89 l 29
625.946289062 689.999023438 m 29
 728 789.200195312 l 21
 670.290525983 856.82372394 581.878999693 914 464 914 c 7
 343.316350425 914 244 836.493343302 244 705.200012207 c 7
 244 568.556713388 394.725154524 513.371893844 496 477.200012207 c 4
 611.379512908 435.99042986 755.665261113 374.073031911 755.665261113 215.377332174 c 7
 755.665261113 82.4305015311 639.392934547 0 508 0 c 7
 375.740314309 0 269.241965597 76.1035667204 208 157.200012207 c 4
EndSplineSet
Fore
SplineSet
152.361328125 681 m 0xb8
 152.361328125 812.858398438 271.184570312 934 459.361328125 934 c 0
 610.361328125 934 708.361328125 868 769.361328125 800 c 0
 780.361328125 787 778.361328125 768 761.361328125 753 c 2
 659.361328125 659 l 2
 641.6953125 642.806640625 612.65234375 633.114257812 586.587890625 633.114257812 c 0
 577.2421875 633.114257812 568.279296875 634.360351562 560.361328125 637 c 0
 543.151367188 642.736328125 534.16796875 654.068359375 534.16796875 666.840820312 c 0
 534.16796875 676.333007812 539.12890625 686.62109375 549.361328125 696 c 2
 622.361328125 763 l 1
 568.361328125 813 500.361328125 845 425.361328125 845 c 0
 416.361328125 845 407.361328125 844 399.361328125 843 c 0
 356.361328125 836 292.361328125 803 292.361328125 703 c 0
 292.361328125 597 415.361328125 552 518.361328125 517 c 0
 636.361328125 477 804.361328125 409 804.361328125 240 c 0
 804.361328125 213 799.361328125 186 790.361328125 162 c 0
 750.361328125 57 617.361328125 -19 469.361328125 -19 c 0xb8
 336.325195312 -19 236.751953125 33.671875 169.177734375 95.6025390625 c 1
 149.333984375 78.841796875 118.3671875 65.1982421875 89.1552734375 65.1982421875 c 0x78
 79.5478515625 65.1982421875 70.130859375 66.673828125 61.361328125 70 c 0xb8
 45.787109375 75.9072265625 38 86.7177734375 38 98.7138671875 c 0
 38 109.055664062 43.787109375 120.27734375 55.361328125 130 c 2
 203.361328125 255 l 2
 220.759765625 269.614257812 248.328125 277.932617188 273.259765625 277.932617188 c 0x78
 284.153320312 277.932617188 294.54296875 276.344726562 303.361328125 273 c 0
 318.935546875 267.092773438 326.72265625 256.5703125 326.72265625 244.841796875 c 0
 326.72265625 234.73046875 320.935546875 223.72265625 309.361328125 214 c 2
 269.359375 180.21484375 l 1
 328.534179688 117.291015625 417.578125 70 503.361328125 70 c 0
 583.939453125 70 663.361328125 115.935546875 663.361328125 218 c 0
 663.361328125 349 543.361328125 398 430.361328125 436 c 0
 330.361328125 470 152.361328125 529 152.361328125 681 c 0xb8
EndSplineSet
EndChar

StartChar: m
Encoding: 109 109 14
Width: 1787
VWidth: 0
Flags: W
HStem: -19 89<83.3966 202.885 342.912 463.508 718.397 841.854 982.893 1098.51 1358.4 1481.84 1622.89 1738.51> 845 89<69.3959 201.952 438.618 726.546 1074.09 1365.07>
VStem: 202.885 140.027<70 754.786> 841.854 141.039<70 731.226> 1481.84 141.042<70 719.989>
LayerCount: 2
Back
SplineSet
1384.5 0.0009765625 m 29
 1628.5 0.0009765625 l 29
871 0 m 13
869.5 604.599609375 m 7
 869.5 809.195597385 1034.5 913.9921875 1184.07714844 913.99609375 c 4
 1350.5 914 1509.5 821.599609375 1509.5 554.599609375 c 6
 1510.5 0 l 5
744.5 0.0009765625 m 29
 988.5 0.0009765625 l 29
109.5 0.0009765625 m 29
 353.5 0.0009765625 l 29
95 914 m 29
 230 914 l 21
 231 0 l 13
232 643 m 7
 232 787 394.49999999 913.9925829 544.077148438 913.99609375 c 4
 710.5 914 869.161601323 809.195317532 869.5 604.599609375 c 6
 870.5 0 l 5
EndSplineSet
Fore
SplineSet
568.952148438 845 m 0
 486.927734375 845 343.952148438 769.78125 343.952148438 644 c 0
 343.952148438 640.888671875 343.366210938 637.740234375 342.258789062 634.606445312 c 1
 342.912109375 70 l 1
 412.952148438 70 l 2
 444.524414062 70 465.903320312 54.708984375 465.903320312 35.310546875 c 0
 465.903320312 31.9755859375 465.271484375 28.5205078125 463.952148438 25 c 0
 454.952148438 1 414.952148438 -19 377.952148438 -19 c 2
 264.3359375 -19 l 2
 261.512695312 -19.2197265625 258.745117188 -19.326171875 256.041015625 -19.326171875 c 0
 253.290039062 -19.326171875 250.60546875 -19.2158203125 247.998046875 -19 c 2
 133.952148438 -19 l 2
 102.37890625 -19 81 -4.4365234375 81 14.748046875 c 0
 81 18.0458984375 81.6318359375 21.4794921875 82.9521484375 25 c 0
 91.9521484375 49 131.952148438 70 168.952148438 70 c 2
 202.884765625 70 l 1
 201.952148438 845 l 1
 119.952148438 845 l 2
 88.37890625 845 67 859.563476562 67 878.748046875 c 0
 67 882.045898438 67.6318359375 885.479492188 68.9521484375 889 c 0
 77.9521484375 913 116.952148438 934 153.952148438 934 c 2
 288.952148438 934 l 2
 320.952148438 934 341.952148438 917 341.952148438 900 c 2
 342.010742188 849.249023438 l 1
 413.387695312 900.038085938 505.916015625 934 602.952148438 934 c 0
 735.635742188 934 852.6015625 885.635742188 920.330078125 797.60546875 c 1
 996.580078125 882.98828125 1119.48242188 934 1242.95214844 934 c 1
 1452.95214844 934 1621.95214844 822 1621.95214844 560 c 2
 1622.88671875 70 l 1
 1687.95214844 70 l 2
 1719.52441406 70 1740.90332031 54.708984375 1740.90332031 35.310546875 c 0
 1740.90332031 31.9755859375 1740.27148438 28.5205078125 1738.95214844 25 c 0
 1729.95214844 1 1689.95214844 -19 1652.95214844 -19 c 2
 1544.31933594 -19 l 2
 1541.48632812 -19.2197265625 1538.703125 -19.326171875 1535.98046875 -19.326171875 c 0
 1533.20996094 -19.326171875 1530.50195312 -19.2158203125 1527.8671875 -19 c 2
 1408.95214844 -19 l 2
 1377.37890625 -19 1356 -4.4365234375 1356 14.748046875 c 0
 1356 18.0458984375 1356.63183594 21.4794921875 1357.95214844 25 c 0
 1366.95214844 49 1406.95214844 70 1443.95214844 70 c 2
 1481.84472656 70 l 1
 1480.95214844 539 l 2
 1480.95214844 782 1331.95214844 845 1208.95214844 845 c 0
 1133.95214844 845 1039.95214844 810 998.952148438 703 c 0
 988.952148438 676 981.952148438 644 981.952148438 608 c 2
 982.892578125 70 l 1
 1047.95214844 70 l 2
 1079.52441406 70 1100.90332031 54.708984375 1100.90332031 35.310546875 c 0
 1100.90332031 31.9755859375 1100.27148438 28.5205078125 1098.95214844 25 c 0
 1089.95214844 1 1049.95214844 -19 1012.95214844 -19 c 2
 904.319335938 -19 l 2
 901.486328125 -19.2197265625 898.703125 -19.326171875 895.98046875 -19.326171875 c 0
 893.209960938 -19.326171875 890.501953125 -19.2158203125 887.8671875 -19 c 2
 768.952148438 -19 l 2
 737.37890625 -19 716 -4.4365234375 716 14.748046875 c 0
 716 18.0458984375 716.631835938 21.4794921875 717.952148438 25 c 0
 726.952148438 49 766.952148438 70 803.952148438 70 c 2
 841.853515625 70 l 1
 840.952148438 586 l 2
 840.952148438 767 692.952148438 845 568.952148438 845 c 0
EndSplineSet
EndChar

StartChar: f
Encoding: 102 102 15
Width: 752
VWidth: 0
Flags: W
HStem: -19 89<78.3959 205.003 344.983 473.508> 845 89<73.3959 205.727 345.79 596.508> 1274 89<382.929 551.471>
VStem: 205.727 139.98<70 845 934 1236.52> 593.952 140<1140.08 1231.22>
LayerCount: 2
Back
SplineSet
97 914 m 29
 485 914 l 29
102 0 m 29
 362 0 l 29
231 0 m 21
 232 1133.20019531 l 6
 232.10590384 1253.2104472 307.21484375 1368 426 1368 c 31
 521.829101562 1368 620 1289.64257812 620 1217.20019531 c 4
EndSplineSet
Fore
SplineSet
77.9521484375 25 m 0
 86.9521484375 49 125.952148438 70 162.952148438 70 c 2
 205.002929688 70 l 1
 205.7265625 845 l 1
 123.952148438 845 l 2
 92.37890625 845 71 859.563476562 71 878.748046875 c 0
 71 882.045898438 71.6318359375 885.479492188 72.9521484375 889 c 0
 81.9521484375 913 120.952148438 934 157.952148438 934 c 2
 205.809570312 934 l 1
 205.952148438 1086 l 2
 205.952148438 1121 211.952148438 1155 224.952148438 1188 c 0
 254.952148438 1265 338.952148438 1363 486.952148438 1363 c 0
 625.952148438 1363 733.952148438 1273 733.952148438 1187 c 0
 733.952148438 1164 702.952148438 1139 663.952148438 1133 c 0
 658.109375 1132.1015625 652.446289062 1131.67382812 647.041015625 1131.67382812 c 0
 616.359375 1131.67382812 593.952148438 1145.4453125 593.952148438 1165 c 0
 593.952148438 1215 504.952148438 1274 452.952148438 1274 c 0
 429.952148438 1274 387.952148438 1259 360.952148438 1188 c 0
 351.952148438 1163 345.952148438 1135 345.952148438 1107 c 2
 345.790039062 934 l 1
 545.952148438 934 l 2
 577.524414062 934 598.903320312 918.708984375 598.903320312 899.310546875 c 0
 598.903320312 895.975585938 598.271484375 892.520507812 596.952148438 889 c 0
 587.952148438 865 548.952148438 845 511.952148438 845 c 2
 345.70703125 845 l 1
 344.983398438 70 l 1
 422.952148438 70 l 2
 454.524414062 70 475.903320312 54.708984375 475.903320312 35.310546875 c 0
 475.903320312 31.9755859375 475.271484375 28.5205078125 473.952148438 25 c 0
 464.952148438 1 425.952148438 -19 388.952148438 -19 c 2
 266.313476562 -19 l 2
 263.85546875 -19.1806640625 261.43359375 -19.2685546875 259.053710938 -19.2685546875 c 0
 256.633789062 -19.2685546875 254.258789062 -19.177734375 251.936523438 -19 c 2
 128.952148438 -19 l 2
 97.37890625 -19 76 -4.4365234375 76 14.748046875 c 0
 76 18.0458984375 76.6318359375 21.4794921875 77.9521484375 25 c 0
EndSplineSet
EndChar

StartChar: y
Encoding: 121 121 16
AltUni2: 0002b8.ffffffff.0
Width: 1253
VWidth: 0
Flags: W
HStem: -403 89<157.396 323.917 440.072 536.508> 845 89<47.3959 186.761 325.229 426.508 807.396 915.622 1042.22 1186.51>
VStem: 179.611 145.617<727.849 845> 915.622 137.192<715.787 845>
LayerCount: 2
Back
SplineSet
234 -406 m 29
 478 -406 l 29
884 914 m 29
 1128 914 l 29
124 914 m 29
 368 914 l 29
256 914 m 21
 259.976100159 723.147192382 495.567382812 387.762695312 612.333984375 74.533203125 c 5
1000 914 m 20
 985.987035983 717.818503764 744 307.200195312 615.333007812 70 c 4
 522.295898438 -97.2060546875 404 -298.799804688 358 -406.799804688 c 13
EndSplineSet
Fore
SplineSet
346.360351562 -403 m 1
 341.515625 -403.669921875 336.541992188 -404.024414062 331.625976562 -404.024414062 c 0
 326.885742188 -404.024414062 322.19921875 -403.694335938 317.733398438 -403 c 1
 207.952148438 -403 l 2
 176.37890625 -403 155 -388.436523438 155 -369.251953125 c 0
 155 -365.954101562 155.631835938 -362.520507812 156.952148438 -359 c 0
 165.952148438 -335 204.952148438 -314 241.952148438 -314 c 2
 301.728515625 -314 l 1
 355.915039062 -207.954101562 452.41796875 -53.572265625 532.40234375 82.4248046875 c 1
 422.784179688 356.755859375 206.262695312 648.698242188 179.611328125 845 c 1
 97.9521484375 845 l 2
 66.37890625 845 45 859.563476562 45 878.748046875 c 0
 45 882.045898438 45.6318359375 885.479492188 46.9521484375 889 c 0
 55.9521484375 913 94.9521484375 934 131.952148438 934 c 2
 375.952148438 934 l 2
 407.524414062 934 428.903320312 918.708984375 428.903320312 899.310546875 c 0
 428.903320312 895.975585938 428.271484375 892.520507812 426.952148438 889 c 0
 417.952148438 865 378.952148438 845 341.952148438 845 c 2
 325.228515625 845 l 1
 361.875 695.948242188 511.783203125 465.72265625 620.6171875 234.184570312 c 1
 739.1796875 438.5390625 884.831054688 696.827148438 915.622070312 845 c 1
 857.952148438 845 l 2
 826.37890625 845 805 859.563476562 805 878.748046875 c 0
 805 882.045898438 805.631835938 885.479492188 806.952148438 889 c 0
 815.952148438 913 854.952148438 934 891.952148438 934 c 2
 1135.95214844 934 l 2
 1167.52441406 934 1188.90332031 918.708984375 1188.90332031 899.310546875 c 0
 1188.90332031 895.975585938 1188.27148438 892.520507812 1186.95214844 889 c 0
 1177.95214844 865 1138.95214844 845 1101.95214844 845 c 2
 1052.81445312 845 l 1
 1006.55566406 634.633789062 790.375 291.633789062 671.952148438 86 c 1
 592.248046875 -50.267578125 494.181640625 -210.040039062 440.072265625 -314 c 1
 485.952148438 -314 l 2
 517.524414062 -314 538.903320312 -329.291015625 538.903320312 -348.689453125 c 0
 538.903320312 -352.024414062 538.271484375 -355.479492188 536.952148438 -359 c 0
 527.952148438 -383 488.952148438 -403 451.952148438 -403 c 2
 346.360351562 -403 l 1
EndSplineSet
EndChar

StartChar: p
Encoding: 112 112 17
Width: 1099
VWidth: 0
Flags: W
HStem: -404 89<53.3959 179.906 319.925 448.508> -19 89<549.213 739.687> 845 89<46.3959 178.952 432.351 711.799>
VStem: 179.906 140.019<-315 74.1973 258.517 732.94 835.416 845> 907.952 141<263.43 627.179>
LayerCount: 2
Back
SplineSet
241.25 586.799804688 m 3
 241.25 792.416992188 421.6178255 914 584.28515625 914 c 1
 775.65234375 914 969.98046875 720.81640625 969.98046875 454.200195312 c 0
 969.98046875 187.583984375 775.788085938 0 584.419921875 0 c 0
 418.888772129 0 239.25 164.3515625 239.25 374.799804688 c 3
112 -406.799804688 m 29
 372 -406.799804688 l 29
105 914.200195312 m 25
 240 914.200195312 l 21
 240.333007812 474.8671875 240.666682276 32.5332629109 241 -406.799804688 c 12
EndSplineSet
Fore
SplineSet
45.9521484375 889 m 0
 54.9521484375 913 93.9521484375 934 130.952148438 934 c 2
 265.952148438 934 l 2
 297.952148438 934 318.952148438 917 318.952148438 900 c 2
 319.00390625 835.416015625 l 1
 398.430664062 896.786132812 503.475585938 934 609.952148438 934 c 0
 857.952148438 934 1048.95214844 724 1048.95214844 465 c 0
 1048.95214844 402 1037.95214844 343 1016.95214844 289 c 0
 951.952148438 122 781.952148438 -19 575.952148438 -19 c 0
 478.50390625 -19 388.974609375 16.44140625 319.61328125 74.197265625 c 1
 319.924804688 -315 l 1
 397.952148438 -315 l 2
 429.524414062 -315 450.903320312 -329.563476562 450.903320312 -348.748046875 c 0
 450.903320312 -352.045898438 450.271484375 -355.479492188 448.952148438 -359 c 0
 439.952148438 -383 400.952148438 -404 363.952148438 -404 c 2
 103.952148438 -404 l 2
 72.37890625 -404 51 -388.708984375 51 -369.310546875 c 0
 51 -365.975585938 51.6318359375 -362.520507812 52.9521484375 -359 c 0
 61.9521484375 -335 100.952148438 -315 137.952148438 -315 c 2
 179.90625 -315 l 1
 179.370117188 336.821289062 l 2
 178.430664062 347.453125 177.952148438 358.186523438 177.952148438 369 c 0
 177.952148438 371.850585938 178.427734375 374.731445312 179.3359375 377.603515625 c 2
 178.952148438 845 l 1
 96.9521484375 845 l 2
 65.37890625 845 44 859.563476562 44 878.748046875 c 0
 44 882.045898438 44.6318359375 885.479492188 45.9521484375 889 c 0
319.20703125 581.600585938 m 1
 319.373046875 374.205078125 l 1
 329.014648438 193.740234375 556.57421875 126.732421875 610.952148438 70 c 1
 695.952148438 70 820.952148438 135 879.952148438 289 c 0
 897.952148438 335 907.952148438 387 907.952148438 444 c 0
 907.952148438 689 710.952148438 845 575.952148438 845 c 0
 491.952148438 845 380.952148438 799 336.952148438 684 c 0
 325.952148438 657 320.952148438 625 320.952148438 591 c 0
 320.952148438 587.885742188 320.346679688 584.735351562 319.20703125 581.600585938 c 1
EndSplineSet
EndChar

StartChar: h
Encoding: 104 104 18
AltUni2: 0002b0.ffffffff.0
Width: 1119
VWidth: 0
Flags: W
HStem: -19 89<57.3966 176.907 316.926 437.508 692.397 815.845 956.887 1072.51> 845 89<412.73 699.07> 1274 89<43.3959 175.952>
VStem: 41 274.952<1274.38 1354.11> 176.907 140.019<70 754.786 849.471 1274> 815.845 141.042<70 719.989>
LayerCount: 2
Back
SplineSet
744.5 0.0009765625 m 29
 988.5 0.0009765625 l 29
109.5 0.0009765625 m 29
 353.5 0.0009765625 l 29
95 1368 m 29
 230 1368 l 21
 231 0 l 13
232 643 m 7
 232 787 394.49999999 913.9925829 544.077148438 913.99609375 c 4
 710.5 914 869.5 821.599609375 869.5 554.599609375 c 6
 870.5 0 l 5
EndSplineSet
Fore
SplineSet
542.952148438 845 m 0xf4
 460.927734375 845 317.952148438 769.78125 317.952148438 644 c 0
 317.952148438 641.110351562 317.446289062 638.189453125 316.48828125 635.279296875 c 2
 316.92578125 70 l 1
 386.952148438 70 l 2
 418.524414062 70 439.903320312 54.708984375 439.903320312 35.310546875 c 0
 439.903320312 31.9755859375 439.271484375 28.5205078125 437.952148438 25 c 0
 428.952148438 1 388.952148438 -19 351.952148438 -19 c 2
 238.3359375 -19 l 2
 235.512695312 -19.2197265625 232.745117188 -19.326171875 230.041015625 -19.326171875 c 0
 227.290039062 -19.326171875 224.60546875 -19.2158203125 221.998046875 -19 c 2
 107.952148438 -19 l 2
 76.37890625 -19 55 -4.4365234375 55 14.748046875 c 0
 55 18.0458984375 55.6318359375 21.4794921875 56.9521484375 25 c 0
 65.9521484375 49 105.952148438 70 142.952148438 70 c 2
 176.907226562 70 l 1xec
 175.952148438 1274 l 1
 93.9521484375 1274 l 2
 62.37890625 1274 41 1288.56347656 41 1307.74804688 c 0
 41 1311.04589844 41.6318359375 1314.47949219 42.9521484375 1318 c 0
 51.9521484375 1342 90.9521484375 1363 127.952148438 1363 c 2
 262.952148438 1363 l 2
 294.952148438 1363 315.952148438 1346 315.952148438 1329 c 2
 316.322265625 849.470703125 l 1
 387.658203125 900.13671875 480.057617188 934 576.952148438 934 c 0
 786.952148438 934 955.952148438 822 955.952148438 560 c 2
 956.88671875 70 l 1
 1021.95214844 70 l 2
 1053.52441406 70 1074.90332031 54.708984375 1074.90332031 35.310546875 c 0
 1074.90332031 31.9755859375 1074.27148438 28.5205078125 1072.95214844 25 c 0
 1063.95214844 1 1023.95214844 -19 986.952148438 -19 c 2
 878.319335938 -19 l 2
 875.486328125 -19.2197265625 872.703125 -19.326171875 869.98046875 -19.326171875 c 0
 867.209960938 -19.326171875 864.501953125 -19.2158203125 861.8671875 -19 c 2
 742.952148438 -19 l 2
 711.37890625 -19 690 -4.4365234375 690 14.748046875 c 0
 690 18.0458984375 690.631835938 21.4794921875 691.952148438 25 c 0
 700.952148438 49 740.952148438 70 777.952148438 70 c 2
 815.844726562 70 l 1
 814.952148438 539 l 2
 814.952148438 782 665.952148438 845 542.952148438 845 c 0xf4
EndSplineSet
EndChar

StartChar: j
Encoding: 106 106 19
AltUni2: 0002b2.ffffffff.0
Width: 457
VWidth: 0
Flags: W
HStem: -402.605 21G<63.4819 81.0532> 845 89<67.7875 200.344> 1196 179<189.492 350.412>
VStem: 65.3916 274.952<845.376 925.11> 171.863 190.089<1211.28 1356.18> 201.369 140.726<-241.108 845>
LayerCount: 2
Back
SplineSet
95 914 m 29
 230 914 l 21
 231 0 l 6
 232.299094047 -143.939604498 228 -348 52 -405.799804688 c 4
EndSplineSet
Fore
SplineSet
171.952148438 1275 m 4xe8
 171.952148438 1287 173.952148438 1298 177.952148438 1309 c 4
 180.952148438 1317 201.952148438 1375 286.952148438 1375 c 4
 363.40625 1375 368.040039062 1330.98046875 368.040039062 1305.37890625 c 4
 368.040039062 1301.84765625 367.952148438 1298.66699219 367.952148438 1296 c 4
 367.952148438 1284 365.952148438 1273 361.952148438 1262 c 4
 358.952148438 1254 337.952148438 1196 252.952148438 1196 c 4
 176.497070312 1196 171.86328125 1240.01953125 171.86328125 1265.62109375 c 4
 171.86328125 1269.15234375 171.952148438 1272.33300781 171.952148438 1275 c 4xe8
67.34375 889 m 0
 76.34375 913 115.34375 934 152.34375 934 c 2
 287.34375 934 l 2
 319.34375 934 340.34375 917 340.34375 900 c 2xf0
 341.34375 36 l 2
 341.497070312 17.3291015625 342.094726562 -3.94140625 342.094726562 -26.8583984375 c 0
 342.094726562 -153.685546875 323.77734375 -330.9375 110.34375 -397 c 0
 98.58984375 -400.811523438 86.634765625 -402.60546875 75.4716796875 -402.60546875 c 0
 51.4921875 -402.60546875 31.1669921875 -394.329101562 24.34375 -380 c 0
 22.755859375 -376.666015625 22 -373.155273438 22 -369.559570312 c 0
 22 -350.51171875 43.2177734375 -329.094726562 74.34375 -319 c 0
 172.640625 -288.52734375 201.369140625 -141.140625 201.369140625 6.3369140625 c 0xe4
 201.369140625 8.8916015625 201.360351562 11.4462890625 201.34375 14 c 2
 200.34375 845 l 1
 118.34375 845 l 2
 86.7705078125 845 65.3916015625 859.563476562 65.3916015625 878.748046875 c 0xf0
 65.3916015625 882.045898438 66.0234375 885.479492188 67.34375 889 c 0
EndSplineSet
EndChar

StartChar: k
Encoding: 107 107 20
Width: 1031
VWidth: 0
Flags: W
HStem: -19 89<57.3959 183.907 323.926 452.508 586.334 656.845 795.343 982.508> 845 89<466.397 563.787 668.01 862.508> 1274 89<50.3959 182.952>
VStem: 48 274.952<1274.38 1354.11> 183.907 140.019<70 419.967 608.605 1274>
LayerCount: 2
Back
SplineSet
511.5 914 m 29
 771.5 914 l 29
663.5 914 m 5
 575.693560811 838.068343153 404.1796875 623.3046875 283.420898438 537.599609375 c 5
234.5 584.049804688 m 5
 333.5 490.200195312 765.5 0 765.5 0 c 29
631.5 0 m 29
 891.5 0 l 29
231 0 m 12
102 0 m 29
 362 0 l 29
95 1368 m 29
 230 1368 l 21
 231 0 l 13
EndSplineSet
Fore
SplineSet
49.9521484375 1318 m 0xf0
 58.9521484375 1342 97.9521484375 1363 134.952148438 1363 c 2
 269.952148438 1363 l 2
 301.952148438 1363 322.952148438 1346 322.952148438 1329 c 2xf0
 323.508789062 608.60546875 l 1
 398.635742188 674.802734375 489.250976562 772.2734375 563.787109375 845 c 1
 516.952148438 845 l 2
 485.37890625 845 464 859.563476562 464 878.748046875 c 0
 464 882.045898438 464.631835938 885.479492188 465.952148438 889 c 0
 474.952148438 913 514.952148438 934 551.952148438 934 c 2
 811.952148438 934 l 2
 843.524414062 934 864.903320312 918.708984375 864.903320312 899.310546875 c 0
 864.903320312 895.975585938 864.271484375 892.520507812 862.952148438 889 c 0
 853.952148438 865 813.952148438 845 776.952148438 845 c 2
 711.814453125 845 l 1
 635.09765625 773.346679688 506.737304688 626.125976562 391.588867188 536.708984375 c 1
 529.404296875 398.309570312 774.252929688 137.049804688 836.984375 70 c 1
 931.952148438 70 l 2
 963.524414062 70 984.903320312 54.708984375 984.903320312 35.310546875 c 0
 984.903320312 31.9755859375 984.271484375 28.5205078125 982.952148438 25 c 0
 973.952148438 1 933.952148438 -19 896.952148438 -19 c 2
 636.952148438 -19 l 2
 605.37890625 -19 584 -4.4365234375 584 14.748046875 c 0
 584 18.0458984375 584.631835938 21.4794921875 585.952148438 25 c 0
 593.733398438 45.7509765625 624.690429688 64.259765625 656.844726562 68.890625 c 1
 573.926757812 157.426757812 431.609375 308.717773438 323.654296875 419.966796875 c 1
 323.92578125 70 l 1
 401.952148438 70 l 2
 433.524414062 70 454.903320312 54.708984375 454.903320312 35.310546875 c 0
 454.903320312 31.9755859375 454.271484375 28.5205078125 452.952148438 25 c 0
 443.952148438 1 404.952148438 -19 367.952148438 -19 c 2
 245.3359375 -19 l 2
 242.512695312 -19.2197265625 239.745117188 -19.326171875 237.041015625 -19.326171875 c 0
 234.290039062 -19.326171875 231.60546875 -19.2158203125 228.998046875 -19 c 2
 107.952148438 -19 l 2
 76.37890625 -19 55 -4.4365234375 55 14.748046875 c 0
 55 18.0458984375 55.6318359375 21.4794921875 56.9521484375 25 c 0
 65.9521484375 49 104.952148438 70 141.952148438 70 c 2
 183.907226562 70 l 1xe8
 182.952148438 1274 l 1
 100.952148438 1274 l 2
 69.37890625 1274 48 1288.56347656 48 1307.74804688 c 0
 48 1311.04589844 48.6318359375 1314.47949219 49.9521484375 1318 c 0xf0
EndSplineSet
EndChar

StartChar: a
Encoding: 97 97 21
Width: 1044
VWidth: 0
Flags: W
HStem: -19 89<258.426 698.741 868 996.556> 487 88<316.045 606.051> 840 88<291.371 567.786>
VStem: 57 140<125.59 361.863> 727.779 139.764<106.345 373.393 506.176 685.309>
LayerCount: 2
Back
SplineSet
724 244 m 7
 724 412.611740209 559.256239612 535.156895036 390.232650758 535.156895036 c 7
 189.137648135 535.156895036 52 374.501007689 52 188.1796875 c 31
 52 32.513671875 245.600585938 0 404 0 c 15
 534.520507812 0 646.200195312 39.7607421875 723 101.200195312 c 4
854 0 m 29
 723 0 l 21
 722 555.200195312 l 14
 721.642578125 753.38671875 554.787109375 908.360351562 356.599609375 908.360351562 c 23
 248.434570312 908.360351562 120.502929688 829.823242188 78 745.200195312 c 5
EndSplineSet
Fore
SplineSet
57 192 m 0
 57 370.971679688 204.333984375 575 482 575 c 0
 574.572265625 575 660.08984375 549.44921875 727.0625 506.17578125 c 1
 727 539 l 2
 727 715 564 840 415 840 c 0
 355 840 253 790 219 726 c 0
 206.662109375 703.221679688 170.002929688 685.848632812 135.525390625 685.848632812 c 0
 133.67578125 685.848632812 131.833007812 685.8984375 130 686 c 0
 101.4921875 687.583984375 83.0185546875 701.708984375 83.0185546875 719.4375 c 0
 83.0185546875 724.096679688 84.2939453125 729.004882812 87 734 c 0
 138 830 293 928 449 928 c 0
 696 928 867 759 867 561 c 2
 867.54296875 294.340820312 l 2
 868.5078125 285.348632812 869 276.23046875 869 267 c 0
 869 264.19140625 868.522460938 261.353515625 867.616210938 258.5234375 c 2
 867.865234375 135.983398438 l 2
 868.372070312 133.076171875 868.377929688 130.0703125 867.883789062 127.014648438 c 2
 868 70 l 1
 946 70 l 2
 977.573242188 70 998.952148438 54.708984375 998.952148438 35.310546875 c 0
 998.952148438 31.9755859375 998.3203125 28.5205078125 997 25 c 0
 988 1 949 -19 912 -19 c 2
 781 -19 l 2
 749 -19 728 -3 728 14 c 2
 727.967773438 30.85546875 l 1
 649.853515625 -0.84375 558.548828125 -19 462 -19 c 0
 295 -19 57 15 57 192 c 0
727.779296875 129.848632812 m 1
 727.513671875 269.397460938 l 1
 711.366210938 400.77734375 579.137248792 487 448 487 c 3
 434 487 420 486 408 484 c 0
 305 469 197 369 197 214 c 0
 197 97 346 70 496 70 c 0
 593.098632812 70 670.358398438 93.0126953125 727.779296875 129.848632812 c 1
EndSplineSet
EndChar

StartChar: d
Encoding: 100 100 22
Width: 1063
VWidth: 0
Flags: W
HStem: -19 89<379.336 747.766 891 1019.56> 844 89<356.261 617.214> 1274 89<617.444 750>
VStem: 49 140<270.42 646.77> 615.048 274.952<1274.38 1354.46> 750.923 140.077<96.7776 708.3 861.168 1274>
LayerCount: 2
Back
SplineSet
902 0 m 29
 771 0 l 21
 770 1368 l 13
 635 1368 l 29
771 67 m 5
 684 39 604 0 447 0 c 7
 256 0 69 184 69 451 c 4
 69 718 261 913 452 913 c 15
 629 913 767 763 767 586 c 28
EndSplineSet
Fore
SplineSet
1020 25 m 0xf4
 1011 1 972 -19 935 -19 c 2
 804 -19 l 2
 772 -19 751 -3 751 14 c 0
 751 16.4521484375 750.994140625 18.9052734375 750.994140625 21.357421875 c 1
 683.709960938 1.138671875 597.071289062 -19 480 -19 c 1
 233 -19 49 182 49 441 c 0
 49 505 61 566 82 621 c 0
 146 788 312 933 519 933 c 0
 612.255859375 933 690.387695312 905.545898438 750.328125 861.16796875 c 1
 750 1274 l 1
 668 1274 l 2
 636.426757812 1274 615.047851562 1288.56347656 615.047851562 1307.74804688 c 0
 615.047851562 1311.04589844 615.6796875 1314.47949219 617 1318 c 0
 626 1342 665 1363 702 1363 c 2
 837 1363 l 2
 865 1363 890 1349 890 1329 c 2xf8
 891 70 l 1
 969 70 l 2
 1000.57324219 70 1021.95214844 54.708984375 1021.95214844 35.310546875 c 0
 1021.95214844 31.9755859375 1021.3203125 28.5205078125 1020 25 c 0xf4
750.5703125 555.206054688 m 1
 748.251953125 559.077148438 747 563.376953125 747 568 c 0
 747 727 609 844 485 844 c 0
 403 844 278 777 218 621 c 0
 200 573 189 520 189 462 c 0
 189 216 379 70 514 70 c 0
 625.944335938 70 682.109375 88.1611328125 750.922851562 110.901367188 c 1xf4
 750.5703125 555.206054688 l 1
EndSplineSet
EndChar

StartChar: q
Encoding: 113 113 23
Width: 1106
VWidth: 0
Flags: W
HStem: -405 89<625.444 750.956 891 1017.56> -19 89<379.452 747.452> 844 89<360.696 619.477 891 1041.56>
VStem: 49 141<270.64 647.614> 750.614 140.386<-316 22.0078 96.793 714.034>
LayerCount: 2
Back
SplineSet
771.129882812 67.2001953125 m 1
 683.91796875 39.3759765625 604.237304688 0 447.129882812 0 c 3
 255.76171875 0 69.1298828125 184.583984375 69.1298828125 451.200195312 c 0
 69.1298828125 717.81640625 260.26171875 913.049804688 451.629882812 913.049804688 c 11
 628.706054688 913.049804688 766.629882812 763.125976562 766.629882812 586.049804688 c 24
899.129882812 -408 m 1
 643.565429688 -408.104492188 l 1
771 -408 m 1
 770 913 l 9
 924 913 l 25
EndSplineSet
Fore
SplineSet
1018 -360 m 0
 1009 -384 969 -405 932 -405 c 2
 677 -405 l 2
 645.2734375 -405 623.104492188 -390.294921875 623.104492188 -370.971679688 c 0
 623.104492188 -367.759765625 623.717773438 -364.420898438 625 -361 c 0
 634 -337 674 -316 711 -316 c 2
 750.956054688 -316 l 1
 750.685546875 22.0078125 l 1
 683.4453125 1.5234375 596.891601562 -19 480 -19 c 0
 233 -19 49 182 49 441 c 0
 49 506 61 566 82 622 c 0
 146 788 312 933 519 933 c 0
 612.092773438 933 690.114257812 905.641601562 750.013671875 861.400390625 c 1
 750 878 l 2
 750 908 800 933 837 933 c 2
 991 933 l 2
 1022.57324219 933 1043.95214844 917.708984375 1043.95214844 898.310546875 c 0
 1043.95214844 894.975585938 1043.3203125 891.520507812 1042 888 c 0
 1033 864 994 844 957 844 c 2
 891 844 l 1
 891 106.188476562 l 1
 892.219726562 101.912109375 892.166992188 97.4365234375 891 92.935546875 c 1
 891 -316 l 1
 966 -316 l 2
 997.7265625 -316 1019.89550781 -330.705078125 1019.89550781 -350.028320312 c 0
 1019.89550781 -353.240234375 1019.28222656 -356.579101562 1018 -360 c 0
750.614257812 110.923828125 m 1
 750.492225981 263.133729188 750 416.520741603 750 568 c 7
 750 727 609 844 485 844 c 0
 403 844 279 777 219 622 c 0
 201 574 190 520 190 462 c 0
 190 217 379 70 514 70 c 0
 625.982421875 70 681.498046875 88.1728515625 750.614257812 110.923828125 c 1
EndSplineSet
EndChar

StartChar: g
Encoding: 103 103 24
Width: 1103
VWidth: 0
Flags: W
HStem: -404 89<375.149 686.427> -19 89<379.452 745.102> 844 89<360.696 616.974 890 1041.56>
VStem: 49 141<270.64 647.614> 128 140<-219.553 -73.9404> 748 140<-239.731 21.2451 96.2819 714.034>
LayerCount: 2
Back
SplineSet
771.129882812 67.2001953125 m 5
 683.91796875 39.3759765625 604.237304688 0 447.129882812 0 c 7
 255.76171875 0 69.1298828125 184.583984375 69.1298828125 451.200195312 c 4
 69.1298828125 717.81640625 260.26171875 913.049804688 451.629882812 913.049804688 c 15
 628.706054688 913.049804688 766.629882812 763.125976562 766.629882812 586.049804688 c 28
  Spiro
    771.13 67.2002 {
    683.373 37.4415 o
    581.46 11.2185 o
    447.13 0 o
    264.245 57.6182 o
    124.499 215.927 o
    69.1299 451.2 o
    125.664 689.23 o
    267.581 852.675 o
    451.63 913.05 o
    611.857 867.709 o
    724.394 749.383 o
    766.63 586.05 o
    0 0 z
  EndSpiro
924 913 m 29
 770 913 l 21
 768 -78.7998046875 l 6
 767.604792715 -274.783058555 690.928465037 -406.7995574 487 -406.799804688 c 4
 336 -406.799987793 148 -332.001953125 148 -142.799804688 c 4
  Spiro
    924 913 {
    770 913 v
    768 -78.7998 ]
    740.347 -250.795 o
    650.274 -365.395 o
    487 -406.8 o
    332.151 -380.455 o
    202.233 -295.217 o
    148 -142.8 o
    0 0 z
  EndSpiro
EndSplineSet
Fore
SplineSet
1042 888 m 0xf4
 1033 864 994 844 957 844 c 2
 890 844 l 1
 888.342773438 112.188476562 l 1
 892.91796875 104.754882812 892.99609375 95.1201171875 888.283203125 85.888671875 c 1
 888 -39 l 2
 888 -100 880 -155 861 -205 c 0
 819 -313 705 -404 520 -404 c 0
 339 -404 128 -319 128 -120 c 0
 128 -97 159 -73 198 -67 c 0
 203.842773438 -66.1015625 209.504882812 -65.673828125 214.911132812 -65.673828125 c 0
 245.591796875 -65.673828125 268 -79.4453125 268 -99 c 0xec
 268 -258 433 -315 554 -315 c 0
 648 -315 692 -290 724 -206 c 0
 739 -167 748 -117 748 -60 c 2
 748.172851562 21.2451171875 l 1
 681.291992188 1.017578125 595.44140625 -19 480 -19 c 0
 233 -19 49 182 49 441 c 0
 49 506 61 566 82 622 c 0
 146 788 312 933 519 933 c 0
 612.067382812 933 690.072265625 905.65625 749.96484375 861.436523438 c 1
 750 878 l 2
 750 909.284179688 797.008789062 933 837 933 c 2
 991 933 l 2
 1022.57324219 933 1043.95214844 917.708984375 1043.95214844 898.310546875 c 0
 1043.95214844 894.975585938 1043.3203125 891.520507812 1042 888 c 0xf4
748.36328125 110.182617188 m 1
 749.313476562 555.8125 l 1
 747.162109375 559.524414062 746 563.6171875 746 568 c 0
 746 727 609 844 485 844 c 0
 403 844 279 777 219 622 c 0
 201 574 190 520 190 462 c 0xf4
 190 217 379 70 514 70 c 0
 624.763671875 70 680.283203125 87.779296875 748.36328125 110.182617188 c 1
EndSplineSet
EndChar

StartChar: t
Encoding: 116 116 25
Width: 700
VWidth: 0
Flags: W
HStem: -19.0078 89.0078<352.451 522.857> 845 89<47.3959 196.952 336.952 538.508>
VStem: 196.952 140<83.1088 845 934 1101.92>
LayerCount: 2
Back
SplineSet
76 914 m 29
 432 914 l 29
228 1101.20019531 m 29
 228 144.200195312 l 22
 228 64.099609375 274.889287491 -0.788589798857 364 0 c 15
 452.869140625 0 548 61.200012207 564 109.200195312 c 4
EndSplineSet
Fore
SplineSet
266.952148438 1109 m 0
 272.64453125 1109.8984375 278.202148438 1110.32617188 283.538085938 1110.32617188 c 0
 313.821289062 1110.32617188 336.952148438 1096.5546875 336.952148438 1077 c 2
 336.952148438 934 l 1
 487.952148438 934 l 2
 519.524414062 934 540.903320312 918.708984375 540.903320312 899.310546875 c 0
 540.903320312 895.975585938 540.271484375 892.520507812 538.952148438 889 c 0
 529.952148438 865 490.952148438 845 453.952148438 845 c 2
 336.952148438 845 l 1
 336.952148438 172 l 2
 336.952148438 101 383.952148438 70 419.952148438 70 c 0
 466.952148438 70 526.952148438 108 533.952148438 128 c 0
 542.952148438 152 580.952148438 172 618.952148438 173 c 0
 619.82421875 173.0234375 620.688476562 173.034179688 621.545898438 173.034179688 c 0
 652.725585938 173.034179688 673.84375 158.004882812 673.84375 139.000976562 c 0
 673.84375 135.763671875 673.231445312 132.412109375 671.952148438 129 c 0
 646.952148438 59 518.952148438 -18 385.952148438 -19 c 0
 385.168945312 -19.005859375 384.389648438 -19.0078125 383.612304688 -19.0078125 c 0
 243.435546875 -19.0078125 196.952148438 70.4462890625 196.952148438 151 c 2
 196.952148438 845 l 1
 97.9521484375 845 l 2
 66.37890625 845 45 859.563476562 45 878.748046875 c 0
 45 882.045898438 45.6318359375 885.479492188 46.9521484375 889 c 0
 55.9521484375 913 94.9521484375 934 131.952148438 934 c 2
 196.952148438 934 l 1
 196.952148438 1055 l 2
 196.952148438 1078 228.952148438 1103 266.952148438 1109 c 0
EndSplineSet
EndChar

StartChar: u
Encoding: 117 117 26
Width: 1171
VWidth: 0
Flags: W
HStem: -19 89<448.012 818.732 961.952 1091.52> 845 89<48.3959 180.952 688.396 820.99 961.019 1093.51>
VStem: 46 274.952<845.376 925.11> 180.952 141<197.422 845> 821.841 140.061<96.175 845>
LayerCount: 2
Back
SplineSet
901.129882812 4 m 5
 768 0 l 5
 767 914 l 5
632 914 m 21
 901.129882812 914 l 5
-8 914 m 29
 127 914 l 21
 127.129882812 331.200195312 l 6
 127.170898438 148.17578125 255.76171875 0 447.129882812 0 c 7
 604.237304688 0 683.91796875 39.3759765625 771.129882812 67.2001953125 c 5
EndSplineSet
Fore
SplineSet
47.9521484375 889 m 0xe8
 56.9521484375 913 95.9521484375 934 132.952148438 934 c 2
 267.952148438 934 l 2
 299.952148438 934 320.952148438 917 320.952148438 900 c 2xe8
 321.952148438 349 l 2
 321.952148438 184 447.952148438 70 587.952148438 70 c 0
 698.458007812 70 753.977539062 87.697265625 821.840820312 110.02734375 c 1
 820.990234375 845 l 1
 738.952148438 845 l 2
 707.37890625 845 686 859.563476562 686 878.748046875 c 0
 686 882.045898438 686.631835938 885.479492188 687.952148438 889 c 0
 696.952148438 913 735.952148438 934 772.952148438 934 c 2
 1041.95214844 934 l 2
 1073.67871094 934 1095.84667969 918.559570312 1095.84667969 899.026367188 c 0
 1095.84667969 895.780273438 1095.234375 892.420898438 1093.95214844 889 c 0
 1084.95214844 865 1044.95214844 845 1007.95214844 845 c 2
 961.018554688 845 l 1
 961.901367188 112.806640625 l 1
 966.924804688 105.140625 967.092773438 95.0263671875 961.934570312 85.3125 c 1
 961.952148438 71 l 1
 1038.95214844 73 l 2
 1039.91113281 73.025390625 1040.86132812 73.0380859375 1041.80371094 73.0380859375 c 0
 1073.48828125 73.0380859375 1095.44433594 58.9033203125 1095.44433594 39.8056640625 c 0
 1095.44433594 36.9697265625 1094.95996094 34.0244140625 1093.95214844 31 c 0
 1085.95214844 7 1048.95214844 -14 1010.95214844 -15 c 2
 877.952148438 -19 l 2
 876.840820312 -19.033203125 875.740234375 -19.05078125 874.65234375 -19.05078125 c 0
 843.428710938 -19.05078125 821.952148438 -5.326171875 821.952148438 14 c 0
 821.952148438 16.396484375 821.943359375 18.79296875 821.943359375 21.189453125 c 1
 755.088867188 0.9814453125 669.2890625 -19 553.952148438 -19 c 0
 310.952148438 -19 180.952148438 147 180.952148438 328 c 2
 180.952148438 845 l 1xd8
 98.9521484375 845 l 2
 67.37890625 845 46 859.563476562 46 878.748046875 c 0
 46 882.045898438 46.6318359375 885.479492188 47.9521484375 889 c 0xe8
EndSplineSet
EndChar

StartChar: degree
Encoding: 176 176 27
AltUni2: 00030a.ffffffff.0
Width: 641
VWidth: 0
Flags: W
HStem: 979 36<293.442 387.496> 1203 36<284.927 378.775>
VStem: 197 54<1046.32 1179.15> 421 54<1037.91 1172.33>
LayerCount: 2
Back
SplineSet
251.280273438 1199.79980469 m 4
 251.280273438 1321.29492188 348.37109375 1419.90039062 468 1419.90039062 c 4
 587.62890625 1419.90039062 684.719726562 1321.29492188 684.719726562 1199.79980469 c 4
 684.719726562 1078.3046875 587.62890625 979.700195312 468 979.700195312 c 4
 348.37109375 979.700195312 251.280273438 1078.3046875 251.280273438 1199.79980469 c 4
EndSplineSet
Fore
SplineSet
329 1203 m 0
 293 1203 251 1168 251 1114 c 0
 251 1056 301 1015 343 1015 c 0
 380 1015 421 1050 421 1105 c 0
 421 1163 372 1203 329 1203 c 0
475 1114 m 0
 475 1038 411 979 329 979 c 0
 248 979 197 1039 197 1105 c 0
 197 1181 262 1239 343 1239 c 0
 424 1239 475 1180 475 1114 c 0
EndSplineSet
EndChar

StartChar: A
Encoding: 65 65 28
Width: 1491
VWidth: 0
Flags: W
HStem: -19 89<48.5156 206 343 483.556 983.516 1112 1264 1418.56> 428 89<505 949> 1280 89<517.516 646>
LayerCount: 2
Back
SplineSet
910.513671875 471.166992188 m 25
 290 471 l 25
1220 0 m 21
 1120 0 1020 0 920 0 c 5
1073 0 m 29
 600 1368 l 21
285 0 m 21
 185 -0 85 0 -15 0 c 5
127 0 m 13
 600 1368 l 21
 500 1368 554 1368 454 1368 c 13
EndSplineSet
Fore
SplineSet
484 25 m 0
 475 1 436 -19 399 -19 c 0
 299 -19 199 -19 99 -19 c 0
 67 -19 46 -4 46 15 c 0
 46 18 47 21 48 25 c 0
 57 49 96 70 133 70 c 2
 206 70 l 1
 646 1280 l 1
 568 1280 l 2
 536 1280 515 1295 515 1314 c 0
 515 1317 516 1320 517 1324 c 0
 526 1348 565 1369 602 1369 c 2
 748 1369 l 2
 773 1369 794 1360 800 1344 c 2
 1109 495 l 2
 1110 493 1111 490 1111 488 c 2
 1264 70 l 1
 1368 70 l 2
 1400 70 1421 54 1421 35 c 0
 1421 32 1420 29 1419 25 c 0
 1410 1 1371 -19 1334 -19 c 2
 1034 -19 l 2
 1002 -19 981 -4 981 15 c 0
 981 18 982 21 983 25 c 0
 992 49 1031 70 1068 70 c 2
 1112 70 l 1
 981 428 l 1
 473 428 l 1
 343 70 l 1
 433 70 l 2
 465 70 486 54 486 35 c 0
 486 32 485 29 484 25 c 0
727 1126 m 1
 505 517 l 1
 949 517 l 1
 727 1126 l 1
EndSplineSet
EndChar

StartChar: I
Encoding: 73 73 29
Width: 606
VWidth: 0
Flags: W
HStem: -19 89<75.5156 219 360 510.556> 1280 89<76.5156 219 360 511.556>
VStem: 219 141<70 1280>
LayerCount: 2
Back
SplineSet
383 1368 m 21
 283 1368 183 1368 83 1368 c 13
382 0 m 29
 82 0 l 21
228 0 m 13
 228 1368 l 29
EndSplineSet
Fore
SplineSet
511 25 m 0
 502 1 463 -19 426 -19 c 2
 126 -19 l 2
 94 -19 73 -4 73 15 c 0
 73 18 74 21 75 25 c 0
 84 49 123 70 160 70 c 2
 219 70 l 1
 219 1280 l 1
 127 1280 l 2
 95 1280 74 1295 74 1314 c 0
 74 1317 75 1320 76 1324 c 0
 85 1348 124 1369 161 1369 c 2
 461 1369 l 2
 493 1369 514 1353 514 1334 c 0
 514 1331 513 1328 512 1324 c 0
 503 1300 464 1280 427 1280 c 2
 360 1280 l 1
 360 70 l 1
 460 70 l 2
 492 70 513 54 513 35 c 0
 513 32 512 29 511 25 c 0
EndSplineSet
EndChar

StartChar: B
Encoding: 66 66 30
Width: 1112
VWidth: 0
Flags: W
HStem: -19 89<75.5156 219 360 781.399> 651 89<360 707.05> 1280 89<76.5156 219 360 735.788>
VStem: 219 141<70 651 740 1280> 865 141<862.386 1165.29> 931 141<207.908 504.79>
LayerCount: 2
Back
SplineSet
420 705 m 5
 748 681 940 589.237304688 940 373 c 7
 940 111 740 0 472 0 c 13
 82 0 l 21
83 1368 m 21
 183 1368 323 1368 423 1368 c 5
 690 1368 874 1301.26833136 874 1038 c 7
 874 813.191115585 692 739 420 705 c 5
 229 706 l 13
228 0 m 13
 228 1368 l 29
EndSplineSet
Fore
SplineSet
1006 1022 m 0xf8
 1006 852 894 762 737 707 c 1
 945 659 1072 560 1072 390 c 0xf4
 1072 338 1063 291 1047 248 c 0
 978 67 757 -19 516 -19 c 2
 126 -19 l 2
 94 -19 73 -4 73 15 c 0
 73 18 74 21 75 25 c 0
 84 49 123 70 160 70 c 2
 219 70 l 1
 219 1280 l 1
 127 1280 l 2
 95 1280 74 1295 74 1314 c 0
 74 1317 75 1320 76 1324 c 0
 85 1348 124 1369 161 1369 c 2
 501 1369 l 2
 791 1369 1006 1290 1006 1022 c 0xf8
492 739 m 1
 739 769 865 813 865 1000 c 0xf8
 865 1232 711 1280 467 1280 c 2
 360 1280 l 1
 360 740 l 1
 492 739 l 1
360 651 m 1
 360 70 l 1
 550 70 l 2
 738 70 860 119 910 248 c 0
 923 282 931 322 931 369 c 0xf4
 931 552 771 628 460 650 c 1
 360 651 l 1
EndSplineSet
EndChar

StartChar: D
Encoding: 68 68 31
Width: 1317
VWidth: 0
Flags: W
HStem: -19 89<76.5156 219 360 807.766> 1280 89<76.5156 219 360 779.176>
VStem: 219 141<70 1280> 1133 141<463.871 928.325>
LayerCount: 2
Back
SplineSet
82 1368 m 21
 542 1368 l 14
 883.2421875 1368 1141 1071.44238281 1141 730.200195312 c 28
 1141 361.86328125 910.336914062 0 542 0 c 22
 82 0 l 5
228 0 m 13
 227 1368 l 29
EndSplineSet
Fore
SplineSet
76 1324 m 0
 85 1348 124 1369 161 1369 c 2
 621 1369 l 2
 1016 1369 1274 1061 1274 729 c 0
 1274 627 1254 526 1218 432 c 0
 1129 200 915 -19 587 -19 c 2
 127 -19 l 2
 95 -19 74 -4 74 15 c 0
 74 18 75 21 76 25 c 0
 85 49 124 70 161 70 c 2
 219 70 l 1
 219 1280 l 1
 127 1280 l 2
 95 1280 74 1295 74 1314 c 0
 74 1317 75 1320 76 1324 c 0
360 1280 m 1
 360 70 l 1
 621 70 l 2
 822 70 995 206 1082 432 c 0
 1115 518 1133 613 1133 708 c 0
 1133 1024 874 1280 587 1280 c 2
 360 1280 l 1
EndSplineSet
EndChar

StartChar: E
Encoding: 69 69 32
Width: 1213
VWidth: 0
Flags: W
HStem: -19 89<75.5156 219 360 910> 673 89<360 884.556> 1280 89<76.5156 219 360 933>
VStem: 219 141<70 673 762 1280> 933 141<1161.47 1280>
LayerCount: 2
Back
SplineSet
756 729 m 29
 225 729 l 29
1056 214 m 21
 882 0 l 13
 82 0 l 21
83 1368 m 21
 183 1368 842 1368 942 1368 c 13
 942 1234 l 29
228 0 m 13
 228 1368 l 29
EndSplineSet
Fore
SplineSet
219 695 m 1
 215 702 215 712 219 720 c 1
 219 1280 l 1
 127 1280 l 2
 95 1280 74 1295 74 1314 c 0
 74 1317 75 1320 76 1324 c 0
 85 1348 124 1369 161 1369 c 2
 1020 1369 l 2
 1052 1369 1074 1353 1074 1335 c 2
 1074 1208 l 2
 1074 1185 1042 1160 1003 1154 c 0
 997 1153 991 1153 986 1153 c 0
 955 1153 933 1166 933 1186 c 2
 933 1280 l 1
 360 1280 l 1
 360 762 l 1
 834 762 l 2
 866 762 887 746 887 727 c 0
 887 724 886 721 885 717 c 0
 876 693 837 673 800 673 c 2
 360 673 l 1
 360 70 l 1
 910 70 l 1
 1057 242 l 2
 1073 261 1105 273 1134 273 c 0
 1141 273 1147 272 1153 271 c 0
 1175 266 1187 254 1187 239 c 0
 1187 232 1184 224 1177 216 c 2
 1003 12 l 2
 987 -7 954 -19 926 -19 c 2
 126 -19 l 2
 94 -19 73 -4 73 15 c 0
 73 18 74 21 75 25 c 0
 84 49 123 70 160 70 c 2
 219 70 l 1
 219 695 l 1
EndSplineSet
EndChar

StartChar: H
Encoding: 72 72 33
Width: 1429
VWidth: 0
Flags: W
HStem: -19 89<75.5156 219 360 510.556 898.516 1041 1182 1333.56> 673 89<360 1041> 1280 89<76.5156 219 360 511.556 898.516 1041 1182 1333.56>
VStem: 219 141<70 673 762 1280> 1041 141<70 673 762 1280>
LayerCount: 2
Back
SplineSet
1049 729 m 29
 225 729 l 29
1205 1368 m 21
 1105 1368 1005 1368 905 1368 c 13
1205 0 m 29
 905 0 l 21
1051 0 m 13
 1050 1368 l 29
383 1368 m 21
 283 1368 183 1368 83 1368 c 13
382 0 m 29
 82 0 l 21
228 0 m 13
 228 1368 l 29
EndSplineSet
Fore
SplineSet
219 695 m 1
 215 702 215 712 219 720 c 1
 219 1280 l 1
 127 1280 l 2
 95 1280 74 1295 74 1314 c 0
 74 1317 75 1320 76 1324 c 0
 85 1348 124 1369 161 1369 c 2
 461 1369 l 2
 493 1369 514 1353 514 1334 c 0
 514 1331 513 1328 512 1324 c 0
 503 1300 464 1280 427 1280 c 2
 360 1280 l 1
 360 762 l 1
 1041 762 l 1
 1041 1280 l 1
 949 1280 l 2
 917 1280 896 1295 896 1314 c 0
 896 1317 897 1320 898 1324 c 0
 907 1348 946 1369 983 1369 c 2
 1283 1369 l 2
 1315 1369 1336 1353 1336 1334 c 0
 1336 1331 1335 1328 1334 1324 c 0
 1325 1300 1286 1280 1249 1280 c 2
 1182 1280 l 1
 1182 70 l 1
 1283 70 l 2
 1315 70 1336 54 1336 35 c 0
 1336 32 1335 29 1334 25 c 0
 1325 1 1286 -19 1249 -19 c 2
 949 -19 l 2
 917 -19 896 -4 896 15 c 0
 896 18 897 21 898 25 c 0
 907 49 946 70 983 70 c 2
 1041 70 l 1
 1041 673 l 1
 360 673 l 1
 360 70 l 1
 460 70 l 2
 492 70 513 54 513 35 c 0
 513 32 512 29 511 25 c 0
 502 1 463 -19 426 -19 c 2
 126 -19 l 2
 94 -19 73 -4 73 15 c 0
 73 18 74 21 75 25 c 0
 84 49 123 70 160 70 c 2
 219 70 l 1
 219 695 l 1
EndSplineSet
EndChar

StartChar: K
Encoding: 75 75 34
Width: 1331
VWidth: 0
Flags: W
HStem: -19 89<77.1797 221 362 512.82 815.516 934 1091 1251.56> 1280 89<77.5156 221 362 512.556 786.516 905 1045 1222.56>
VStem: 221 141<70 635.55 712 1280>
LayerCount: 2
Back
SplineSet
1091.25195312 1368 m 21
 991.251953125 1368 891.251953125 1368 791.251953125 1368 c 13
1120.50488281 0 m 29
 820.504882812 0 l 21
502.625976562 786.3515625 m 5
 604.256835938 676.376953125 723.240234375 535.905273438 760.625976562 462.3515625 c 6
 970.504882812 0 l 6
947.251953125 1371.72363281 m 5
 595.625976562 870.3515625 l 6
 528.424050049 774.530516073 343.625976562 675.351287842 229.625976562 657.3515625 c 4
382 0 m 29
 82 0 l 21
228 0 m 13
 229 1368 l 29
382 1368 m 21
 282 1368 182 1368 82 1368 c 13
382 0 m 29
 82 0 l 21
228 0 m 13
 228 1368 l 29
EndSplineSet
Fore
SplineSet
75 15 m 0
 75 48 124 70 162 70 c 2
 221 70 l 1
 221 1280 l 1
 128 1280 l 2
 96 1280 75 1295 75 1314 c 0
 75 1317 76 1320 77 1324 c 0
 86 1348 125 1369 162 1369 c 2
 462 1369 l 2
 494 1369 515 1353 515 1334 c 0
 515 1331 514 1328 513 1324 c 0
 504 1300 465 1280 428 1280 c 2
 362 1280 l 1
 363 712 l 1
 408 729 459 755 504 784 c 1
 512 793 525 802 539 808 c 1
 563 826 583 844 596 862 c 2
 905 1280 l 1
 837 1280 l 2
 805 1280 784 1295 784 1314 c 0
 784 1317 785 1320 786 1324 c 0
 795 1348 834 1369 871 1369 c 2
 1000 1369 l 1
 1009 1371 1019 1372 1029 1372 c 0
 1038 1372 1046 1371 1053 1369 c 1
 1171 1369 l 2
 1203 1369 1225 1354 1225 1334 c 0
 1225 1331 1224 1327 1223 1324 c 0
 1214 1300 1174 1280 1137 1280 c 2
 1045 1280 l 1
 721 842 l 2
 704 819 681 795 655 773 c 1
 751 673 853 558 891 487 c 1
 1091 70 l 1
 1201 70 l 2
 1233 70 1254 54 1254 35 c 0
 1254 32 1253 29 1252 25 c 0
 1243 1 1203 -19 1166 -19 c 2
 866 -19 l 2
 834 -19 813 -4 813 15 c 0
 813 18 814 21 815 25 c 0
 824 49 864 70 901 70 c 2
 934 70 l 1
 756 442 l 1
 727 496 634 604 545 699 c 1
 486 666 422 639 362 622 c 1
 362 70 l 1
 462 70 l 2
 494 70 515 55 515 36 c 0
 515 3 466 -19 428 -19 c 2
 128 -19 l 2
 96 -19 75 -4 75 15 c 0
EndSplineSet
EndChar

StartChar: F
Encoding: 70 70 35
Width: 1170
VWidth: 0
Flags: W
HStem: -19 89<75.5156 219 360 507.556> 673 89<360 884.556> 1280 89<76.5156 219 360 933>
VStem: 219 141<70 673 762 1280> 933 141<1161.47 1280>
LayerCount: 2
Back
SplineSet
756 729 m 29
 225 729 l 29
379 0 m 13
 82 0 l 21
83 1368 m 21
 183 1368 842 1368 942 1368 c 13
 942 1234 l 29
228 0 m 13
 228 1368 l 29
EndSplineSet
Fore
SplineSet
219 695 m 1
 215 702 215 712 219 720 c 1
 219 1280 l 1
 127 1280 l 2
 95 1280 74 1295 74 1314 c 0
 74 1317 75 1320 76 1324 c 0
 85 1348 124 1369 161 1369 c 2
 1020 1369 l 2
 1052 1369 1074 1353 1074 1335 c 2
 1074 1208 l 2
 1074 1185 1042 1160 1003 1154 c 0
 997 1153 991 1153 986 1153 c 0
 955 1153 933 1166 933 1186 c 2
 933 1280 l 1
 360 1280 l 1
 360 762 l 1
 834 762 l 2
 866 762 887 746 887 727 c 0
 887 724 886 721 885 717 c 0
 876 693 837 673 800 673 c 2
 360 673 l 1
 360 70 l 1
 457 70 l 2
 489 70 510 54 510 35 c 0
 510 32 509 29 508 25 c 0
 499 1 460 -19 423 -19 c 2
 126 -19 l 2
 94 -19 73 -4 73 15 c 0
 73 18 74 21 75 25 c 0
 84 49 123 70 160 70 c 2
 219 70 l 1
 219 695 l 1
EndSplineSet
EndChar

StartChar: L
Encoding: 76 76 36
Width: 1214
VWidth: 0
Flags: W
HStem: -19 89<75.5156 219 360 910> 1280 89<76.5156 219 360 499.556>
VStem: 219 141<70 1280>
LayerCount: 2
Back
SplineSet
1056 214 m 21
 882 0 l 13
 82 0 l 21
83 1368 m 17
 183 1368 271 1368 371 1368 c 9
228 0 m 13
 228 1368 l 25
EndSplineSet
Fore
SplineSet
76 1324 m 0
 85 1348 124 1369 161 1369 c 2
 449 1369 l 2
 481 1369 502 1353 502 1334 c 0
 502 1331 501 1328 500 1324 c 0
 491 1300 452 1280 415 1280 c 2
 360 1280 l 1
 360 70 l 1
 910 70 l 1
 1057 242 l 2
 1073 261 1105 273 1134 273 c 0
 1141 273 1147 272 1153 271 c 0
 1175 266 1187 254 1187 239 c 0
 1187 232 1184 224 1177 216 c 2
 1003 12 l 2
 987 -7 954 -19 926 -19 c 2
 126 -19 l 2
 94 -19 73 -4 73 15 c 0
 73 18 74 21 75 25 c 0
 84 49 123 70 160 70 c 2
 219 70 l 1
 219 1280 l 1
 127 1280 l 2
 95 1280 74 1295 74 1314 c 0
 74 1317 75 1320 76 1324 c 0
EndSplineSet
EndChar

StartChar: O
Encoding: 79 79 37
Width: 1334
VWidth: 0
Flags: W
HStem: -19 89<456.626 913.657> 1281 89<426.21 888.14>
VStem: 54 141<352.024 1006.57> 1148 141<336.468 990.276>
LayerCount: 2
Back
SplineSet
709 1369 m 7
 562 1369 386 1329 282 1193 c 4
 191 1074 162 872 162 681 c 7
 162 480 190 284 290 165 c 4
 393 42 569 0 709 0 c 7
 849 0 1025 42 1128 165 c 4
 1228 284 1256 480 1256 681 c 7
 1256 872 1227 1074 1136 1193 c 4
 1032 1329 856 1369 709 1369 c 7
EndSplineSet
Fore
SplineSet
654 1281 m 0
 524 1281 389 1250 305 1146 c 0
 227 1050 195 862 195 683 c 0
 195 494 225 313 316 210 c 0
 409 104 567 70 688 70 c 0
 810 70 948 103 1030 196 c 0
 1114 291 1148 472 1148 661 c 0
 1148 840 1116 1028 1033 1131 c 0
 938 1249 783 1281 654 1281 c 0
688 1370 m 0
 853 1370 1050 1326 1163 1185 c 0
 1262 1062 1289 867 1289 683 c 0
 1289 491 1266 299 1150 168 c 0
 1026 28 812 -19 654 -19 c 0
 495 -19 301 26 188 154 c 0
 79 277 54 468 54 661 c 0
 54 845 79 1041 183 1170 c 0
 307 1324 524 1370 688 1370 c 0
EndSplineSet
EndChar

StartChar: Q
Encoding: 81 81 38
Width: 1371
VWidth: 0
Flags: W
HStem: -148 89<919.03 1135.88> -19 89<491.5 734.359> 1281 89<426.21 888.14>
VStem: 54 141<352.024 1006.57> 1148 141<336.468 990.276>
LayerCount: 2
Back
SplineSet
1259 -32 m 4
 1191 -104 1121.00976562 -136 1019 -136 c 31
 886.977539062 -136 841.022460938 0 709 0 c 31
 583.83984375 0 505.08984375 -31.58203125 413 -124 c 13
709 1369 m 7
 562 1369 386 1329 282 1193 c 4
 191 1074 162 872 162 681 c 7
 162 480 190 284 290 165 c 4
 393 42 569 0 709 0 c 7
 849 0 1025 42 1128 165 c 4
 1228 284 1256 480 1256 681 c 7
 1256 872 1227 1074 1136 1193 c 4
 1032 1329 856 1369 709 1369 c 7
EndSplineSet
Fore
SplineSet
654 1281 m 0
 524 1281 389 1250 305 1146 c 0
 227 1050 195 862 195 683 c 0
 195 494 225 313 316 210 c 0
 409 104 567 70 688 70 c 0
 810 70 948 103 1030 196 c 0
 1114 291 1148 472 1148 661 c 0
 1148 840 1116 1028 1033 1131 c 0
 938 1249 783 1281 654 1281 c 0
688 1370 m 0
 853 1370 1050 1326 1163 1185 c 0
 1262 1062 1289 867 1289 683 c 0
 1289 491 1266 299 1150 168 c 0
 1080 89 982 40 881 12 c 1
 931 -22 961 -59 998 -59 c 0
 1071 -59 1107 -47 1164 11 c 0
 1181 29 1211 39 1238 39 c 0
 1246 39 1255 38 1262 36 c 0
 1281 31 1291 19 1291 6 c 0
 1291 -3 1287 -12 1278 -21 c 0
 1199 -100 1095 -148 964 -148 c 0
 769 -148 723 -19 654 -19 c 0
 554 -19 512 -33 431 -110 c 0
 414 -126 385 -137 358 -137 c 0
 349 -137 340 -136 332 -133 c 0
 314 -127 305 -116 305 -103 c 0
 305 -94 309 -84 319 -75 c 0
 355 -40 393 -12 434 10 c 1
 340 36 251 82 188 154 c 0
 79 277 54 468 54 661 c 0
 54 845 79 1041 183 1170 c 0
 307 1324 524 1370 688 1370 c 0
EndSplineSet
EndChar

StartChar: R
Encoding: 82 82 39
Width: 1244
VWidth: 0
Flags: W
HStem: -19 89<73.5156 217 358 508.556 741.516 863 1018 1177.56> 609 89<358 615.504> 1280 89<76.5156 217 358 734.646>
VStem: 217 141<70 609 698 1280> 872 141<851.417 1154.66>
LayerCount: 2
Back
SplineSet
1050.50488281 0 m 29
 750.504882812 0 l 21
490.504882812 661.200195312 m 4
 640.504882812 655.200195312 681.62890625 518.7421875 744.504882812 382.200195312 c 6
 900.504882812 0 l 6
85.1630859375 1368 m 21
 183.671875 1368 379.997070312 1368 478.504882812 1368 c 5
 752.3671875 1368 883.763671875 1240.39746094 883.763671875 1036.10839844 c 23
 883.763671875 860.671875 736.484375 660.420898438 490.504882812 661.200195312 c 6
 228.985351562 662.028320312 l 12
382 0 m 29
 82 0 l 21
228 0 m 13
 228 1368 l 29
EndSplineSet
Fore
SplineSet
509 25 m 0
 500 1 461 -19 424 -19 c 2
 124 -19 l 2
 92 -19 71 -4 71 15 c 0
 71 18 72 21 73 25 c 0
 82 49 121 70 158 70 c 2
 217 70 l 1
 217 1280 l 1
 127 1280 l 2
 95 1280 74 1295 74 1314 c 0
 74 1317 75 1320 76 1324 c 0
 85 1348 124 1369 161 1369 c 2
 555 1369 l 2
 868 1369 1013 1226 1013 1020 c 0
 1013 978 1004 935 988 893 c 0
 951 798 863 696 730 644 c 1
 804 585 833 490 872 410 c 1
 1018 70 l 1
 1127 70 l 2
 1159 70 1180 54 1180 35 c 0
 1180 32 1179 29 1178 25 c 0
 1169 1 1129 -19 1092 -19 c 2
 792 -19 l 2
 760 -19 739 -4 739 15 c 0
 739 18 740 21 741 25 c 0
 750 49 790 70 827 70 c 2
 863 70 l 1
 735 367 l 1
 668 505 622 604 530 609 c 1
 358 609 l 1
 358 70 l 1
 458 70 l 2
 490 70 511 54 511 35 c 0
 511 32 510 29 509 25 c 0
358 1280 m 1
 358 698 l 1
 567 698 l 2
 700 698 805 773 852 893 c 0
 865 927 872 963 872 998 c 0
 872 1180 755 1280 520 1280 c 2
 358 1280 l 1
EndSplineSet
EndChar

StartChar: T
Encoding: 84 84 40
Width: 1278
VWidth: 0
Flags: W
HStem: -19 89<427.516 561 702 862.556> 1280 89<219 561 702 1043>
VStem: 78 141<1003.59 1280> 561 141<70 1280> 1043 141<1003.47 1280>
LayerCount: 2
Back
SplineSet
154 1068 m 21
 154 1168 154 1268 154 1368 c 5
 475.257641046 1368 820.346214069 1368 1119 1368 c 5
 1119 1268 1119 1168 1119 1068 c 13
801 0 m 29
 501 0 l 21
637 0 m 13
 637 1368 l 29
EndSplineSet
Fore
SplineSet
863 25 m 0
 854 1 815 -19 778 -19 c 2
 478 -19 l 2
 446 -19 425 -4 425 15 c 0
 425 18 426 21 427 25 c 0
 436 49 475 70 512 70 c 2
 561 70 l 1
 561 1280 l 1
 219 1280 l 1
 219 1050 l 2
 219 1026 186 1002 148 996 c 0
 142 995 137 995 131 995 c 0
 101 995 78 1008 78 1028 c 2
 78 1313 l 2
 78 1343 129 1369 165 1369 c 2
 1130 1369 l 2
 1162 1369 1184 1353 1184 1335 c 2
 1184 1050 l 2
 1184 1027 1152 1002 1113 996 c 0
 1107 995 1101 995 1096 995 c 0
 1065 995 1043 1008 1043 1028 c 2
 1043 1280 l 1
 702 1280 l 1
 702 70 l 1
 812 70 l 2
 844 70 865 54 865 35 c 0
 865 32 864 29 863 25 c 0
EndSplineSet
EndChar

StartChar: U
Encoding: 85 85 41
Width: 1530
VWidth: 0
Flags: W
HStem: -19 89<566.685 979.13> 1280 89<60.5156 203 344 495.556 1020.52 1163 1304 1455.56>
VStem: 203 141<295.479 1280> 1163 141<278.397 1280>
LayerCount: 2
Back
SplineSet
1339 1368 m 21
 1239 1368 1139 1368 1039 1368 c 13
379 1368 m 21
 279 1368 179 1368 79 1368 c 13
224 1368 m 29
 224 1051.46972656 224 872.913085938 224 556.3828125 c 23
 224 393.170898438 252 233.856445312 352 137.227539062 c 4
 455 37.3515625 569 0 709 0 c 7
 849 0 953 30.8564453125 1056 130.732421875 c 4
 1156 227.360351562 1184 378.862304688 1184 549.723632812 c 31
 1184 868.8515625 1184 1048.87207031 1184 1368 c 29
EndSplineSet
Fore
SplineSet
496 1324 m 0
 487 1300 448 1280 411 1280 c 2
 344 1280 l 1
 344 564 l 2
 344 412 373 267 462 186 c 0
 559 97 655 70 775 70 c 0
 896 70 963 88 1050 168 c 0
 1129 241 1163 375 1163 536 c 2
 1163 1280 l 1
 1071 1280 l 2
 1039 1280 1018 1295 1018 1314 c 0
 1018 1317 1019 1320 1020 1324 c 0
 1029 1348 1068 1369 1105 1369 c 2
 1405 1369 l 2
 1437 1369 1458 1353 1458 1334 c 0
 1458 1331 1457 1328 1456 1324 c 0
 1447 1300 1408 1280 1371 1280 c 2
 1304 1280 l 1
 1304 558 l 2
 1304 395 1281 242 1160 131 c 0
 1041 22 900 -19 741 -19 c 0
 581 -19 449 24 340 125 c 0
 229 227 203 385 203 543 c 2
 203 1280 l 1
 111 1280 l 2
 79 1280 58 1295 58 1314 c 0
 58 1317 59 1320 60 1324 c 0
 69 1348 108 1369 145 1369 c 2
 445 1369 l 2
 477 1369 498 1353 498 1334 c 0
 498 1331 497 1328 496 1324 c 0
EndSplineSet
EndChar

StartChar: P
Encoding: 80 80 42
Width: 1089
VWidth: 0
Flags: W
HStem: -19 89<75.5156 219 360 510.556> 447 87<361.757 675.59> 1280 89<76.5156 219 360 685.626>
VStem: 219 141<70 452 541.075 1280> 905 141<754.14 1090.41>
LayerCount: 2
Back
SplineSet
83 1368 m 21
 183 1368 313 1368 413 1368 c 5
 691.010513306 1368 914 1214.79394531 914 963.723632812 c 31
 914 644.724609375 595.010513306 408.72303772 229 516.72265625 c 13
382 0 m 29
 82 0 l 21
228 0 m 13
 228 1368 l 29
EndSplineSet
Fore
SplineSet
1046 951 m 0
 1046 643 756 447 447 447 c 0
 418 447 389 448 360 452 c 1
 360 70 l 1
 460 70 l 2
 492 70 513 54 513 35 c 0
 513 32 512 29 511 25 c 0
 502 1 463 -19 426 -19 c 2
 126 -19 l 2
 94 -19 73 -4 73 15 c 0
 73 18 74 21 75 25 c 0
 84 49 123 70 160 70 c 2
 219 70 l 1
 219 1280 l 1
 127 1280 l 2
 95 1280 74 1295 74 1314 c 0
 74 1317 75 1320 76 1324 c 0
 85 1348 124 1369 161 1369 c 2
 491 1369 l 2
 807 1369 1046 1205 1046 951 c 0
360 1280 m 1
 360 550 l 1
 406 539 449 534 490 534 c 0
 617 534 719 583 794 659 c 0
 860 727 905 822 905 930 c 0
 905 1153 697 1280 457 1280 c 2
 360 1280 l 1
EndSplineSet
EndChar

StartChar: C
Encoding: 67 67 43
Width: 1228
VWidth: 0
Flags: W
HStem: -19 89<456.626 916.174> 958 374<1003.57 1134.75> 1281 89<426.21 867.895>
VStem: 54 141<352.024 1006.57> 996 141<966.405 1187.4>
LayerCount: 2
Back
SplineSet
1104 1329.20019531 m 21
 1104 1229.20019531 1104 1129.20019531 1104 1029.20019531 c 5
1104 1213.20019531 m 4
 988 1325.40039062 856 1369 709 1369 c 7
 562 1369 386 1329 282 1193 c 4
 191 1074 162 872 162 681 c 7
 162 480 190 284 290 165 c 4
 393 42 569 0 709 0 c 7
 849 0 986.864257812 32.013671875 1108 137.200195312 c 4
EndSplineSet
Fore
SplineSet
1066 1330 m 0xb8
 1072 1331 1077 1332 1083 1332 c 0
 1113 1332 1137 1318 1137 1298 c 2
 1137 1013 l 2
 1137 990 1105 965 1066 959 c 0
 1060 958 1055 958 1050 958 c 0xd8
 1019 958 996 972 996 992 c 2
 996 1155 l 1
 889 1249 776 1281 654 1281 c 0
 524 1281 389 1250 305 1146 c 0
 227 1050 195 862 195 683 c 0
 195 494 225 313 316 210 c 0
 409 104 567 70 688 70 c 0
 812 70 916 93 1018 177 c 0
 1036 192 1064 200 1088 200 c 0
 1099 200 1108 199 1117 195 c 0
 1132 189 1140 178 1140 166 c 0
 1140 156 1134 145 1122 135 c 0
 981 19 810 -19 654 -19 c 0
 495 -19 301 26 188 154 c 0
 79 277 54 468 54 661 c 0
 54 845 79 1041 183 1170 c 0
 307 1324 524 1370 688 1370 c 0
 803 1370 909 1346 1003 1296 c 1
 1015 1312 1039 1326 1066 1330 c 0xb8
EndSplineSet
EndChar

StartChar: G
Encoding: 71 71 44
Width: 1285
VWidth: 0
Flags: W
HStem: -19 89<456.626 918.257> 491 89<810.516 999 1140 1245.56> 958 374<1003.57 1133.82> 1281 89<426.21 867.895>
VStem: 54 141<352.024 1006.57> 999 141<-10.9205 56 134.621 491 967.5 1187.4>
LayerCount: 2
Back
SplineSet
1136 537.200195312 m 21
 1036 537.200195312 936 537.200195312 836 537.200195312 c 13
1027 534 m 21
 1028 0 l 6
1024 1329.20019531 m 21
 1024 1229.20019531 1024 1129.20019531 1024 1029.20019531 c 5
1024 1213.20019531 m 4
 908 1325.40039062 776 1369 629 1369 c 7
 482 1369 306 1329 202 1193 c 4
 111 1074 82 872 82 681 c 7
 82 480 110 284 210 165 c 4
 313 42 489 0 629 0 c 7
 769 0 906.864257812 32.013671875 1028 137.200195312 c 4
EndSplineSet
Fore
SplineSet
1066 1330 m 0xdc
 1072 1331 1077 1332 1083 1332 c 0
 1113 1332 1136 1318 1136 1298 c 2
 1136 1013 l 2
 1136 990 1105 965 1066 959 c 0
 1060 958 1055 958 1050 958 c 0xec
 1019 958 996 972 996 992 c 2
 996 1155 l 1
 889 1249 776 1281 654 1281 c 0
 524 1281 389 1250 305 1146 c 0
 227 1050 195 862 195 683 c 0
 195 494 225 313 316 210 c 0
 409 104 567 70 688 70 c 0
 804 70 903 90 999 162 c 1
 999 491 l 1
 861 491 l 2
 829 491 808 506 808 525 c 0
 808 528 809 531 810 535 c 0
 819 559 858 580 895 580 c 2
 1195 580 l 2
 1227 580 1248 564 1248 545 c 0
 1248 542 1247 539 1246 535 c 0
 1237 511 1198 491 1161 491 c 2
 1140 491 l 1
 1140 383 1140 274 1140 166 c 2
 1141 36 l 2
 1141 13 1109 -12 1070 -18 c 0
 1064 -19 1059 -19 1054 -19 c 0
 1023 -19 1000 -5 1000 15 c 2
 999 56 l 1
 888 1 767 -19 654 -19 c 0
 495 -19 301 26 188 154 c 0
 79 277 54 468 54 661 c 0
 54 845 79 1041 183 1170 c 0
 307 1324 524 1370 688 1370 c 0
 803 1370 909 1346 1003 1296 c 1
 1015 1312 1039 1326 1066 1330 c 0xdc
EndSplineSet
EndChar

StartChar: J
Encoding: 74 74 45
Width: 662
VWidth: 0
Flags: W
HStem: -404 83<24.3383 158.905> 1279 89<151.516 340 481 586.556>
VStem: 341 141<-94.1105 1279>
LayerCount: 2
Back
SplineSet
336 1367.20019531 m 21
 236 1367.20019531 136 1367.20019531 36 1367.20019531 c 13
227 1364 m 21
 228 230 l 6
 228.202825592 -0.00422105499237 208.989501953 -308 -91 -405.799804688 c 4
EndSplineSet
Fore
SplineSet
587 1323 m 0
 578 1299 539 1279 502 1279 c 2
 481 1279 l 1
 482 255 l 2
 482 48 481 -284 109 -399 c 0
 98 -403 87 -404 76 -404 c 0
 52 -404 31 -396 24 -381 c 0
 22 -378 22 -374 22 -371 c 0
 22 -352 44 -331 75 -321 c 0
 303 -250 341 3 341 233 c 2
 340 1279 l 1
 202 1279 l 2
 170 1279 149 1294 149 1313 c 0
 149 1316 150 1319 151 1323 c 0
 160 1347 199 1368 236 1368 c 2
 536 1368 l 2
 568 1368 589 1352 589 1333 c 0
 589 1330 588 1327 587 1323 c 0
EndSplineSet
EndChar

StartChar: W
Encoding: 87 87 46
Width: 2149
VWidth: 0
Flags: W
HStem: -19 21G<694 713 1384 1403> 1280 89<65.5156 220 371 501.556 1630.52 1773 1910 2066.56>
LayerCount: 2
Back
SplineSet
1561.5 1368 m 21
 1661.5 1368 1761.5 1368 1861.5 1368 c 5
-3.5 1368 m 21
 96.5 1368 196.5 1368 296.5 1368 c 5
143.5 1368 m 29
 586.5 0 l 29
 933 1044 l 21
 1276.5 0 l 13
 1719.5 1368 l 21
EndSplineSet
Fore
SplineSet
65 1324 m 0
 74 1348 114 1369 151 1369 c 2
 451 1369 l 2
 483 1369 504 1353 504 1334 c 0
 504 1331 503 1328 502 1324 c 0
 493 1300 453 1280 416 1280 c 2
 371 1280 l 1
 728 234 l 1
 1001 1015 l 2
 1010 1040 1050 1061 1088 1061 c 0
 1089 1061 1090 1061 1091 1061 c 0
 1116 1060 1135 1049 1139 1036 c 2
 1417 235 l 1
 1773 1280 l 1
 1681 1280 l 2
 1649 1280 1628 1295 1628 1314 c 0
 1628 1317 1629 1320 1630 1324 c 0
 1639 1348 1679 1369 1716 1369 c 0
 1816 1369 1916 1369 2016 1369 c 0
 2048 1369 2069 1353 2069 1334 c 0
 2069 1331 2068 1328 2067 1324 c 0
 2058 1300 2018 1280 1981 1280 c 2
 1910 1280 l 1
 1482 27 l 2
 1477 12 1458 -5 1433 -13 c 0
 1421 -17 1409 -19 1397 -19 c 0
 1371 -19 1349 -10 1344 6 c 2
 1066 809 l 1
 792 26 l 2
 786 10 768 -5 743 -13 c 0
 731 -17 719 -19 707 -19 c 0
 681 -19 659 -10 654 6 c 2
 220 1280 l 1
 116 1280 l 2
 84 1280 63 1295 63 1314 c 0
 63 1317 64 1320 65 1324 c 0
EndSplineSet
EndChar

StartChar: S
Encoding: 83 83 47
Width: 1079
VWidth: 0
Flags: W
HStem: -20 90<400 787.469> 34 374<72.2446 208.657> 958 374<849.526 981.752> 1280 88<366.257 710.179>
VStem: 70 141<190.176 399.047> 115 141<903.364 1174.93> 843 141<966.405 1188.57> 895 142<177.979 443.038>
LayerCount: 2
Back
SplineSet
331.279296875 355.130859375 m 17
 331.279296875 255.130859375 331.279296875 155.130859375 331.279296875 55.130859375 c 1
  Spiro
    331.279 355.131 {
    331.279 55.1308 v
    0 0 z
  EndSpiro
1104 1329.20019531 m 17
 1104 1229.20019531 1104 1129.20019531 1104 1029.20019531 c 1
  Spiro
    1104 1329.2 {
    1104 1029.2 v
    0 0 z
  EndSpiro
1108 1209.19995117 m 0
 1009.20023898 1305.67749836 874.085102177 1366.65298651 736 1368 c 0
 648.768429648 1368.85093975 559.841286544 1344.36450734 491.183583541 1290.54823858 c 0
 456.854732039 1263.64010421 427.974706648 1229.63824769 407.913021908 1190.90781332 c 0
 387.851337168 1152.17737895 376.752401052 1108.81132164 376 1065.19995117 c 0
 375.189032379 1018.19389065 386.418513128 971.171403389 407.335690503 929.067970222 c 0
 428.252867877 886.964537054 458.624071276 849.870689522 494.193842043 819.12953142 c 0
 565.333383576 757.647215217 655.168061449 722.818764877 744 692 c 0
 850.23150832 655.144743536 960.695597001 618.913117155 1044.11893387 543.520875146 c 0
 1085.8306023 505.824754141 1119.73030427 458.872853947 1138.77226052 405.974227078 c 0
 1157.81421676 353.075600208 1161.49246893 294.578513212 1148 240 c 0
 1128.66226632 161.776751255 1073.98979387 94.284660948 1004.46077445 53.559483888 c 0
 934.931755028 12.8343068281 852.53321327 -2.68814963799 772 0 c 0
 611.240277413 5.36606168469 456.187233905 76.1976428988 334.279449463 181.130836487 c 0
  Spiro
    1108 1209.2 {
    736 1368 o
    376 1065.2 o
    744 692 o
    1148 240 o
    772 0 o
    334.279 181.131 o
    0 0 z
  EndSpiro
EndSplineSet
Fore
SplineSet
913 1330 m 0x95
 919 1331 924 1332 930 1332 c 0
 960 1332 984 1318 984 1298 c 2
 984 1198 l 1
 989 1190 989 1180 984 1170 c 1
 984 1013 l 2
 984 990 952 965 913 959 c 0
 907 958 902 958 897 958 c 0
 866 958 843 972 843 992 c 2
 843 1154 l 1x26
 751 1233 632 1279 527 1280 c 0
 526 1280 525 1280 524 1280 c 0
 380 1280 259 1194 256 1047 c 0
 256 1045 256 1044 256 1042 c 0
 256 951 308 880 363 835 c 0
 519 707 752 711 913 573 c 0
 974 521 1037 436 1037 330 c 0
 1037 307 1034 282 1027 257 c 0
 1005 174 943 97 852 46 c 0
 768 -1 675 -20 583 -20 c 0x95
 449 -20 316 21 209 80 c 1
 202 59 174 40 140 35 c 0
 134 34 128 34 123 34 c 0
 92 34 70 47 70 67 c 2
 70 352 l 2
 70 376 102 400 140 406 c 0
 146 407 152 408 157 408 c 0
 188 408 211 393 211 373 c 2
 211 223 l 1x49
 327 131 469 74 601 70 c 0
 606 70 611 70 616 70 c 0
 677 70 731 81 775 106 c 0
 836 140 895 214 895 307 c 0
 895 334 890 362 879 391 c 0
 823 539 665 591 509 642 c 0
 370 688 217 755 149 885 c 0
 126 928 115 975 115 1021 c 0
 115 1069 127 1117 151 1161 c 0
 174 1204 208 1242 251 1274 c 0
 338 1339 446 1368 556 1368 c 0
 658 1368 762 1342 849 1296 c 1
 860 1312 885 1326 913 1330 c 0x95
EndSplineSet
EndChar

StartChar: V
Encoding: 86 86 48
Width: 1520
VWidth: 0
Flags: W
HStem: -19 21G<725.5 744> 1280 89<66.5156 222 374 502.556 1001.52 1143 1280 1437.56>
LayerCount: 2
Back
SplineSet
-3.5 1368 m 21
 96.5 1368 196.5 1368 296.5 1368 c 5
143.5 1368 m 29
 616.5 0 l 29
 1089.5 1368 l 21
931.5 1368 m 21
 1031.5 1368 1131.5 1368 1231.5 1368 c 5
EndSplineSet
Fore
SplineSet
1001 1324 m 0
 1010 1348 1050 1369 1087 1369 c 0
 1187 1369 1287 1369 1387 1369 c 0
 1419 1369 1440 1353 1440 1334 c 0
 1440 1331 1439 1328 1438 1324 c 0
 1429 1300 1389 1280 1352 1280 c 2
 1280 1280 l 1
 823 26 l 2
 818 11 798 -5 774 -13 c 0
 762 -17 750 -19 738 -19 c 0
 713 -19 691 -10 686 6 c 2
 222 1280 l 1
 117 1280 l 2
 85 1280 64 1295 64 1314 c 0
 64 1317 65 1320 66 1324 c 0
 75 1348 115 1369 152 1369 c 2
 452 1369 l 2
 484 1369 505 1353 505 1334 c 0
 505 1331 504 1328 503 1324 c 0
 494 1300 454 1280 417 1280 c 2
 374 1280 l 1
 758 224 l 1
 1143 1280 l 1
 1052 1280 l 2
 1020 1280 999 1295 999 1314 c 0
 999 1317 1000 1320 1001 1324 c 0
EndSplineSet
EndChar

StartChar: N
Encoding: 78 78 49
Width: 1421
VWidth: 0
Flags: W
HStem: -19 89<81.5156 215 356 466.556> 1280 89<72.5156 215 912.516 1055 1196 1347.56>
VStem: 215 141<70 1225> 1055 141<290 1280>
LayerCount: 2
Back
SplineSet
83 1368 m 21
 228 1368 l 6
 285.145507812 1368 356.014648438 1314.08203125 379 1269.20019531 c 6
 1068 0 l 13
 1068 1368 l 29
342 0 m 29
 92 0 l 21
228 0 m 13
 228 1368 l 29
1223 1368 m 21
 1123 1368 1023 1368 923 1368 c 13
EndSplineSet
Fore
SplineSet
1348 1324 m 0
 1339 1300 1300 1280 1263 1280 c 2
 1196 1280 l 1
 1196 36 l 2
 1196 6 1146 -19 1105 -19 c 0
 1085 -19 1067 -13 1058 2 c 2
 369 1207 l 2
 366 1213 361 1219 356 1225 c 1
 356 70 l 1
 416 70 l 2
 448 70 469 54 469 35 c 0
 469 32 468 29 467 25 c 0
 458 1 419 -19 382 -19 c 2
 132 -19 l 2
 100 -19 79 -4 79 15 c 0
 79 18 80 21 81 25 c 0
 90 49 129 70 166 70 c 2
 215 70 l 1
 215 1280 l 1
 123 1280 l 2
 91 1280 70 1295 70 1314 c 0
 70 1317 71 1320 72 1324 c 0
 81 1348 120 1369 157 1369 c 2
 302 1369 l 2
 406 1369 476 1302 503 1253 c 2
 1055 290 l 1
 1055 1280 l 1
 963 1280 l 2
 931 1280 910 1295 910 1314 c 0
 910 1317 911 1320 912 1324 c 0
 921 1348 960 1369 997 1369 c 2
 1297 1369 l 2
 1329 1369 1350 1353 1350 1334 c 0
 1350 1331 1349 1328 1348 1324 c 0
EndSplineSet
EndChar

StartChar: M
Encoding: 77 77 50
Width: 1792
VWidth: 0
Flags: W
HStem: -19 89<75.5156 219 360 510.556 1261.52 1405 1546 1696.56> 1280 89<76.5156 219 1546 1697.56>
VStem: 219 141<70 1252> 1405 141<70 1254>
LayerCount: 2
Back
SplineSet
1599 1368 m 21
 1444 1368 l 6
 1366.98632812 1368 1326.59082031 1351.41894531 1297.60495388 1277.19995117 c 6
 868 177.200195312 l 5
 410.245923316 1289.19995117 l 6
 388.854492188 1341.1640625 344 1368 258 1368 c 5
 258 1368 213 1368 113 1368 c 13
1598 0 m 21
 1498 0 1398 0 1298 0 c 5
1444 0 m 13
 1444 1368 l 29
412 0 m 29
 112 0 l 21
258 0 m 13
 258 1368 l 29
EndSplineSet
Fore
SplineSet
511 25 m 0
 502 1 463 -19 426 -19 c 2
 126 -19 l 2
 94 -19 73 -4 73 15 c 0
 73 18 74 21 75 25 c 0
 84 49 123 70 160 70 c 2
 219 70 l 1
 219 1280 l 1
 127 1280 l 2
 95 1280 74 1295 74 1314 c 0
 74 1317 75 1320 76 1324 c 0
 85 1348 124 1369 161 1369 c 2
 306 1369 l 2
 418 1369 484 1330 510 1270 c 2
 902 366 l 1
 1261 1239 l 2
 1278 1280 1302 1318 1358 1344 c 0
 1405 1366 1452 1369 1492 1369 c 2
 1647 1369 l 2
 1679 1369 1700 1353 1700 1334 c 0
 1700 1331 1699 1328 1698 1324 c 0
 1689 1300 1650 1280 1613 1280 c 2
 1546 1280 l 1
 1546 70 l 1
 1646 70 l 2
 1678 70 1699 54 1699 35 c 0
 1699 32 1698 29 1697 25 c 0
 1688 1 1649 -19 1612 -19 c 2
 1312 -19 l 2
 1280 -19 1259 -4 1259 15 c 0
 1259 18 1260 21 1261 25 c 0
 1270 49 1309 70 1346 70 c 2
 1405 70 l 1
 1405 1254 l 1
 1402 1249 1400 1243 1397 1237 c 2
 967 193 l 2
 958 171 913 148 877 148 c 0
 857 148 839 155 831 173 c 2
 373 1228 l 2
 369 1237 365 1246 360 1252 c 1
 360 70 l 1
 460 70 l 2
 492 70 513 54 513 35 c 0
 513 32 512 29 511 25 c 0
EndSplineSet
EndChar

StartChar: dieresis
Encoding: 168 168 51
AltUni2: 000308.ffffffff.0
Width: 470
VWidth: 0
Flags: W
HStem: 1285 96<238.085 293.915 498.085 553.915>
VStem: 238 56<1285.02 1380.98> 498 56<1285.02 1380.98>
LayerCount: 2
Fore
SplineSet
498 1333 m 0
 498 1359 511 1381 526 1381 c 0
 541 1381 554 1359 554 1333 c 0
 554 1307 541 1285 526 1285 c 0
 511 1285 498 1307 498 1333 c 0
238 1333 m 0
 238 1359 251 1381 266 1381 c 0
 281 1381 294 1359 294 1333 c 0
 294 1307 281 1285 266 1285 c 0
 251 1285 238 1307 238 1333 c 0
EndSplineSet
EndChar

StartChar: underscore
Encoding: 95 95 53
Width: 823
VWidth: 0
Flags: W
HStem: -185 36<-27.0433 850.043>
LayerCount: 2
Fore
SplineSet
-28 -172 m 0
 -28 -158 -9 -149 6 -149 c 2
 831 -149 l 2
 843 -149 851 -154 851 -162 c 0
 851 -176 832 -185 817 -185 c 2
 -8 -185 l 2
 -20 -185 -28 -180 -28 -172 c 0
EndSplineSet
Validated: 1
EndChar

StartChar: X
Encoding: 88 88 54
Width: 1556
VWidth: 0
Flags: W
HStem: -19 89<82.5156 255 395 518.556 1017.52 1122 1291 1453.56> 1280 89<82.5156 245 414 518.556 1017.52 1141 1281 1453.56>
LayerCount: 2
Back
SplineSet
1231.5 0 m 21
 1131.5 0 1031.5 0 931.5 0 c 5
138.5 0 m 12
 1089.5 1368 l 4
296.5 0 m 21
 196.5 0 96.5 0 -3.5 0 c 5
-3.5 1368 m 21
 96.5 1368 196.5 1368 296.5 1368 c 5
143.5 1368 m 28
 1084.5 0 l 12
931.5 1368 m 21
 1031.5 1368 1131.5 1368 1231.5 1368 c 5
EndSplineSet
Fore
SplineSet
1017 1324 m 0
 1026 1348 1066 1369 1103 1369 c 2
 1403 1369 l 2
 1435 1369 1456 1353 1456 1334 c 0
 1456 1331 1455 1328 1454 1324 c 0
 1445 1300 1405 1280 1368 1280 c 2
 1281 1280 l 1
 845 684 l 1
 1291 70 l 1
 1403 70 l 2
 1435 70 1456 54 1456 35 c 0
 1456 32 1455 29 1454 25 c 0
 1445 1 1405 -19 1368 -19 c 2
 1068 -19 l 2
 1036 -19 1015 -4 1015 15 c 0
 1015 18 1016 21 1017 25 c 0
 1026 49 1066 70 1103 70 c 2
 1122 70 l 1
 760 569 l 1
 395 70 l 1
 468 70 l 2
 500 70 521 54 521 35 c 0
 521 32 520 29 519 25 c 0
 510 1 470 -19 433 -19 c 2
 133 -19 l 2
 101 -19 80 -4 80 15 c 0
 80 18 81 21 82 25 c 0
 91 49 131 70 168 70 c 2
 255 70 l 1
 691 665 l 1
 245 1280 l 1
 133 1280 l 2
 101 1280 80 1295 80 1314 c 0
 80 1317 81 1320 82 1324 c 0
 91 1348 131 1369 168 1369 c 2
 468 1369 l 2
 500 1369 521 1353 521 1334 c 0
 521 1331 520 1328 519 1324 c 0
 510 1300 470 1280 433 1280 c 2
 414 1280 l 1
 776 781 l 1
 1141 1280 l 1
 1068 1280 l 2
 1036 1280 1015 1295 1015 1314 c 0
 1015 1317 1016 1320 1017 1324 c 0
EndSplineSet
EndChar

StartChar: Y
Encoding: 89 89 55
Width: 1527
VWidth: 0
Flags: W
HStem: -19 89<534.516 682 823 969.556> 1280 89<69.5156 233 402 504.556 1005.52 1127 1268 1440.56>
VStem: 682 141<70 665>
LayerCount: 2
Back
SplineSet
611 0 m 4
 611 694 l 5
 1090 1368 l 4
761 0 m 21
 661 0 561 0 461 0 c 5
-4 1368 m 21
 96 1368 196 1368 296 1368 c 5
144 1368 m 20
 611 694 l 5
932 1368 m 21
 1032 1368 1132 1368 1232 1368 c 5
EndSplineSet
Fore
SplineSet
1005 1324 m 0
 1014 1348 1053 1369 1090 1369 c 2
 1390 1369 l 2
 1422 1369 1443 1353 1443 1334 c 0
 1443 1331 1442 1328 1441 1324 c 0
 1432 1300 1393 1280 1356 1280 c 2
 1268 1280 l 1
 823 685 l 1
 823 70 l 1
 919 70 l 2
 951 70 972 54 972 35 c 0
 972 32 971 29 970 25 c 0
 961 1 922 -19 885 -19 c 2
 585 -19 l 2
 553 -19 532 -4 532 15 c 0
 532 18 533 21 534 25 c 0
 543 49 582 70 619 70 c 2
 682 70 l 1
 682 665 l 1
 233 1280 l 1
 120 1280 l 2
 88 1280 67 1295 67 1314 c 0
 67 1317 68 1320 69 1324 c 0
 78 1348 117 1369 154 1369 c 2
 454 1369 l 2
 486 1369 507 1353 507 1334 c 0
 507 1331 506 1328 505 1324 c 0
 496 1300 457 1280 420 1280 c 2
 402 1280 l 1
 760 789 l 1
 1127 1280 l 1
 1056 1280 l 2
 1024 1280 1003 1295 1003 1314 c 0
 1003 1317 1004 1320 1005 1324 c 0
EndSplineSet
EndChar

StartChar: Z
Encoding: 90 90 56
Width: 1215
VWidth: 0
Flags: W
HStem: -19 89<255 913> 1280 89<227 916>
VStem: 86 141<1161.59 1280>
LayerCount: 2
Back
SplineSet
82 1234 m 25
 82 1368 l 17
 368.333007812 1368 654.666992188 1368 941 1368 c 9
 82 0 l 29
 872 0 l 21
 1046 214 l 13
EndSplineSet
Fore
SplineSet
156 1154 m 0
 150 1153 145 1153 139 1153 c 0
 109 1153 86 1166 86 1186 c 2
 86 1313 l 2
 86 1343 137 1369 173 1369 c 2
 1032 1369 l 2
 1066 1369 1084 1351 1084 1333 c 0
 1084 1327 1083 1321 1079 1316 c 2
 255 70 l 1
 913 70 l 1
 1060 242 l 2
 1076 261 1108 273 1137 273 c 0
 1144 273 1150 272 1156 271 c 0
 1178 266 1190 254 1190 239 c 0
 1190 232 1187 224 1180 216 c 2
 1006 12 l 2
 991 -5 959 -19 929 -19 c 2
 139 -19 l 2
 116 -19 86 -6 86 16 c 0
 86 21 88 27 92 33 c 2
 916 1280 l 1
 227 1280 l 1
 227 1208 l 2
 227 1184 194 1160 156 1154 c 0
EndSplineSet
EndChar

StartChar: period
Encoding: 46 46 57
Width: 406
VWidth: 0
Flags: W
HStem: -61.6494 189.699<129.076 286.833>
VStem: 109.46 190.798<-45.5975 107.727>
LayerCount: 2
Back
SplineSet
179.954101562 33.2001953125 m 0
 179.954101562 59.6962890625 192.498046875 81.2001953125 207.954101562 81.2001953125 c 0
 223.41015625 81.2001953125 235.954101562 59.6962890625 235.954101562 33.2001953125 c 0
 235.954101562 6.7041015625 223.41015625 -14.7998046875 207.954101562 -14.7998046875 c 0
 192.498046875 -14.7998046875 179.954101562 6.7041015625 179.954101562 33.2001953125 c 0
EndSplineSet
Fore
SplineSet
109.459960938 21.837890625 m 0
 109.459960938 34.275390625 111.375 46.283203125 115.650390625 58.1708984375 c 0
 118.732421875 66.7412109375 139.55078125 128.046875 225.052734375 128.049804688 c 0
 311.688752785 128.04785138 306.458910427 67.6748046875 306.448242188 44.5625 c 0
 306.448242188 32.1240234375 304.532226562 20.1171875 300.2578125 8.2294921875 c 0
 297.176757812 -0.3388671875 276.356445312 -61.6474609375 190.858398438 -61.6494140625 c 0
 104.227539062 -61.6494140625 109.459960938 -1.2734375 109.459960938 21.837890625 c 0
EndSplineSet
EndChar

StartChar: comma
Encoding: 44 44 58
Width: 406
VWidth: 0
Flags: WO
HStem: -178 277<158.464 178.667>
VStem: 151 110<-78.1382 96.3089>
LayerCount: 2
Fore
SplineSet
151 16 m 0
 151 28 154 41 158 53 c 0
 161 62 170 99 214 99 c 0
 260.08 99 261 50.1552 261 26.783424 c 0
 261 25.8096 261 24.88 261 24 c 0
 261 18 259 13 257 7 c 0
 245 -27 176 -178 117 -178 c 0
 103 -178 98 -167 98 -150 c 0
 98 -97 151 14 151 16 c 0
EndSplineSet
EndChar

StartChar: colon
Encoding: 58 58 59
Width: 432
VWidth: 0
Flags: W
HStem: 67 132<186.85 289.204> 633 132<186.85 289.204>
VStem: 183 110<69.523 196.995 635.523 762.995>
LayerCount: 2
Back
SplineSet
209.954101562 133.200195312 m 0
 209.954101562 159.696289062 222.498046875 181.200195312 237.954101562 181.200195312 c 0
 253.41015625 181.200195312 265.954101562 159.696289062 265.954101562 133.200195312 c 0
 265.954101562 106.704101562 253.41015625 85.2001953125 237.954101562 85.2001953125 c 0
 222.498046875 85.2001953125 209.954101562 106.704101562 209.954101562 133.200195312 c 0
209.954101562 699.200195312 m 0
 209.954101562 725.696289062 222.498046875 747.200195312 237.954101562 747.200195312 c 0
 253.41015625 747.200195312 265.954101562 725.696289062 265.954101562 699.200195312 c 0
 265.954101562 672.704101562 253.41015625 651.200195312 237.954101562 651.200195312 c 0
 222.498046875 651.200195312 209.954101562 672.704101562 209.954101562 699.200195312 c 0
EndSplineSet
Fore
SplineSet
183 695 m 0
 183 705 185 715 188 724 c 0
 192 736 205 765 244 765 c 0
 287 765 293 729 293 704 c 0
 293 694 291 683 288 674 c 0
 284 662 270 633 231 633 c 0
 188 633 183 670 183 695 c 0
183 129 m 0
 183 139 185 149 188 158 c 0
 192 170 205 199 244 199 c 0
 287 199 293 163 293 138 c 0
 293 128 291 117 288 108 c 0
 284 96 270 67 231 67 c 0
 188 67 183 104 183 129 c 0
EndSplineSet
EndChar

StartChar: semicolon
Encoding: 59 59 60
Width: 394
VWidth: 0
Flags: W
HStem: 633 132<156.85 259.204>
VStem: 153 110<25.6024 196.856 635.523 762.995>
LayerCount: 2
Back
SplineSet
179.954101562 699.200195312 m 0
 179.954101562 725.696289062 192.498046875 747.200195312 207.954101562 747.200195312 c 0
 223.41015625 747.200195312 235.954101562 725.696289062 235.954101562 699.200195312 c 0
 235.954101562 672.704101562 223.41015625 651.200195312 207.954101562 651.200195312 c 0
 192.498046875 651.200195312 179.954101562 672.704101562 179.954101562 699.200195312 c 0
178 120 m 0
 178 146.49609375 192.498046875 181.200195312 207.954101562 181.200195312 c 0
 223.41015625 181.200195312 234 146.49609375 234 120 c 0
 234 93.50390625 139.456054688 -60 124 -60 c 0
 108.543945312 -60 178 93.50390625 178 120 c 0
EndSplineSet
Fore
SplineSet
151 116 m 0
 151 128 154 141 158 153 c 0
 161 162 170 199 214 199 c 0
 260.08 199 261 150.1552 261 126.783424 c 0
 261 125.8096 261 124.88 261 124 c 0
 261 118 259 113 257 107 c 0
 245 73 176 -78 117 -78 c 0
 103 -78 98 -67 98 -50 c 0
 98 3 151 114 151 116 c 0
153 695 m 0
 153 705 155 715 158 724 c 0
 162 736 175 765 214 765 c 0
 257 765 263 729 263 704 c 0
 263 694 261 683 258 674 c 0
 254 662 240 633 201 633 c 0
 158 633 153 670 153 695 c 0
EndSplineSet
EndChar

StartChar: three
Encoding: 51 51 61
Width: 1024
VWidth: 0
Flags: W
HStem: -20 89<345.399 660.689> 690 88<449.38 629.983> 1280 89<285.976 648.658>
VStem: 806 141<215.332 519.568 925.462 1141.2>
LayerCount: 2
Back
SplineSet
234 1159.20019531 m 4
 284.876199522 1291.19593097 427.867712427 1368.49331344 590.729488176 1368.49331344 c 4
 777.796335124 1368.49331344 978.440027016 1268.92848583 978.440027016 1070.18832757 c 4
 978.440027016 879.888568006 801.048334225 769.829479793 632 747.200195312 c 5
 826.414499903 734.151611656 991.014762225 574.510714013 991.014762225 367.053508409 c 4
 991.014762225 162.885078935 818.729262904 -0.70614196286 615.180307639 -0.70614196286 c 4
 448.10766987 -0.70614196286 306.038876913 99.2482836634 219 199.200195312 c 4
  Spiro
    234 1159.2 {
    310.939 1271.91 o
    568 1368 o
    978 1046 o
    810.439 807.659 o
    632 747.2 v
    988 414 o
    592 0 o
    330.033 98.3108 o
    219 199.2 v
    0 0 z
  EndSpiro
EndSplineSet
Fore
SplineSet
517 69 m 0
 651 69 806 180 806 363 c 0
 806 549 645 680 493 690 c 0
 467 692 447 704 447 723 c 0
 447 748 481 773 520 778 c 0
 643 794 782 865 792 1014 c 0
 792 1019 793 1025 793 1031 c 0
 793 1200 613 1280 459 1280 c 0
 335 1280 230 1230 187 1125 c 0
 177 1101 138 1081 101 1081 c 0
 70 1081 49 1096 49 1115 c 0
 49 1119 49 1122 51 1126 c 0
 110 1271 291 1369 493 1369 c 0
 713 1369 934 1260 934 1052 c 0
 934 913 835 804 697 742 c 1
 846 679 947 546 947 385 c 0
 947 341 938 298 923 258 c 0
 866 110 697 -20 483 -20 c 0
 279 -20 131 88 41 186 c 0
 36 191 34 197 34 203 c 0
 34 232 83 258 121 258 c 0
 141 258 158 253 167 243 c 0
 251 151 387 69 517 69 c 0
EndSplineSet
EndChar

StartChar: zero
Encoding: 48 48 62
Width: 1171
VWidth: 0
Flags: W
HStem: -19 89<482.179 727.143> 1280 89<456.9 700.39>
VStem: 81 140<412.852 954.95> 967 140<400.551 927.63>
LayerCount: 2
Back
SplineSet
703 0 m 7
 481 0 263 282 263 683 c 7
 263 1084 481 1368 703 1368 c 7
 925 1368 1149 1084 1149 683 c 7
 1149 282 925 0 703 0 c 7
EndSplineSet
Fore
SplineSet
608 70 m 0
 692 70 834 154 914 364 c 0
 947 450 967 551 967 663 c 0
 967 1043 730 1280 574 1280 c 0
 492 1280 354 1197 275 990 c 0
 241 903 221 799 221 685 c 0
 221 305 452 70 608 70 c 0
574 -19 m 0
 286 -19 81 282 81 663 c 0
 81 783 101 894 138 990 c 0
 216 1194 383 1369 608 1369 c 0
 896 1369 1107 1066 1107 685 c 0
 1107 567 1086 458 1050 364 c 0
 970 157 800 -19 574 -19 c 0
EndSplineSet
EndChar

StartChar: one
Encoding: 49 49 63
Width: 581
VWidth: 0
Flags: W
HStem: -19 89<119.18 263 403 555.32> 1348 20G<340 363.5>
VStem: 263 140<70 1217>
LayerCount: 2
Back
SplineSet
-13.6953125 1190.28320312 m 21
 66.8701171875 1249.52246094 147.435546875 1308.76074219 228 1368 c 13
 228 0 l 21
382 0 m 29
 82 0 l 21
EndSplineSet
Fore
SplineSet
557 35 m 0
 557 2 508 -19 470 -19 c 2
 170 -19 l 2
 138 -19 117 -4 117 15 c 0
 117 48 166 70 204 70 c 2
 263 70 l 1
 263 1217 l 1
 138 1130 l 2
 120 1118 97 1111 75 1111 c 0
 49 1111 21 1122 21 1145 c 0
 21 1157 29 1169 44 1180 c 2
 286 1349 l 2
 304 1362 329 1368 351 1368 c 0
 376 1368 403 1357 403 1335 c 2
 403 70 l 1
 504 70 l 2
 536 70 557 54 557 35 c 0
EndSplineSet
EndChar

StartChar: four
Encoding: 52 52 64
Width: 1132
VWidth: 0
Flags: W
HStem: -19 89<557.18 701 841 993.32> 414 89<236 701 841 1093.32> 1348 20G<770.5 803>
VStem: 701 140<70 414 503 1133>
LayerCount: 2
Back
SplineSet
778 0 m 13
 778 1368 l 21
 140 457.200195312 l 13
 1032 456.200195312 l 29
932 0 m 29
 632 0 l 21
EndSplineSet
Fore
SplineSet
701 503 m 1
 701 1133 l 1
 236 504 l 1
 701 503 l 1
995 35 m 0
 995 2 946 -19 908 -19 c 2
 608 -19 l 2
 576 -19 555 -4 555 15 c 0
 555 48 604 70 642 70 c 2
 701 70 l 1
 701 414 l 1
 116 415 l 2
 90 415 63 429 63 450 c 0
 63 456 65 462 70 469 c 2
 708 1334 l 2
 721 1352 753 1368 788 1368 c 0
 818 1368 841 1355 841 1335 c 2
 841 503 l 1
 1042 503 l 2
 1074 503 1095 487 1095 468 c 0
 1095 435 1046 414 1008 414 c 2
 841 414 l 1
 841 70 l 1
 942 70 l 2
 974 70 995 54 995 35 c 0
EndSplineSet
EndChar

StartChar: two
Encoding: 50 50 65
Width: 1174
VWidth: 0
Flags: W
HStem: -19 89<213 862> 1280 89<324.058 683.439>
VStem: 867 141<790.774 1105.43>
LayerCount: 2
Back
SplineSet
1046 214 m 5
 872 0 l 5
 82 0 l 5
 168.086458109 114.999577933 267.38759822 219.79742347 374.840778829 315.136791895 c 4
 482.293959437 410.47616032 599.134763184 495.021280793 704 593.200012207 c 4
 801.707661623 684.677555755 914.79728698 810.53291494 914.79728698 987.42069286 c 4
 914.79728698 1208.50811744 721.183968752 1368.0023275 502.494476863 1368.0023275 c 4
 339.782050388 1368.0023275 180.414122552 1286.46883763 79 1159.20019531 c 4
  Spiro
    1046 214 {
    872 0 v
    82 0 v
    704 593.2 o
    914 963.724 o
    504 1368 o
    79 1159.2 v
    0 0 z
  EndSpiro
EndSplineSet
Fore
SplineSet
1086 273 m 0
 1115 273 1139 259 1139 239 c 0
 1139 232 1136 224 1129 216 c 2
 955 12 l 2
 939 -7 906 -19 878 -19 c 2
 88 -19 l 2
 53 -19 36 -2 36 16 c 0
 36 23 38 30 43 37 c 0
 132 150 234 252 345 345 c 0
 456 439 573 519 673 608 c 0
 766 691 867 797 867 952 c 0
 867 1149 681 1280 508 1280 c 0
 383 1280 254 1221 163 1113 c 0
 147 1094 115 1081 85 1081 c 0
 56 1081 32 1095 32 1115 c 0
 32 1122 35 1130 41 1138 c 0
 153 1271 342 1369 543 1369 c 0
 807 1369 1008 1197 1008 974 c 0
 1008 793 883 660 781 569 c 0
 672 472 555 391 451 304 c 0
 365 232 286 155 213 70 c 1
 862 70 l 1
 1009 242 l 2
 1025 261 1057 273 1086 273 c 0
EndSplineSet
EndChar

StartChar: five
Encoding: 53 53 66
Width: 1030
VWidth: 0
Flags: W
HStem: -19 89<355.709 652.7> 849 89<316.779 625.871> 1153 216<789 926.668> 1280 89<230 789>
VStem: 69 140<194.409 277.497> 90 140<860 1280> 789 140<1161.47 1280> 824 140<264.483 630.13>
LayerCount: 2
Back
SplineSet
216 229 m 5
 273 77 450 0 584 0 c 4
 775 0 970 187 970 454 c 4
 970 721 775 914 584 914 c 5
 452 914 294 869 236 697 c 13
 236 1368 l 21
 522 1368 649 1368 935 1368 c 13
 935 1234 l 29
EndSplineSet
Fore
SplineSet
69 232 m 0xd9
 69 259 115 287 157 287 c 0
 182 287 203 278 209 263 c 0xd9
 261 132 424 70 525 70 c 0
 535 70 546 70 556 72 c 0
 662 88 824 218 824 446 c 0
 824 693 625 849 491 849 c 0
 489 849 487 849 485 849 c 0
 384 848 278 825 229 688 c 0
 220 663 181 643 144 643 c 0
 110 643 90 660 90 676 c 2
 90 1313 l 2
 90 1343 141 1369 177 1369 c 2xd5
 876 1369 l 2
 908 1369 929 1353 929 1335 c 2
 929 1208 l 2
 929 1182 888 1153 842 1153 c 0xe6
 811 1153 789 1166 789 1186 c 2
 789 1280 l 1
 230 1280 l 1
 230 860 l 1xd6
 323 920 435 938 525 938 c 0
 773 938 964 727 964 467 c 0
 964 230 798 23 555 -14 c 0
 533 -17 512 -19 491 -19 c 0
 324 -19 133 66 71 223 c 0
 70 226 69 229 69 232 c 0xd9
EndSplineSet
EndChar

StartChar: six
Encoding: 54 54 67
Width: 1057
VWidth: 0
Flags: W
HStem: -19 89<426.55 691.529> 849 89<400.067 662.847> 1280 89<528.245 822.32>
VStem: 93 142<274.49 663.493> 859 141<264.358 629.912>
LayerCount: 2
Back
SplineSet
835 1368 m 4
 320 1368 237 914 245.259765625 454.200195312 c 4
625.419921875 0 m 4
 434.051757812 0 245.259765625 187.583984375 245.259765625 454.200195312 c 4
 245.259765625 720.81640625 433.916992188 914 625.28515625 914 c 5
 816.65234375 914 1010.98046875 720.81640625 1010.98046875 454.200195312 c 4
 1010.98046875 187.583984375 816.788085938 0 625.419921875 0 c 4
EndSplineSet
Fore
SplineSet
824 1334 m 0
 824 1301 775 1280 737 1280 c 0
 436 1280 308 1098 258 818 c 1
 338 890 442 938 561 938 c 0
 809 938 1000 727 1000 467 c 0
 1000 404 989 344 968 290 c 0
 903 122 733 -19 527 -19 c 0
 280 -19 94 185 94 445 c 0
 94 465 93 486 93 507 c 0
 93 875 162 1283 631 1358 c 0
 676 1365 722 1369 771 1369 c 0
 803 1369 824 1353 824 1334 c 0
562 70 m 0
 647 70 772 136 831 290 c 0
 849 336 859 389 859 446 c 0
 859 692 662 849 527 849 c 0
 445 849 323 783 264 629 c 0
 246 581 235 527 235 468 c 2
 235 467 l 2
 235 221 427 70 562 70 c 0
EndSplineSet
EndChar

StartChar: seven
Encoding: 55 55 68
Width: 1083
VWidth: 0
Flags: W
HStem: -19 21G<246.5 279.5> 662 89<223.18 546 730 1031.32> 1280 89<175 872>
VStem: 35 140<1161.47 1280>
LayerCount: 2
Back
SplineSet
268 717.200195312 m 13
 940 717.200195312 l 29
82 1234 m 29
 82 1368 l 21
 368.333007812 1368 654.666992188 1368 941 1368 c 13
 256 0 l 29
EndSplineSet
Fore
SplineSet
175 1208 m 2
 175 1181 133 1153 88 1153 c 0
 58 1153 35 1166 35 1186 c 2
 35 1313 l 2
 35 1343 86 1369 122 1369 c 2
 981 1369 l 2
 1016 1369 1034 1351 1034 1333 c 0
 1034 1329 1033 1324 1031 1320 c 2
 730 751 l 1
 980 751 l 2
 1012 751 1033 735 1033 716 c 0
 1033 683 984 662 946 662 c 2
 683 662 l 1
 346 21 l 2
 334 -2 297 -19 262 -19 c 0
 231 -19 208 -4 208 16 c 0
 208 21 209 25 212 30 c 2
 546 662 l 1
 274 662 l 2
 242 662 221 677 221 696 c 0
 221 729 270 751 308 751 c 2
 593 751 l 1
 872 1280 l 1
 175 1280 l 1
 175 1208 l 2
EndSplineSet
EndChar

StartChar: eight
Encoding: 56 56 69
Width: 1100
VWidth: 0
Flags: W
HStem: -19 88<396.778 751.409> 1281 88<361.252 720.321>
VStem: 73 141<234.293 515.221> 125 141<933.655 1185.38> 848 141<912.808 1165.23> 901 141<219.032 494.987>
LayerCount: 2
Back
SplineSet
593.7578125 750.221679688 m 4
 429.194335938 782.448242188 225.826171875 893.215820312 225.826171875 1070.6953125 c 4
 225.826171875 1269.43554688 396.469726562 1369 583.537109375 1369 c 4
 770.603515625 1369 948.440429688 1268.92871094 948.440429688 1070.18847656 c 4
 948.440429688 893.15625 756.401367188 782.627929688 593.758789062 750.2265625 c 4
 402.452148438 732.0625 173.251953125 571.060546875 173.251953125 367.560546875 c 4
 173.251953125 146.165039062 364.431908782 1.55986412033 585.536956787 -0.438255852069 c 4
 808.74690358 -2.45539773439 1001.01464844 146.340820312 1001.01464844 367.053710938 c 4
 1001.01464844 566.286132812 780.641601562 726.686523438 593.7578125 750.221679688 c 4
EndSplineSet
Fore
SplineSet
1042 385 m 0xc4
 1042 165 831 -19 538 -19 c 1
 275 -17 73 140 73 364 c 0xe4
 73 524 215 665 388 736 c 1
 252 791 125 889 125 1031 c 0
 125 1069 131 1105 144 1138 c 0
 200 1285 385 1369 571 1369 c 0
 794 1369 989 1257 989 1052 c 0xd8
 989 915 871 808 732 746 c 1
 895 683 1042 549 1042 385 c 0xc4
536 1281 m 0
 392 1281 266 1214 266 1053 c 0
 266 912 434 816 580 784 c 1
 709 816 848 893 848 1031 c 0xd8
 848 1203 687 1281 536 1281 c 0
537 691 m 0
 391 670 214 546 214 385 c 0
 214 189 395 71 574 69 c 0
 596 69 617 71 637 74 c 0
 769 94 901 191 901 363 c 0xe4
 901 530 702 668 546 692 c 0
 543 692 540 691 537 691 c 0
EndSplineSet
EndChar

StartChar: nine
Encoding: 57 57 70
Width: 1022
VWidth: 0
Flags: W
HStem: -19 89<228.18 522.738> 412 89<387.153 649.933> 1280 89<358.756 623.834>
VStem: 50 141<719.649 1084.65> 815 142<686.507 1075.51>
LayerCount: 2
Back
SplineSet
421.240234375 0 m 4
 936.240234375 0 1019.24023438 454 1010.98046875 913.799804688 c 4
630.8203125 1368 m 4
 822.188476562 1368 1010.98046875 1180.41601562 1010.98046875 913.799804688 c 4
 1010.98046875 647.18359375 822.323242188 454 630.955078125 454 c 5
 439.587890625 454 245.259765625 647.18359375 245.259765625 913.799804688 c 4
 245.259765625 1180.41601562 439.452148438 1368 630.8203125 1368 c 4
EndSplineSet
Fore
SplineSet
226 15 m 0
 226 48 275 70 313 70 c 0
 614 70 742 251 792 531 c 1
 712 459 608 412 489 412 c 0
 241 412 50 622 50 882 c 0
 50 945 61 1005 82 1059 c 0
 147 1227 317 1369 523 1369 c 0
 770 1369 956 1164 956 904 c 0
 956 883 957 862 957 841 c 0
 957 473 889 67 420 -8 c 0
 375 -15 328 -19 279 -19 c 0
 247 -19 226 -4 226 15 c 0
489 1280 m 0
 404 1280 278 1213 219 1059 c 0
 201 1013 191 961 191 904 c 0
 191 658 388 501 523 501 c 0
 605 501 727 567 786 721 c 0
 804 769 815 823 815 882 c 2
 815 883 l 2
 815 1129 624 1280 489 1280 c 0
EndSplineSet
EndChar

StartChar: dollar
Encoding: 36 36 71
Width: 991
VWidth: 0
Flags: W
HStem: -19 89<547 616> 33.6736 373.649<83.3854 219.163> 957.732 373.654<860.627 991.677> 1279 90<547 616>
VStem: 81 141<190.797 398.919> 125.942 139.995<902.968 1178.08> 406 141<-155.999 -18 115 633 811 1254 1368 1528.51> 616 141<-155.999 -19 93 544 720 1220 1367 1528.51> 854 140<966.007 1187.93> 905.265 141.743<177.458 447.478>
LayerCount: 2
Back
SplineSet
686.671875 1545.40039062 m 29
 686.671875 -152.599609375 l 29
476.671875 1545.40039062 m 29
 476.671875 -152.599609375 l 29
151.279296875 355.130859375 m 21
 151.279296875 255.130859375 151.279296875 155.130859375 151.279296875 55.130859375 c 5
  Spiro
    151.279 355.131 {
    151.279 55.1308 v
    0 0 z
  EndSpiro
924 1329.20019531 m 21
 924 1229.20019531 924 1129.20019531 924 1029.20019531 c 5
  Spiro
    924 1329.2 {
    924 1029.2 v
    0 0 z
  EndSpiro
928 1209.20019531 m 4
 829.200195312 1305.67773438 694.084960938 1366.65332031 556 1368 c 4
 468.768554688 1368.85058594 379.840820312 1344.36425781 311.18359375 1290.54785156 c 4
 276.854492188 1263.63964844 247.974609375 1229.63867188 227.913085938 1190.90820312 c 4
 207.8515625 1152.17773438 196.751953125 1108.81152344 196 1065.20019531 c 4
 195.189453125 1018.19433594 206.418945312 971.171875 227.3359375 929.068359375 c 4
 248.252929688 886.96484375 278.624023438 849.87109375 314.193359375 819.129882812 c 4
 385.333007812 757.647460938 475.16796875 722.818359375 564 692 c 4
 670.231445312 655.14453125 780.6953125 618.913085938 864.119140625 543.520507812 c 4
 905.831054688 505.825195312 939.73046875 458.873046875 958.772460938 405.974609375 c 4
 977.814453125 353.075195312 981.4921875 294.578125 968 240 c 4
 948.662109375 161.776367188 893.990234375 94.2841796875 824.4609375 53.5595703125 c 4
 754.931640625 12.833984375 672.533203125 -2.6884765625 592 0 c 4
 431.240234375 5.3662109375 276.1875 76.197265625 154.279296875 181.130859375 c 4
  Spiro
    928 1209.2 {
    556 1368 o
    196 1065.2 o
    564 692 o
    968 240 o
    592 0 o
    154.279 181.131 o
    0 0 z
  EndSpiro
EndSplineSet
Fore
SplineSet
860 1296 m 1x57
 873.067287632 1315.00696383 905.344353907 1331.38580462 941.256946699 1331.38580462 c 0
 971.210169053 1331.38580462 994 1318.2538134 994 1298 c 2
 994 1198 l 1
 999 1190 999 1180 994 1170 c 1
 994 1013 l 2
 994 986.866493197 953.137432935 957.731762693 907.786687697 957.731762693 c 0
 876.748204326 957.731762693 854 972.297535697 854 992 c 2
 854 1154 l 1x2780
 824 1180 791 1202 757 1220 c 1
 757 670 l 1
 871.299370348 624.280251861 983.636947449 547.188947158 1028 431 c 0
 1040.53075669 398.181351537 1047.00859348 363.226378405 1047.00859348 328.04720665 c 0
 1047.00859348 304.270433016 1044.04945951 280.391243439 1038 257 c 0
 1007.16898991 140.683007406 892.7565461 39.6909584053 757 3 c 1
 757 -109 l 2
 757 -135.160962835 716.106532506 -164.268237307 670.730915931 -164.268237307 c 0
 639.482017368 -164.268237307 616 -149.702464303 616 -130 c 2
 616 -19 l 1
 601 -20 587 -19 572 -19 c 0xa340
 564 -19 555 -19 547 -18 c 1
 547 -109 l 2
 547 -135.160962835 506.106532506 -164.268237307 460.730915931 -164.268237307 c 0
 429.482017368 -164.268237307 406 -149.702464303 406 -130 c 2
 406 5 l 1
 340 22 277 48 220 80 c 1
 211.953823807 55.8614714196 175.561587414 33.6736227855 134.088933463 33.6736227855 c 0
 103.40787452 33.6736227855 81 47.445472745 81 67 c 2
 81 352 l 2
 81 379.204245813 123.064332249 407.323035151 167.583933378 407.323035151 c 0
 198.113662438 407.323035151 222 393.418745425 222 373 c 2
 222 223 l 1x4b40
 278 178 341 141 406 115 c 1
 406 683 l 1
 305.700130775 723.862909684 209.119958437 791.03138386 160 885 c 0
 137.887248192 927.302655633 125.942193393 973.302655633 125.942193393 1020.33396332 c 0
 125.942193393 1197.67966672 265.223602169 1301.68418528 406 1345 c 1
 406 1482 l 2
 406 1509.1054944 449.078951668 1537.32303515 493.523779607 1537.32303515 c 0
 523.837490849 1537.32303515 547 1523.41874542 547 1503 c 2
 547 1368 l 1
 556 1368 565 1369 574 1369 c 0
 588 1369 602 1368 616 1367 c 1
 616 1482 l 2
 616 1509.1054944 659.078951668 1537.32303515 703.523779607 1537.32303515 c 0
 733.837490849 1537.32303515 757 1523.41874542 757 1503 c 2
 757 1339 l 1
 793 1327 828 1313 860 1296 c 1x57
406 1254 m 1
 332.248226577 1221.73359913 265.937207592 1146.50196204 265.937207592 1041.9599483 c 0
 265.937207592 935.200378365 337.140041618 854.819973516 406 811 c 1
 406 1254 l 1
547 1279 m 1x13
 547 744 l 1
 569.46284387 736.138004645 592.758160148 727.747279951 616 720 c 1
 616 1271 l 1
 593 1276 570 1278 547 1279 c 1x13
547 76 m 1
 569 73 590 71 612 70 c 1
 616 70 l 1x83
 616 609 l 1
 594 617 570 625 547 633 c 1
 547 76 l 1
757 93 m 1
 833.41696084 123.566784336 905.265315233 195.728694978 905.265315233 306.899322397 c 0x0340
 905.265315233 423.542690658 832.323606581 496.922745887 757 544 c 1
 757 93 l 1
EndSplineSet
EndChar

StartChar: parenleft
Encoding: 40 40 72
Width: 441
VWidth: 0
Flags: W
VStem: 30 140<368.851 1025.17>
LayerCount: 2
Back
SplineSet
457 -178.799804688 m 4
 356.487304688 -81.0224609375 273.45703125 34.67578125 213 161.200195312 c 4
 132.830078125 328.98046875 100 486.038085938 100 701.200195312 c 28
 100 916.362304688 132.830078125 1073.41992188 213 1241.20019531 c 4
 273.45703125 1367.72460938 356.487304688 1483.421875 457 1581.20019531 c 4
EndSplineSet
Fore
SplineSet
527.045393744 -133.639007042 m 0
 527.045393744 -163.923354971 476.570129672 -188.627678936 439.501211862 -188.627678936 c 0
 421.701367905 -188.627678936 405.635741994 -184.128597678 396 -175 c 0
 292 -79 207 33 145 156 c 0
 63 319 30 473 30 680 c 0
 30 887 63 1042 146 1207 c 0
 209 1331 295 1447 402 1545 c 0
 419.66563146 1561.1934955 448.708980338 1570.8854382 474.77329215 1570.8854382 c 0
 501.94604654 1570.8854382 527.192831912 1558.28885887 527.192831912 1537.15925463 c 0
 527.192831912 1527.66720827 522.231871233 1517.3792153 512 1508 c 0
 418 1421 338 1316 280 1200 c 0
 203 1046 170 904 170 702 c 0
 170 501 203 357 281 201 c 0
 340 84 421 -24 518 -114 c 0
 524.142915168 -119.819603843 527.045393744 -126.5799796 527.045393744 -133.639007042 c 0
EndSplineSet
EndChar

StartChar: parenright
Encoding: 41 41 73
Width: 428
VWidth: 0
Flags: W
VStem: 258 140<369.59 1004.52>
LayerCount: 2
Back
SplineSet
-32 -178.799804688 m 4
 68.5126953125 -81.0224609375 151.54296875 34.67578125 212 161.200195312 c 4
 292.169921875 328.98046875 328 485.795898438 328 701.200195312 c 28
 328 916.604492188 292.169921875 1073.41992188 212 1241.20019531 c 4
 151.54296875 1367.72460938 68.5126953125 1483.421875 -32 1581.20019531 c 4
  Spiro
    -32 -178.8 {
    212 161.2 o
    328 701.2 o
    212 1241.2 o
    -32 1581.2 o
    0 0 z
  EndSpiro
EndSplineSet
Fore
SplineSet
-49.7732921501 -188.8854382 m 0
 -76.94604654 -188.8854382 -102.192831912 -176.288858865 -102.192831912 -155.159254628 c 0
 -102.192831912 -145.667208275 -97.2318712325 -135.379215296 -87 -126 c 0
 110.756653732 57.0300944117 258 317.697993731 258 680 c 0
 258 1045.28481114 107.778325366 1309.71083213 -93 1496 c 0
 -99.1429151677 1501.81960384 -102.045393744 1508.68450981 -102.045393744 1515.88500608 c 0
 -102.045393744 1546.26452105 -53.4146718049 1571.14909731 -16.0079016228 1571.14909731 c 0
 2.38935996341 1571.14909731 19.0931061092 1566.38547842 29 1557 c 0
 241.630069164 1360.72609 398 1087.0997925 398 702 c 0
 398 315.128269037 239.003245871 34.8347485548 23 -163 c 0
 5.33436854001 -179.193495505 -23.7089803375 -188.8854382 -49.7732921501 -188.8854382 c 0
EndSplineSet
EndChar

StartChar: quotedbl
Encoding: 34 34 74
AltUni2: 00030e.ffffffff.0 00030b.ffffffff.0 0002ba.ffffffff.0
Width: 482
VWidth: 0
Flags: W
HStem: 1167 280<114.168 194.129 284.168 364.129>
VStem: 101 110<1169.14 1443.96> 271 110<1169.14 1443.96>
LayerCount: 2
Back
SplineSet
298.045898438 1368 m 0
 298.045898438 1394.49609375 312.543945312 1429.20019531 328 1429.20019531 c 0
 343.456054688 1429.20019531 354.045898438 1394.49609375 354.045898438 1368 c 0
 354.045898438 1341.50390625 343.456054688 1185.20019531 328 1185.20019531 c 0
 312.543945312 1185.20019531 298.045898438 1341.50390625 298.045898438 1368 c 0
128.045898438 1368 m 4
 128.045898438 1394.49609375 142.543945312 1429.20019531 158 1429.20019531 c 4
 173.456054688 1429.20019531 184.045898438 1394.49609375 184.045898438 1368 c 4
 184.045898438 1341.50390625 173.456054688 1185.20019531 158 1185.20019531 c 4
 142.543945312 1185.20019531 128.045898438 1341.50390625 128.045898438 1368 c 4
EndSplineSet
Fore
SplineSet
271 1364 m 2
 271 1376 274 1389 278 1401 c 0
 281 1410 291 1447 335 1447 c 0
 379 1447 381 1402 381 1378 c 0
 381 1376 381 1374 381 1372 c 0
 381 1347 374 1232 360 1194 c 1
 360 1194 360 1167 321 1167 c 0
 275 1167 271 1289 271 1342 c 2
 271 1364 l 2
101 1364 m 2
 101 1376 104 1389 108 1401 c 0
 111 1410 121 1447 165 1447 c 0
 209 1447 211 1402 211 1378 c 0
 211 1376 211 1374 211 1372 c 0
 211 1347 204 1232 190 1194 c 1
 190 1194 190 1167 151 1167 c 0
 105 1167 101 1289 101 1342 c 2
 101 1364 l 2
EndSplineSet
Validated: 1
EndChar

StartChar: quotesingle
Encoding: 39 39 75
AltUni2: 0002c8.ffffffff.0 0002bc.ffffffff.0 0002b9.ffffffff.0
Width: 312
VWidth: 0
Flags: W
HStem: 1167 280<114.168 194.129>
VStem: 101 54<1345.61 1380.74> 157 54<1347.03 1380.31>
LayerCount: 2
Back
SplineSet
128.045898438 1368 m 0
 128.045898438 1394.49609375 142.543945312 1429.20019531 158 1429.20019531 c 0
 173.456054688 1429.20019531 184.045898438 1394.49609375 184.045898438 1368 c 0
 184.045898438 1341.50390625 173.456054688 1185.20019531 158 1185.20019531 c 0
 142.543945312 1185.20019531 128.045898438 1341.50390625 128.045898438 1368 c 0
EndSplineSet
Fore
SplineSet
155 1372 m 0
 155 1367 155 1358 156 1345 c 1
 156 1353 157 1361 157 1364 c 0
 157 1370 157 1374 156 1381 c 1
 156 1378 155 1375 155 1372 c 0
101 1364 m 2
 101 1376 104 1389 108 1401 c 0
 111 1410 121 1447 165 1447 c 0
 209 1447 211 1402 211 1378 c 0
 211 1376 211 1374 211 1372 c 0
 211 1347 204 1232 190 1194 c 1
 190 1194 190 1167 151 1167 c 0
 105 1167 101 1289 101 1342 c 2
 101 1364 l 2
EndSplineSet
Validated: 1
EndChar

StartChar: bracketleft
Encoding: 91 91 76
Width: 424
VWidth: 0
Flags: W
HStem: -190 89<298 449.76> 1479 89<298 451.266>
VStem: 158 293.952<-181.595 -101.376 1486.8 1559.56> 158 140<-101 1479>
LayerCount: 2
Back
SplineSet
383 1578 m 21
 283 1578 328 1578 228 1578 c 13
 228 -180 l 29
 382 -180 l 29
EndSplineSet
Fore
SplineSet
452.951722674 1533.31023009 m 0xe0
 452.951722674 1500.27231672 403.774114819 1479 366 1479 c 2
 298 1479 l 1
 298 -101 l 1xd0
 399 -101 l 2
 430.572997274 -101 451.951722674 -115.563245535 451.951722674 -134.748000139 c 0
 451.951722674 -167.632850645 402.656683264 -190 365 -190 c 2
 211 -190 l 2
 183 -190 158 -176 158 -156 c 2
 158 1513 l 2
 158 1544.28425265 205.008470811 1568 245 1568 c 2
 400 1568 l 2
 431.572997274 1568 452.951722674 1552.70859219 452.951722674 1533.31023009 c 0xe0
EndSplineSet
EndChar

StartChar: bracketright
Encoding: 93 93 77
Width: 424
VWidth: 0
Flags: W
HStem: -190 89<-26.2661 126> 1479 89<-26.76 126>
VStem: -27.9517 293.952<-180.508 -108.801 1479.26 1559.88> 126 140<-101 1479>
LayerCount: 2
Back
SplineSet
41 1578 m 21
 141 1578 96 1578 196 1578 c 13
 196 -180 l 29
 42 -180 l 29
EndSplineSet
Fore
SplineSet
-28.9517226739 1512.74800014 m 0xd0
 -28.9517226739 1545.63285065 20.3433167359 1568 58 1568 c 2
 213 1568 l 2
 245 1568 266 1552 266 1534 c 2
 266 -135 l 2
 266 -165 215 -190 179 -190 c 2
 25 -190 l 2
 -6.57299727427 -190 -27.9517226739 -174.708592188 -27.9517226739 -155.310230089 c 0xe0
 -27.9517226739 -122.272316724 21.2258851812 -101 59 -101 c 2
 126 -101 l 1
 126 1479 l 1
 24 1479 l 2
 -7.57299727427 1479 -28.9517226739 1493.56324554 -28.9517226739 1512.74800014 c 0xd0
EndSplineSet
EndChar

StartChar: bar
Encoding: 124 124 78
AltUni2: 0001c0.ffffffff.0
Width: 456
VWidth: 0
Flags: W
VStem: 158 140<-181.993 1559.92>
LayerCount: 2
Back
SplineSet
228 1578 m 13
 228 -180 l 29
EndSplineSet
Fore
SplineSet
158 1513 m 2
 158 1540.17493842 200.032847261 1568.32303515 244.523779607 1568.32303515 c 0
 274.837490849 1568.32303515 298 1554.41874542 298 1534 c 2
 298 -135 l 2
 298 -161.133506803 257.137432935 -190.268237307 211.786687697 -190.268237307 c 0
 180.748204326 -190.268237307 158 -175.702464303 158 -156 c 2
 158 1513 l 2
EndSplineSet
EndChar

StartChar: ampersand
Encoding: 38 38 79
Width: 1210
VWidth: 0
Flags: W
HStem: -19.0528 89.034<348.391 695.811> 445 89<779.81 945 1070.93 1215.8> 1280 89<454.3 683.039>
VStem: 51 141<215.335 490.333> 207 141<823.438 1161.13> 746 141<962.818 1217.36> 945 138<322.625 445>
LayerCount: 2
Back
SplineSet
1148 489.200195312 m 17
 1048 489.200195312 948 489.200195312 848 489.200195312 c 9
  Spiro
    1148 489.2 {
    848 489.2 v
    0 0 z
  EndSpiro
1022 489.200012207 m 0
 1005.22821424 359.066383021 942.953015858 234.998681664 847.673181734 144.78888479 c 0
 752.636143134 54.808963789 625.188954743 -1.84862612787 492 0 c 0
 385.321478284 1.48066859528 277.737505821 43.8970673092 206.380554805 123.210905425 c 0
 156.157539038 179.034200641 121.009048358 247.931621064 121.009048358 344.077969667 c 0
 121.009048358 546.677600392 310.461914062 617.706054688 432 713.200195312 c 0
 544 801.200195312 680.268681186 852.054782412 762 969.200012207 c 0
 795.057442536 1016.58113561 816.308939175 1071.74113962 816.308939175 1131.44478884 c 0
 816.308939175 1185.69826994 800.669921875 1247.76367188 765.302734375 1288.89453125 c 0
 723.069335938 1338.01074219 664.258789062 1368 588 1368 c 3
 544.212890625 1368 500.416015625 1356.78222656 461.302734375 1336.89453125 c 0
 354.631835938 1282.65527344 277.312394619 1166.04820456 277.312394619 1019.83079386 c 0
 277.312394619 869.56317991 347.168844099 760.921114104 418 669.200012207 c 0
 510.580799142 549.314732857 623.205968999 446.672292196 729.600717754 338.858369106 c 0
 835.995466509 231.044446016 938.114797429 118.866535715 1032 0 c 0
1148 489.200195312 m 17
 1048 489.200195312 948 489.200195312 848 489.200195312 c 9
  Spiro
    1148 489.2 {
    848 489.2 v
    0 0 z
  EndSpiro
EndSplineSet
Fore
SplineSet
430 758 m 1
 544 832 638 873 699 955 c 0
 727 993 746 1039 746 1089 c 0
 746 1135 730 1189 702 1220 c 0
 665 1261 619 1280 571 1280 c 0
 545 1280 520 1274 495 1262 c 0
 424 1228 348 1135 348 1004 c 0
 348 906 384 827 430 758 c 1
192 363 m 0
 192 183.504659655 356.397270111 69.9812402229 513.789497241 69.9812402229 c 0
 612.676477547 69.9812402229 721.043059687 110.043059687 798 187 c 1
 754.304730884 230.695269116 712.716588439 274.315983763 668 317 c 0
 570 411 465 502 374 608 c 1
 274 545 192 490 192 363 c 0
778 479 m 0
 778 512.644474351 826.710651812 534 865 534 c 2
 1165 534 l 2
 1197 534 1218 519 1218 500 c 0
 1218 467.420143418 1168.44724982 445 1131 445 c 2
 1083 445 l 1
 1063 361 1023 281 965 210 c 0
 964 208 963 207 962 205 c 1
 1008 155 1053 105 1096 53 c 0
 1100.22681389 47.9806585053 1102.22038332 42.3332170069 1102.22038332 36.4632793939 c 0
 1102.22038332 7.13484719872 1054.02414772 -18.5249453239 1014.92774543 -18.5249453239 c 0
 994.885785699 -18.5249453239 977.171425596 -12.8910678951 968 -2 c 0
 935 37 901 76 866 114 c 1
 763.833636226 35.4104894048 625.960473468 -19.0528056608 481.769557527 -19.0528056608 c 0
 346.209100242 -19.0528056608 222.291529074 28.625680601 143 113 c 0
 89 170 51 243 51 341 c 0
 51 516 205 611 316 681 c 1
 258 761 207 858 207 983 c 0
 207 1129 286 1258 428 1327 c 0
 481 1353 544 1369 605 1369 c 0
 774.908190368 1369 887 1265.76029312 887 1110 c 0
 887 1047 863 988 825 936 c 0
 733 810 581 752 487 683 c 1
 602.506267767 543.109075705 750.570018524 419.429981476 882 288 c 1
 912 336 933 389 945 445 c 1
 831 445 l 2
 799 445 778 460 778 479 c 0
EndSplineSet
EndChar

StartChar: braceright
Encoding: 125 125 80
Width: 464
VWidth: 0
Flags: W
HStem: -189.47 89.6144<-100.71 54.9806> 1482 89.0343<-100.202 30.1247>
VStem: 135.282 141.401<267.596 622.492 774.016 1129.13> 147.163 144.88<33.1912 566.571 829.395 1333.93>
LayerCount: 2
Back
SplineSet
-32 -178.799804688 m 4
 64.0388183594 -184.225708008 121.54296875 -115.32421875 182 11.2001953125 c 4
 253.827148438 161.51953125 200.0625 413.038085938 206.826171875 595.774414062 c 4
 207.612304688 617.000976562 308 678.783203125 308 701.200195312 c 4
 308 721.211914062 207.690429688 780.717773438 207.065429688 799.774414062 c 4
 200.959960938 985.836914062 254.721679688 1229.00683594 182 1381.20019531 c 4
 121.54296875 1507.72460938 64.0388183594 1579.77429199 -32 1581.20019531 c 4
EndSplineSet
Fore
SplineSet
-102.488666324 -154.828681946 m 0xd0
 -102.488666324 -120.416759839 -50.4622919828 -99.855366389 -14.2779551251 -99.855366389 c 0
 -11.5621617226 -99.855366389 -8.96680341978 -100.064854368 -6.24201949195 -100.064854368 c 0
 15.9813042432 -100.064854368 51.6872723695 -86.666171509 115 39 c 0
 140.084261876 89.1685237516 147.16274297 158.161272866 147.16274297 234.388687068 c 0xd0
 147.16274297 333.1458047 135.281701474 444.046114492 135.281701474 541.887407208 c 0
 135.281701474 555.187343364 135.501239251 568.245975122 136 581 c 0
 138 631 212 666 230 681 c 1
 206 702 139 727 137 773 c 0
 136.639196224 783.944381197 136.477277589 795.055102693 136.477277589 806.301069134 c 0
 136.477277589 904.818986555 148.903345248 1013.71596154 148.903345248 1112.08696262 c 0
 148.903345248 1189.22309972 141.26295918 1259.88715678 114 1314 c 0
 52 1438 -6 1481 -51 1482 c 0
 -81.9565470894 1482.83666343 -102.413008631 1496.97343523 -102.413008631 1515.62527775 c 0
 -102.413008631 1548.75081204 -52.6485843739 1571.03431731 -15.5523268196 1571.03431731 c 0
 133.240649804 1571.03431731 191.022340336 1475.95569798 250 1359 c 0
 282.639083989 1293.72183202 291.814737063 1215.48624697 291.814737063 1134.03824204 c 0
 291.814737063 1029.42594403 276.677675823 919.514121718 276.677675823 824.95127916 c 0
 276.677675823 817.193756595 276.779545898 809.539530285 277 802 c 1
 293 786 378 753 378 702 c 0
 378 648 292 607 277 593 c 1
 276.783317201 585.762794497 276.683073961 578.399759147 276.683073961 570.922451123 c 0xe0
 276.683073961 478.364446848 292.043119822 368.296698072 292.043119822 262.640074264 c 0
 292.043119822 179.874197808 282.617678561 99.8151361393 249 33 c 0
 195.926397289 -72.1822308267 120.504571335 -189.469749244 -37.4690751035 -189.469749244 c 0
 -72.5990717471 -189.469749244 -102.488666324 -179.564851777 -102.488666324 -154.828681946 c 0xd0
EndSplineSet
EndChar

StartChar: braceleft
Encoding: 123 123 81
Width: 464
VWidth: 0
Flags: W
HStem: -189.466 89.3864<425.523 564.993> 1482 89.0343<416.123 564.979>
VStem: 172.185 144.002<41.4453 547.131 806.481 1339.01> 187.322 141.369<245.454 604.286 755.854 1106.9>
LayerCount: 2
Back
SplineSet
496.024414062 -178.799804688 m 4
 399.986328125 -184.225585938 342.481445312 -115.32421875 282.024414062 11.2001953125 c 4
 210.197265625 161.51953125 263.961914062 413.038085938 257.198242188 595.774414062 c 4
 256.412109375 617.000976562 156.024414062 678.783203125 156.024414062 701.200195312 c 4
 156.024414062 721.211914062 256.333984375 780.717773438 256.958984375 799.774414062 c 4
 263.064453125 985.836914062 209.302734375 1229.00683594 282.024414062 1381.20019531 c 4
 342.481445312 1507.72460938 399.986328125 1579.77441406 496.024414062 1581.20019531 c 4
EndSplineSet
Fore
SplineSet
566.835511086 -134.388507591 m 0xe0
 566.835511086 -170.393724935 513.26316977 -189.466492341 467.480394739 -189.466492341 c 0
 327.312754591 -189.466492341 269.733021273 -96.5051283854 214 14 c 0
 181.360916011 78.4412683895 172.185262937 157.76605639 172.185262937 240.470871071 c 0xe0
 172.185262937 346.697422942 187.322324177 458.499999806 187.322324177 551.504051769 c 0
 187.322324177 559.133697962 187.220454102 566.636832997 187 574 c 1
 172 591 86 628 86 680 c 0
 86 733 173 772 187 784 c 1
 187.139029766 789.943522505 187.204366668 795.952281316 187.204366668 802.021279651 c 0
 187.204366668 896.930645534 171.225622474 1006.5721448 171.225622474 1111.83552057 c 0
 171.225622474 1193.49994764 180.842938692 1272.52926161 215 1340 c 0
 270.973488402 1449.94792365 344.870274838 1571.03431731 514.528748325 1571.03431731 c 0
 545.080872293 1571.03431731 566.841359205 1555.87385898 566.841359205 1536.75331267 c 0
 566.841359205 1504.14642451 517.335250732 1483.00906083 480 1482 c 0
 456 1482 414 1463 349 1333 c 0
 322.712888521 1281.24724928 315.320642703 1211.94926615 315.320642703 1135.63857 c 0
 315.320642703 1037.55527558 327.532891917 927.886733421 327.532891917 828.997544498 c 0
 327.532891917 817.507819559 327.368031159 806.163611824 327 795 c 0
 325 746 253 714 234 699 c 1
 258 677 326 650 328 603 c 0
 328.479350386 590.742325832 328.691409401 578.21267097 328.691409401 565.464341061 c 0xd0
 328.691409401 467.572508883 316.187579241 356.786739359 316.187579241 257.242332565 c 0
 316.187579241 180.442416809 323.630284617 110.333742836 350 58 c 0
 411.329039423 -63.6846020299 465.076821952 -100.080064002 503.863169763 -100.080064002 c 0
 506.725081201 -100.080064002 509.632057678 -99.855366389 512.450605652 -99.855366389 c 0
 544.081100223 -99.855366389 566.835511086 -114.730856403 566.835511086 -134.388507591 c 0xe0
EndSplineSet
EndChar

StartChar: slash
Encoding: 47 47 82
Width: 1118
VWidth: 0
Flags: W
LayerCount: 2
Back
SplineSet
1168 1578 m 13
 228 -180 l 29
EndSplineSet
Fore
SplineSet
1047 1568 m 0
 1078 1568 1100 1554 1100 1534 c 0
 1100 1529 1099 1523 1096 1518 c 2
 156 -151 l 2
 143 -173 107 -190 73 -190 c 0
 42 -190 19 -176 19 -156 c 0
 19 -151 21 -145 24 -140 c 2
 964 1529 l 2
 977 1551 1013 1568 1047 1568 c 0
EndSplineSet
EndChar

StartChar: hyphen
Encoding: 45 45 83
Width: 564
VWidth: 0
Flags: W
HStem: 513 36<81.1955 482.804>
VStem: 81 402.954
LayerCount: 2
Back
SplineSet
107 531 m 29
 457 531 l 21
EndSplineSet
Fore
SplineSet
81 531 m 0
 85 541 100 549 114 549 c 2
 464 549 l 2
 475.733224844 549 483.954496493 543.380874888 483.954496493 535.674613506 c 0
 483.954496493 534.185818901 483.647650045 532.619125112 483 531 c 0
 479 521 464 513 450 513 c 2
 100 513 l 2
 88.2667751562 513 80.0455035072 518.619125112 80.0455035072 526.325386494 c 0
 80.0455035072 527.814181099 80.3523499554 529.380874888 81 531 c 0
EndSplineSet
Validated: 1
EndChar

StartChar: plus
Encoding: 43 43 84
Width: 824
VWidth: 0
Flags: W
HStem: 484.15 93.6992<119.801 341.506 482.494 704.428>
VStem: 341.506 140.988<267.866 484.15 577.85 794.116>
LayerCount: 2
Back
SplineSet
412 306 m 29
 412 756 l 21
187 531 m 29
 637 531 l 21
EndSplineSet
Fore
SplineSet
118.611328125 531 m 0
 127.921875 556.514648438 166.737304688 577.849609375 204.096679688 577.849609375 c 2
 341.505859375 577.849609375 l 1
 341.505859375 744.638671875 l 2
 341.505859375 769.391601562 373.491210938 795.244140625 412 801.451171875 c 0
 450.509765625 807.657226562 482.494140625 792.115234375 482.494140625 767.362304688 c 2
 482.494140625 577.849609375 l 1
 654.095703125 577.849609375 l 2
 691.341796875 577.849609375 714.728515625 556.592773438 705.389648438 531 c 0
 696.049804688 505.407226562 657.150390625 484.150390625 619.904296875 484.150390625 c 2
 482.494140625 484.150390625 l 1
 482.494140625 317.361328125 l 2
 482.494140625 292.533203125 450.392578125 266.737304688 412 260.548828125 c 0
 373.607421875 254.361328125 341.505859375 269.809570312 341.505859375 294.637695312 c 2
 341.505859375 484.150390625 l 1
 169.904296875 484.150390625 l 2
 132.544921875 484.150390625 109.299804688 505.485351562 118.611328125 531 c 0
EndSplineSet
EndChar

StartChar: equal
Encoding: 61 61 85
Width: 924
VWidth: 0
Flags: W
HStem: 384.15 93.6992<119.782 804.428> 583.6 93.6992<119.542 803.897>
LayerCount: 2
Back
SplineSet
737 631 m 1
 187 630.44921875 l 1
187 431 m 13
 737 431 l 21
EndSplineSet
Fore
SplineSet
118.5859375 431 m 0
 127.896484375 456.515625 166.736328125 477.849609375 204.095703125 477.849609375 c 2
 754.096679688 477.849609375 l 2
 791.342773438 477.849609375 814.728515625 456.592773438 805.389648438 431 c 0
 796.05078125 405.407226562 757.150390625 384.150390625 719.904296875 384.150390625 c 2
 169.903320312 384.150390625 l 2
 132.543945312 384.150390625 109.274414062 405.485351562 118.5859375 431 c 0
805.389648438 631.068359375 m 0
 796.133789062 605.553710938 757.376953125 584.188476562 720.00390625 584.150390625 c 2
 170.00390625 583.599609375 l 2
 132.744140625 583.5625 109.301757812 604.788085938 118.5859375 630.380859375 c 0
 127.870117188 655.973632812 166.736328125 677.260742188 203.99609375 677.298828125 c 2
 753.99609375 677.849609375 l 2
 791.369140625 677.88671875 814.646484375 656.583984375 805.389648438 631.068359375 c 0
EndSplineSet
EndChar

StartChar: asterisk
Encoding: 42 42 86
Width: 828
VWidth: 0
Flags: W
HStem: 484.15 93.6992<119.801 303.552 520.448 704.428>
VStem: 118.611 586.778
LayerCount: 2
Back
SplineSet
299.5 725.85546875 m 25
 524.5 336.14453125 l 17
299.5 336.14453125 m 25
 524.5 725.85546875 l 17
187 531 m 25
 637 531 l 17
EndSplineSet
Fore
SplineSet
118.611328125 531 m 0
 127.921875 556.514648438 166.737304688 577.849609375 204.096679688 577.849609375 c 2
 303.551974668 577.849609375 l 1
 232.76953125 700.448242188 l 2
 220.35546875 721.950195312 240.432617188 751.379882812 276.774414062 765.216796875 c 0
 313.1171875 779.053710938 353.81640625 772.764648438 366.23046875 751.262695312 c 2
 418.144772812 661.344597066 l 1
 459.28515625 732.6015625 l 2
 473.86328125 757.8515625 515.641601562 775.90234375 551.266601562 772.215820312 c 0
 586.891601562 768.530273438 604.291992188 744.357421875 589.71484375 719.108398438 c 2
 508.158586461 577.849609375 l 1
 654.095703125 577.849609375 l 2
 691.341796875 577.849609375 714.728515625 556.592773438 705.389648438 531 c 0
 696.049804688 505.407226562 657.150390625 484.150390625 619.904296875 484.150390625 c 2
 520.448025332 484.150390625 l 1
 591.23046875 361.551757812 l 2
 603.607421875 340.115234375 583.678710938 310.663085938 547.225585938 296.783203125 c 0
 510.772460938 282.903320312 470.146484375 289.30078125 457.76953125 310.737304688 c 2
 405.855058552 400.65569502 l 1
 364.713867188 329.397460938 l 2
 350.091796875 304.071289062 308.25 286.109375 272.732421875 289.783203125 c 0
 237.215820312 293.458007812 219.663085938 317.565429688 234.28515625 342.891601562 c 2
 315.841263932 484.150390625 l 1
 169.904296875 484.150390625 l 2
 132.544921875 484.150390625 109.299804688 505.485351562 118.611328125 531 c 0
EndSplineSet
EndChar

StartChar: percent
Encoding: 37 37 87
Width: 1436
VWidth: 0
Flags: W
HStem: -86 89<960.887 1120.6> 605 89<937.781 1095.75> 716 89<302.887 462.604> 1407 89<282.84 437.752>
VStem: 54 140<933.817 1298.94> 550 140<915.826 1276.45> 712 140<131.817 495.175> 1208 140<114.314 474.449>
LayerCount: 2
Back
SplineSet
1028 -70.7998046875 m 3
 904 -70.7998046875 782 79.2001953125 782 292.200195312 c 3
 782 505.200195312 904 657.200195312 1028 657.200195312 c 3
 1152 657.200195312 1278 505.200195312 1278 292.200195312 c 3
 1278 79.2001953125 1152 -70.7998046875 1028 -70.7998046875 c 3
1168 1578 m 13
 228 -180 l 29
370 774 m 3
 246 774 124 924 124 1137 c 3
 124 1350 246 1502 370 1502 c 3
 494 1502 620 1350 620 1137 c 3
 620 924 494 774 370 774 c 3
EndSplineSet
Fore
SplineSet
353 716 m 0
 165 716 54 890 54 1094 c 0
 54 1157 64 1214 84 1266 c 0
 127 1379 230 1496 387 1496 c 0
 575 1496 690 1320 690 1116 c 0
 690 1055 679 997 660 947 c 0
 616 832 511 716 353 716 c 0
387 805 m 0
 406 805 480 832 524 947 c 0
 540 989 550 1039 550 1094 c 0
 550 1294 413 1407 353 1407 c 0
 336 1407 265 1379 221 1266 c 0
 204 1223 194 1173 194 1116 c 0
 194 915 327 805 387 805 c 0
1185.01011592 1568.32711557 m 0
 1216.19610171 1568.32711557 1238.62041581 1553.36764291 1238.62041581 1533.78560613 c 0
 1238.62041581 1528.71703358 1237.14047795 1523.38367649 1234 1518 c 2
 294 -151 l 2
 281.026901174 -173.239597987 244.869440537 -190.327115572 210.989884077 -190.327115572 c 0
 179.803898287 -190.327115572 157.379584189 -175.367642914 157.379584189 -155.785606126 c 0
 157.379584189 -150.717033584 158.859522047 -145.38367649 162 -140 c 2
 1102 1529 l 2
 1114.97309883 1551.23959799 1151.13055946 1568.32711557 1185.01011592 1568.32711557 c 0
1011 -86 m 0
 823 -86 712 88 712 292 c 0
 712 355 722 412 742 464 c 0
 785 577 888 694 1045 694 c 0
 1233 694 1348 518 1348 314 c 0
 1348 253 1337 196 1318 146 c 0
 1274 31 1169 -86 1011 -86 c 0
1045 3 m 0
 1064 3 1138 30 1182 145 c 0
 1198 187 1208 237 1208 292 c 0
 1208 492 1071 605 1011 605 c 0
 994 605 923 578 879 465 c 0
 862 422 852 371 852 314 c 0
 852 113 985 3 1045 3 c 0
EndSplineSet
EndChar

StartChar: at
Encoding: 64 64 88
Width: 1688
VWidth: 0
Flags: W
HStem: -363.002 88.353<385.762 841.933> -19 89<336.209 729.886 872.382 988.134> 848 89<345.963 612.292> 1279.21 89.4748<273.224 685.007>
VStem: -293.204 139.974<272.254 780.657> 20.5967 140.014<259.787 633.458> 732 140<101.885 726.053 872 928.071> 1098.52 140.263<228.179 801.658>
LayerCount: 2
Back
SplineSet
920 -283 m 4
 748 -385 509 -390 298 -295 c 4
 137 -223 -5 -95 -96 57 c 4
 -166 174 -207 303 -219 429 c 4
 -231 555 -217 679 -182 793 c 4
 -147 909 -91 1016 -16 1107 c 4
 59 1198 153 1275 265 1321 c 4
 363 1362 475 1379 590 1360 c 4
 705 1341 819 1285 910 1201 c 4
 1021 1099 1091 961 1128 824 c 4
 1165 687 1175 547 1165 413 c 4
 1158 312 1138 212 1087 131 c 4
 1062 90 1028 55 986 31 c 4
 935 2 817 -36 802 69 c 6
 802 913 l 5
802 69 m 5
 714 41 610 0 453 0 c 7
 262 0 81 184 91 451 c 4
 101 718 300 913 491 913 c 15
 661.986328125 913 804 777 798 600 c 13
  Spiro
    802 69 {
    707.399 38.6973 o
    593.578 11.6453 o
    453 0 o
    272.201 57.4812 o
    137.866 215.608 o
    91 451 o
    156.59 689.239 o
    304.804 852.672 o
    491 913 o
    647.781 871.265 o
    759.15 759.676 o
    798 600 v
    0 0 z
  EndSpiro
EndSplineSet
Fore
SplineSet
937.264197028 -198.705882353 m 0
 962.367619745 -198.705882353 990.345168874 -207.93850537 990.345168874 -231.588420755 c 0
 990.345168874 -245.734178549 979.301007854 -261.580683082 959 -273 c 0
 849.798413896 -334.36089124 722.749909358 -363.002432018 594.587567498 -363.002432018 c 0
 476.287447129 -363.002432018 357.038315708 -338.599282477 250 -293 c 0
 -23.432991108 -176.949951448 -256.265026297 80.7386050717 -289 419 c 0
 -291.820215483 447.907208702 -293.204361524 476.759183964 -293.204361524 505.439098134 c 0
 -293.204361524 598.79204709 -278.539353551 690.322011176 -251 776 c 0
 -215 890 -156 997 -76 1090 c 0
 47.2770313904 1231.7685861 247.132359872 1368.68678497 511.975879351 1368.68678497 c 0
 548.608727802 1368.68678497 585.421315144 1365.86375864 622 1360 c 0
 753 1339 875 1281 971 1197 c 0
 1088 1095 1160 959 1198 825 c 0
 1226.6105399 724.863110363 1238.7817953 623.025605089 1238.7817953 523.328710351 c 0
 1238.7817953 371.924765064 1224.74589835 253.265741364 1151 142 c 1
 1105.09167328 70.7629412915 1029.53867608 10.386538652 923 -13 c 0
 904.595633378 -16.9437928475 886.191266757 -18.9520387765 868.459365981 -18.9520387765 c 0
 818.748953756 -18.9520387765 774.323655735 -3.16862145749 750 30 c 1
 672 7 568 -19 436 -19 c 0
 194.686938908 -19 20.5966850356 173.20042064 20.5966850356 423.095682511 c 0
 20.5966850356 493.210334394 32.5231163886 552.683946791 55 610 c 0
 122 785 296 937 508 937 c 0
 596 937 673 913 732 872 c 1
 732 881 l 2
 732 907.442885599 773.383105489 936.326377214 818.911066537 936.326377214 c 0
 849.59212548 936.326377214 872 922.554527255 872 903 c 2
 872 104 l 1
 880 58 898 68 910 71 c 0
 1059.7803619 108.445090474 1098.51919599 313.386368328 1098.51919599 496.512094525 c 0
 1098.51919599 593.398526536 1085.6145902 692.581862333 1058 790 c 0
 1022 916 954 1043 849 1134 c 0
 763 1209 657 1258 558 1273 c 0
 530.510764862 1277.20753599 503.729664089 1279.21198729 477.65669768 1279.21198729 c 0
 410.778707277 1279.21198729 348.559808051 1266.02392322 291 1243 c 0
 100.010622412 1168.26502616 -47.1351938264 985.343219247 -113 780 c 0
 -138.932998244 700.675534782 -153.230695486 615.533419063 -153.230695486 528.123514495 c 0
 -153.230695486 500.932834614 -151.84717709 473.522711872 -149 446 c 0
 -116.679743636 133.570855152 98.6478260496 -110.463072448 346 -216 c 0
 440.552673909 -256.386820514 535.782619212 -274.649442193 624.073947628 -274.649442193 c 0
 721.604697302 -274.649442193 810.668634693 -252.364570135 881 -213 c 0
 897.941176471 -203.470588235 918.525951557 -198.705882353 937.264197028 -198.705882353 c 0
732 571 m 1
 729 575 728 580 728 585 c 0
 728.125616117 588.286955062 728.187676282 591.551555962 728.187676282 594.793297986 c 0
 728.187676282 746.391974543 592.46674164 848 474 848 c 0
 388 848 254 774 191 610 c 0
 171.896644078 560.556019966 160.611133554 506.505256709 160.611133554 443.889066118 c 0
 160.611133554 208.4868691 339.49334186 70 470 70 c 0
 582 70 658 91 732 114 c 1
 732 571 l 1
EndSplineSet
EndChar

StartChar: backslash
Encoding: 92 92 89
Width: 1236
VWidth: 0
Flags: W
LayerCount: 2
Back
SplineSet
92 1578 m 13
 1032 -180 l 29
EndSplineSet
Fore
SplineSet
21.6171601264 1512.56642816 m 0
 21.6171601264 1540.54462565 68.4490160403 1567.84053898 109.905545647 1567.84053898 c 0
 132.310913969 1567.84053898 151.264812506 1560.53657811 159 1547 c 2
 1099 -122 l 2
 1101.29485913 -126.016003483 1102.38283987 -130.251439401 1102.38283987 -134.566428163 c 0
 1102.38283987 -162.54462565 1055.55098396 -189.840538982 1014.09445435 -189.840538982 c 0
 991.689086031 -189.840538982 972.735187494 -182.536578114 965 -169 c 2
 25 1500 l 2
 22.7051408668 1504.01600348 21.6171601264 1508.2514394 21.6171601264 1512.56642816 c 0
EndSplineSet
EndChar

StartChar: exclam
Encoding: 33 33 90
Width: 406
VWidth: 0
Flags: W
HStem: -101.649 189.699<119.076 276.833>
VStem: 99.46 196.988<-81.3273 67.7271> 111.506 196.987<630.783 1343.47>
LayerCount: 2
Back
SplineSet
162.018554688 1156.79980469 m 4
 162.018554688 1183.29589844 196.516601562 1368 211.97265625 1368 c 4
 227.428710938 1368 258.018554688 1183.29589844 258.018554688 1156.79980469 c 4
 258.018554688 1130.30371094 223.428710938 233.290039062 207.97265625 233.290039062 c 4
 192.516601562 233.290039062 162.018554688 1130.30371094 162.018554688 1156.79980469 c 4
EndSplineSet
Fore
SplineSet
99.4599609375 -18.162109375 m 0xc0
 99.4599609375 -5.724609375 101.375 6.283203125 105.650390625 18.1708984375 c 0
 108.732421875 26.7412109375 129.55078125 88.046875 215.052734375 88.0498046875 c 0
 301.680664062 88.0478515625 296.447265625 27.6748046875 296.448242188 4.5625 c 0
 296.448242188 -7.8759765625 294.532226562 -19.8828125 290.2578125 -31.7705078125 c 0
 287.176757812 -40.3388671875 266.356445312 -101.647460938 180.858398438 -101.649414062 c 0
 94.2275390625 -101.649414062 99.4599609375 -41.2734375 99.4599609375 -18.162109375 c 0xc0
111.505859375 1145.63867188 m 3xa0
 111.505859375 1233.44921875 154.231513014 1414.84960938 229.098632812 1414.84960938 c 3
 307.404680029 1414.84960938 308.493164062 1174.15527344 308.493164062 1168.36230469 c 0
 308.494140625 1136.5390625 300.499023438 298.669921875 277.6484375 234.924804688 c 0
 277.6484375 234.924804688 250.910492326 186.150390625 190.90234375 186.150390625 c 3
 103.25423499 186.150390625 111.505859375 1079.96139668 111.505859375 1145.63867188 c 3xa0
EndSplineSet
EndChar

StartChar: question
Encoding: 63 63 91
Width: 933
VWidth: 0
Flags: W
HStem: -101.649 189.699<329.076 486.833> 1280.19 89.0629<206.265 544.007>
VStem: 309.46 196.988<-81.3273 67.7271> 330.688 145.693<205.933 443.185> 709.423 141.553<795.752 1116.96>
LayerCount: 2
Back
SplineSet
405.972381592 227.290328979 m 0
 396.676863387 278.181133553 400.856461521 331.471009761 417.972381592 380.290328979 c 0
 447.591141888 464.771192865 512.222667626 531.47320046 573.972381592 596.290328979 c 0
 637.157740124 662.614417652 699.710920315 731.743746295 738.730074206 814.621848956 c 0
 777.749228098 897.499951617 791.630464349 993.28353221 769.972381592 1082.2902832 c 0
 750.300572588 1163.13417993 701.905449617 1236.51487414 635.850321775 1287.10574083 c 0
 569.795193932 1337.69660752 487.137938603 1365.50884891 403.972381592 1368 c 0
 327.199444057 1370.29966579 250.025379854 1351.42657936 182.470739114 1314.87876253 c 0
 114.916098374 1278.3309457 57.0275490885 1224.13179483 16 1159.20019531 c 0
  Spiro
    405.972 227.29 {
    417.972 380.29 c
    573.972 596.29 o
    769.972 1082.29 o
    403.972 1368 o
    16 1159.2 o
    0 0 z
  EndSpiro
EndSplineSet
Fore
SplineSet
309.459960938 -18.162109375 m 4xe8
 309.459960938 -5.724609375 311.375 6.283203125 315.650390625 18.1708984375 c 4
 318.732421875 26.7412109375 339.55078125 88.046875 425.052734375 88.0498046875 c 4
 511.680664062 88.0478515625 506.447265625 27.6748046875 506.448242188 4.5625 c 4
 506.448242188 -7.8759765625 504.532226562 -19.8828125 500.2578125 -31.7705078125 c 4
 497.176757812 -40.3388671875 476.356445312 -101.647460938 390.858398438 -101.649414062 c 4
 304.227539062 -101.649414062 309.459960938 -41.2734375 309.459960938 -18.162109375 c 4xe8
476.380552018 252.570835127 m 0xd8
 476.380552018 225.694535865 433.183792828 197.000342154 388.835348239 197.000342154 c 0
 333.401117954 197.000342154 330.687561104 232.907846389 330.687561104 282.606324353 c 0
 330.687561104 437.124966251 438.11185784 529.11185784 517 608 c 0
 579 670 637 731 672 802 c 0
 695.796200737 850.272292924 709.422849042 905.016119214 709.422849042 959.631568568 c 0
 709.422849042 1146.05716195 553.455790227 1280.18848819 372.885913386 1280.18848819 c 0
 238.846750129 1280.18848819 138.561789378 1207.46940044 80 1118 c 0
 65.6511159476 1096.47667392 30.3914806754 1081.38742514 -1.97718424174 1081.38742514 c 0
 -32.193897312 1081.38742514 -54.2203833226 1095.62939717 -54.2203833226 1115.3480683 c 0
 -54.2203833226 1121.31955833 -52.2268138903 1127.65977916 -48 1134 c 0
 35.9282978002 1258.06791849 205.9055956 1369.25138896 408.008904968 1369.25138896 c 0
 624.960574592 1369.25138896 796.254189593 1242.9001078 840 1070 c 0
 847.406491751 1040.69605438 850.976166031 1010.76992213 850.976166031 980.789282558 c 0
 850.976166031 794.747242412 727.683477092 671.683477092 631 575 c 0
 569 513 513 457 487 387 c 0
 477.071443155 360.523848412 471.962169204 331.418997064 471.962169204 302.005374399 c 0
 471.962169204 285.472758387 476.380552018 268.985460964 476.380552018 252.570835127 c 0xd8
EndSplineSet
EndChar

StartChar: asciitilde
Encoding: 126 126 92
AltUni2: 000303.ffffffff.0
Width: 932
VWidth: 0
Flags: W
LayerCount: 2
Back
SplineSet
187 521 m 4
 200.69935588 554.168038962 228.984969378 580.888432912 262.71976799 593.125855956 c 4
 296.454566602 605.363279 334.539829146 602.969979954 367.999816895 590 c 4
 406.170408218 575.204064986 437.891322353 547.874412044 469.009506044 521.274179363 c 4
 500.127689735 494.673946682 532.975552292 468.370145801 571.999816895 456 c 4
 602.791026812 446.239617327 636.872204381 445.82412269 667.072289461 457.283552837 c 4
 697.27237454 468.742982984 722.897720538 491.939900343 737 521 c 4
  Spiro
    187 521 {
    368 590 o
    572 456 o
    737 521 v
    0 0 z
  EndSpiro
EndSplineSet
Fore
SplineSet
167.66015625 474.176757812 m 0
 130.740234375 475.016601562 108.645507812 496.96484375 119.2109375 522.543945312 c 0
 136.950195312 565.493164062 176.471679688 609.459960938 241.684570312 633.115234375 c 0
 307.772460938 657.088867188 369.983398438 648.91796875 413.692382812 631.974609375 c 0
 464.107421875 612.432617188 497.571289062 581.68359375 528.530273438 555.220703125 c 0
 559.19921875 529.00390625 589.76953125 506.953125 613.9921875 499.275390625 c 0
 633.151367188 493.202148438 643.326171875 496.2578125 644.466796875 496.690429688 c 0
 646.624023438 497.508789062 660.72265625 505.224609375 670.247070312 524.850585938 c 0
 682.587890625 550.279296875 723.193359375 569.793945312 759.659179688 567.69140625 c 0
 796.125 565.587890625 816.09375 542.578125 803.752929688 517.149414062 c 0
 785.072265625 478.655273438 747.920898438 439.9765625 689.677734375 417.875976562 c 0
 630.419921875 395.390625 572.431640625 399.278320312 530.008789062 412.724609375 c 0
 476.181640625 429.787109375 441.055664062 460.34375 409.489257812 487.328125 c 0
 378.209960938 514.065429688 348.233398438 537.975585938 322.307617188 548.025390625 c 0
 299.096679688 557.022460938 285.135742188 553.637695312 283.754882812 553.13671875 c 0
 281.497070312 552.317382812 264.448242188 542.842773438 254.7890625 519.45703125 c 0
 244.223632812 493.877929688 204.579101562 473.3359375 167.66015625 474.176757812 c 0
EndSplineSet
EndChar

StartChar: asciicircum
Encoding: 94 94 93
AltUni2: 000302.ffffffff.0 0002c6.ffffffff.0 0002c4.ffffffff.0
Width: 963
VWidth: 0
Flags: W
HStem: 1021.63 327.05
LayerCount: 2
Back
SplineSet
192 1064 m 29
 449 1308 l 29
 706 1064 l 29
EndSplineSet
Fore
SplineSet
179.83984375 1021.62597656 m 0
 150.123046875 1032.5078125 145.525390625 1060.83398438 169.907226562 1083.98144531 c 0
 426.908203125 1327.98144531 l 0
 452.563476562 1352.33886719 500.993164062 1362.03710938 530.249023438 1348.67578125 c 0
 534.997070312 1346.50683594 541.01171875 1342 542.438476562 1340.64550781 c 0
 799.4375 1096.64550781 l 0
 818.712890625 1078.34472656 807.169921875 1048.23144531 773.865234375 1030.39746094 c 0
 740.561523438 1012.56445312 696.783203125 1013.05371094 677.5078125 1031.35449219 c 0
 471.603515625 1226.84277344 l 1
 279.037109375 1044.01757812 l 0
 254.65625 1020.87011719 209.557617188 1010.74316406 179.83984375 1021.62597656 c 0
EndSplineSet
EndChar

StartChar: grave
Encoding: 96 96 94
Width: 963
VWidth: 0
Flags: W
LayerCount: 2
Back
SplineSet
560.01171875 1155 m 29
 308.011917114 1319.415802 l 29
EndSplineSet
Fore
SplineSet
651.280273438 1126.43457031 m 0
 621.190429688 1106.2109375 576.166015625 1102.26269531 552.249023438 1117.8671875 c 0
 300.249023438 1282.28222656 l 0
 276.404296875 1297.83984375 281.53515625 1327.69628906 311.715820312 1347.98144531 c 0
 341.897460938 1368.26660156 386.903320312 1372.10644531 410.748046875 1356.54882812 c 0
 662.748046875 1192.13378906 l 0
 686.665039062 1176.52832031 681.370117188 1146.65820312 651.280273438 1126.43457031 c 0
EndSplineSet
EndChar

StartChar: less
Encoding: 60 60 95
Width: 924
VWidth: 0
Flags: W
HStem: 288.578 482.381
LayerCount: 2
Back
SplineSet
737 731 m 9
 187 531 l 29
 737 331 l 21
EndSplineSet
Fore
SplineSet
804.255859375 755.456054688 m 0
 815.7578125 733.694335938 794.860351562 704.400390625 758.119140625 691.041015625 c 2
 333.084960938 536.482421875 l 1
 781.501953125 373.421875 l 2
 811.27734375 362.594726562 815.982421875 334.293945312 791.671875 311.120117188 c 0
 767.361328125 287.9453125 722.2734375 277.750976562 692.498046875 288.578125 c 2
 142.499023438 488.578125 l 2
 136.810546875 490.646484375 126.049804688 497.088867188 121.608398438 503.483398438 c 0
 106.473632812 525.279296875 127.221679688 556.901367188 165.880859375 570.958984375 c 2
 715.880859375 770.958984375 l 2
 752.62109375 784.319335938 792.75390625 777.21875 804.255859375 755.456054688 c 0
EndSplineSet
EndChar

StartChar: greater
Encoding: 62 62 96
Width: 924
VWidth: 0
Flags: W
HStem: 291.041 482.381
LayerCount: 2
Back
SplineSet
219 731 m 9
 769 531 l 29
 219 331 l 21
EndSplineSet
Fore
SplineSet
164.328125 750.880859375 m 0
 188.564453125 773.984375 233.635742188 784.282226562 263.501953125 773.421875 c 2
 813.500976562 573.421875 l 2
 844.927734375 561.994140625 847.978515625 531.265625 820.01171875 507.852539062 c 0
 811.711914062 500.904296875 796.504882812 493.36328125 790.119140625 491.041015625 c 2
 240.120117188 291.041015625 l 2
 203.491210938 277.721679688 163.28125 284.71484375 151.744140625 306.54296875 c 0
 140.20703125 328.372070312 161.251953125 357.639648438 197.880859375 370.958984375 c 2
 622.915039062 525.517578125 l 1
 174.498046875 688.578125 l 2
 144.631835938 699.438476562 140.091796875 727.776367188 164.328125 750.880859375 c 0
EndSplineSet
EndChar

StartChar: dotlessi
Encoding: 305 305 135
Width: 470
VWidth: 0
Flags: W
HStem: -18 36<98.1948 226 280 410.316> 896 36<90.9567 225>
VStem: 226 54<18 896>
LayerCount: 2
Fore
SplineSet
90 909 m 0
 90 923 109 932 123 932 c 2
 258 932 l 2
 270 932 279 925 279 918 c 2
 280 18 l 1
 390 18 l 2
 402 18 411 12 411 4 c 0
 411 -10 391 -18 377 -18 c 2
 117 -18 l 2
 103 -18 94 -10 98 0 c 0
 102 10 116 18 130 18 c 2
 226 18 l 1
 225 896 l 1
 110 896 l 2
 98 896 90 901 90 909 c 0
EndSplineSet
Validated: 1
EndChar

StartChar: onequarter
Encoding: 188 188 136
Width: 2048
VWidth: 0
Flags: WO
HStem: -46.8496 93.6992<968.572 1111.51 1252.49 1403.2> 289.736 93.7529<843.613 1111.51 1252.49 1442.38> 570.351 93.6992<136.572 279.506 420.494 571.199>
VStem: 279.506 140.988<664.05 1412.51> 1111.51 140.987<46.8496 289.516 383.489 726.763>
LayerCount: 2
Back
SplineSet
1182 0 m 13
 1182 908 l 21
 736 337.200195312 l 13
 1375 336.200195312 l 29
1336 0 m 29
 1036 0 l 21
188.103515625 1406.15820312 m 1
 350 1525.20019531 l 9
 350 617.200195312 l 17
504 617.200195312 m 25
 204 617.200195312 l 17
1168 1578 m 9
 228 -180 l 25
EndSplineSet
Fore
SplineSet
1192.8828125 1624.53613281 m 0
 1228.80371094 1621.58789062 1247.54980469 1598.00878906 1233.95703125 1572.58789062 c 2
 293.956054688 -185.412109375 l 2
 280.404296875 -210.756835938 239.147460938 -229.4921875 203.1171875 -226.53515625 c 0
 167.086914062 -223.579101562 148.4921875 -199.931640625 162.04296875 -174.586914062 c 2
 1102.04394531 1583.41210938 l 2
 1115.63671875 1608.83398438 1156.96191406 1627.48339844 1192.8828125 1624.53613281 c 0
572.388671875 617.200195312 m 0
 563.078125 591.684570312 524.263671875 570.350585938 486.903320312 570.350585938 c 2
 186.904296875 570.350585938 l 2
 149.658203125 570.350585938 126.271484375 591.607421875 135.610351562 617.200195312 c 0
 144.950195312 642.79296875 183.849609375 664.049804688 221.095703125 664.049804688 c 2
 279.505859375 664.049804688 l 1
 279.505859375 1412.5078125 l 1
 234.983398438 1379.77050781 l 2
 206.223632812 1358.62304688 160.98828125 1353.07617188 135.45703125 1367.44726562 c 0
 109.92578125 1381.81835938 112.463867188 1411.39941406 141.223632812 1432.54589844 c 2
 303.120117188 1551.58789062 l 2
 333.3828125 1573.83984375 381.672851562 1578.58886719 406.163085938 1561.72167969 c 0
 415.76953125 1555.10449219 420.494140625 1542.26660156 420.494140625 1536.56152344 c 2
 420.494140625 664.049804688 l 1
 521.095703125 664.049804688 l 2
 558.455078125 664.049804688 581.700195312 642.71484375 572.388671875 617.200195312 c 0
1404.38867188 -0 m 0
 1395.078125 -25.5146484375 1356.26367188 -46.849609375 1318.90332031 -46.849609375 c 2
 1018.90429688 -46.849609375 l 2
 981.658203125 -46.849609375 958.271484375 -25.5927734375 967.610351562 0 c 0
 976.950195312 25.5927734375 1015.84960938 46.849609375 1053.09570312 46.849609375 c 2
 1111.50683594 46.849609375 l 1
 1111.50683594 289.736328125 l 1
 718.748046875 290.350585938 l 1
 718.748046875 290.350585938 710.002929688 290.651367188 705.698242188 291.279296875 c 0
 669.112304688 296.612304688 654.690429688 324.15625 674.924804688 350.052734375 c 2
 1120.92480469 920.852539062 l 2
 1132.19628906 935.27734375 1153.38671875 947.52734375 1176.46972656 952.418945312 c 0
 1216.86621094 960.979492188 1252.49414062 945.487304688 1252.49414062 919.361328125 c 2
 1252.49414062 383.268554688 l 1
 1392.25195312 383.049804688 l 2
 1429.4765625 382.991210938 1452.77441406 361.686523438 1443.35058594 336.09375 c 0
 1433.92578125 310.500976562 1394.97265625 289.29296875 1357.74804688 289.3515625 c 2
 1252.49414062 289.515625 l 1
 1252.49414062 46.849609375 l 1
 1353.09570312 46.849609375 l 2
 1390.45507812 46.849609375 1413.70019531 25.5146484375 1404.38867188 -0 c 0
1111.50683594 383.489257812 m 1
 1111.50683594 726.762695312 l 1
 843.61328125 383.908203125 l 1
 1111.50683594 383.489257812 l 1
EndSplineSet
EndChar

StartChar: onehalf
Encoding: 189 189 137
Width: 2048
VWidth: 0
Flags: WO
HStem: -49.8193 93.6992<950.08 1277.23> 570.351 93.6992<136.572 279.506 420.494 571.199> 864.15 93.6992<993.873 1180.16>
VStem: 279.506 140.988<664.05 1412.51> 1265.86 140.988<498.007 774.554>
LayerCount: 2
Back
SplineSet
188.103515625 1406.15820312 m 1
 350 1525.20019531 l 9
 350 617.200195312 l 17
504 617.200195312 m 25
 204 617.200195312 l 17
1421.24707031 135.030273438 m 1
 1311.1953125 -2.9697265625 l 1
 846.763671875 -2.9697265625 l 1
 897.373046875 73.2177734375 955.750976562 142.646484375 1018.92089844 205.80859375 c 0
 1082.09179688 268.970703125 1150.78125 324.981445312 1212.4296875 390.025390625 c 0
 1269.87109375 450.62890625 1336.35546875 534.008789062 1336.35546875 651.196289062 c 0
 1336.35546875 797.666992188 1219.56445312 911 1091 911 c 0
 995.342773438 911 953.620117188 864.315429688 894 780 c 0
1168 1578 m 9
 228 -180 l 25
EndSplineSet
Fore
SplineSet
1192.8828125 1624.53613281 m 0
 1228.80371094 1621.58789062 1247.54980469 1598.00878906 1233.95703125 1572.58789062 c 2
 293.956054688 -185.412109375 l 2
 280.404296875 -210.756835938 239.147460938 -229.4921875 203.1171875 -226.53515625 c 0
 167.086914062 -223.579101562 148.4921875 -199.931640625 162.04296875 -174.586914062 c 2
 1102.04394531 1583.41210938 l 2
 1115.63671875 1608.83398438 1156.96191406 1627.48339844 1192.8828125 1624.53613281 c 0
1457.06835938 179.94921875 m 0
 1490.13476562 172.700195312 1501.52929688 146.2578125 1481.9609375 121.719726562 c 2
 1371.90917969 -16.2802734375 l 2
 1355.96484375 -36.2734375 1322.85839844 -49.8193359375 1294.09960938 -49.8193359375 c 2
 829.66796875 -49.8193359375 l 2
 784.946289062 -49.8193359375 765.75390625 -19.826171875 783.203125 6.4423828125 c 0
 835.963867188 85.8681640625 896.973632812 158.451171875 963.032226562 224.501953125 c 0
 1029.63476562 291.094726562 1097.60351562 346.5703125 1155.25683594 407.3984375 c 0
 1208.89550781 463.991210938 1265.86230469 534.465820312 1265.86132812 639.833984375 c 0
 1265.86132812 776.668945312 1150.02246094 864.150390625 1073.90429688 864.150390625 c 0
 1032.09082031 864.150390625 1019.890625 858.697265625 956.68359375 769.307617188 c 0
 939.118164062 744.466796875 895.990234375 728.545898438 861.748046875 734.38671875 c 0
 827.504882812 740.227539062 813.751953125 765.850585938 831.317382812 790.692382812 c 0
 887.348632812 869.93359375 958.595703125 957.849609375 1108.09667969 957.849609375 c 0
 1289.10644531 957.849609375 1406.84960938 818.6640625 1406.84960938 662.557617188 c 0
 1406.84960938 533.551757812 1330.84570312 437.266601562 1269.60351562 372.65234375 c 0
 1203.95898438 303.392578125 1134.54785156 246.846679688 1074.80859375 187.115234375 c 0
 1030.35644531 142.66796875 988.694335938 95.3515625 950.080078125 43.8798828125 c 1
 1277.22753906 43.8798828125 l 1
 1360.53320312 148.340820312 l 2
 1380.1015625 172.87890625 1424.00292969 187.198242188 1457.06835938 179.94921875 c 0
572.388671875 617.200195312 m 0
 563.078125 591.684570312 524.263671875 570.350585938 486.903320312 570.350585938 c 2
 186.904296875 570.350585938 l 2
 149.658203125 570.350585938 126.271484375 591.607421875 135.610351562 617.200195312 c 0
 144.950195312 642.79296875 183.849609375 664.049804688 221.095703125 664.049804688 c 2
 279.505859375 664.049804688 l 1
 279.505859375 1412.5078125 l 1
 234.983398438 1379.77050781 l 2
 206.223632812 1358.62304688 160.98828125 1353.07617188 135.45703125 1367.44726562 c 0
 109.92578125 1381.81835938 112.463867188 1411.39941406 141.223632812 1432.54589844 c 2
 303.120117188 1551.58789062 l 2
 333.3828125 1573.83984375 381.672851562 1578.58886719 406.163085938 1561.72167969 c 0
 415.76953125 1555.10449219 420.494140625 1542.26660156 420.494140625 1536.56152344 c 2
 420.494140625 664.049804688 l 1
 521.095703125 664.049804688 l 2
 558.455078125 664.049804688 581.700195312 642.71484375 572.388671875 617.200195312 c 0
EndSplineSet
EndChar

StartChar: threequarters
Encoding: 190 190 138
Width: 2048
VWidth: 0
Flags: WO
HStem: -46.8496 93.6992<968.572 1111.51 1252.49 1403.2> 289.762 93.7568<879.509 1111.51 1252.49 1442.38> 572.825 93.6992<172.86 418.866> 1072.08 92.5938<237.12 392.744> 1486.45 93.6992<132.972 404.867>
VStem: 480.795 140.988<729.53 983.049 1227.5 1414.69> 1111.51 140.987<46.8496 289.526 383.519 710.073>
LayerCount: 2
Back
SplineSet
31.3095703125 1393.640625 m 0
 66.2548828125 1481.71679688 164.473632812 1533.29492188 276.340820312 1533.29492188 c 0
 404.833007812 1533.29492188 542.651367188 1466.85839844 542.651367188 1334.24609375 c 0
 542.651367188 1207.265625 420.8046875 1133.82714844 304.688476562 1118.7265625 c 1
 438.228515625 1110.02050781 551.2890625 1003.49707031 551.2890625 865.068359375 c 0
 551.2890625 728.833007812 432.94921875 619.674804688 293.134765625 619.674804688 c 0
 178.375976562 619.674804688 80.7919921875 686.370117188 21.005859375 753.065429688 c 0
  Spiro
    31.3091 1393.64 {
    84.1571 1468.85 o
    260.728 1532.97 o
    542.349 1318.11 o
    427.255 1159.07 o
    304.688 1118.73 v
    549.218 896.394 o
    277.213 620.146 o
    97.2724 685.745 o
    21.0059 753.065 v
    0 0 z
  EndSpiro
1182 0 m 9
 1182 908 l 17
 776 337.200195312 l 9
 1375 336.200195312 l 25
1336 0 m 25
 1036 0 l 17
1168 1578 m 13
 228 -180 l 29
EndSplineSet
Fore
SplineSet
1192.8828125 1624.53613281 m 0
 1228.80371094 1621.58789062 1247.54980469 1598.00878906 1233.95703125 1572.58789062 c 2
 293.956054688 -185.412109375 l 2
 280.404296875 -210.756835938 239.147460938 -229.4921875 203.1171875 -226.53515625 c 0
 167.086914062 -223.579101562 148.4921875 -199.931640625 162.04296875 -174.586914062 c 2
 1102.04394531 1583.41210938 l 2
 1115.63671875 1608.83398438 1156.96191406 1627.48339844 1192.8828125 1624.53613281 c 0
1404.38867188 -0 m 0
 1395.078125 -25.5146484375 1356.26367188 -46.849609375 1318.90332031 -46.849609375 c 2
 1018.90429688 -46.849609375 l 2
 981.658203125 -46.849609375 958.271484375 -25.5927734375 967.610351562 0 c 0
 976.950195312 25.5927734375 1015.84960938 46.849609375 1053.09570312 46.849609375 c 2
 1111.50683594 46.849609375 l 1
 1111.50683594 289.76171875 l 1
 758.737304688 290.350585938 l 1
 758.737304688 290.350585938 752.64453125 290.458007812 748.587890625 290.908203125 c 0
 711.255859375 295.05078125 694.767578125 321.813476562 713.404296875 348.015625 c 2
 1119.40527344 918.815429688 l 2
 1129.53515625 933.057617188 1151.796875 947.190429688 1176.46972656 952.418945312 c 0
 1216.86621094 960.979492188 1252.49414062 945.487304688 1252.49414062 919.361328125 c 2
 1252.49414062 383.283203125 l 1
 1392.26269531 383.049804688 l 2
 1429.48632812 382.987304688 1452.77734375 361.678710938 1443.34765625 336.0859375 c 0
 1433.91796875 310.493164062 1394.9609375 289.2890625 1357.73730469 289.3515625 c 2
 1252.49414062 289.526367188 l 1
 1252.49414062 46.849609375 l 1
 1353.09570312 46.849609375 l 2
 1390.45507812 46.849609375 1413.70019531 25.5146484375 1404.38867188 -0 c 0
1111.50683594 383.518554688 m 1
 1111.50683594 710.073242188 l 1
 879.508789062 383.905273438 l 1
 1111.50683594 383.518554688 l 1
12.7255859375 1346.80273438 m 0
 -24.30859375 1347.359375 -46.8427734375 1369.07617188 -36.6904296875 1394.66210938 c 0
 6.97265625 1504.70996094 144.610351562 1580.14453125 293.436523438 1580.14453125 c 0
 453.64453125 1580.14453125 613.14453125 1499.38769531 613.145507812 1345.60839844 c 0
 613.14453125 1253.30859375 554.375 1175.8671875 466.5859375 1126.546875 c 1
 561.294921875 1075.83300781 621.783203125 984.965820312 621.783203125 876.430664062 c 0
 621.783203125 845.155273438 616.25390625 814.715820312 605.720703125 785.75390625 c 0
 565.680664062 675.657226562 439.259765625 572.825195312 276.0390625 572.825195312 c 0
 124.784179688 572.825195312 20.63671875 652.650390625 -41.9189453125 722.435546875 c 0
 -59.2255859375 741.7421875 -45.1455078125 771.782226562 -10.7705078125 788.514648438 c 0
 23.6044921875 805.247070312 66.6259765625 803.001953125 83.931640625 783.6953125 c 0
 140.947265625 720.08984375 231.967773438 666.524414062 310.23046875 666.524414062 c 0
 369.55078125 666.524414062 438.470703125 701.967773438 468.913085938 785.674804688 c 0
 476.459960938 806.426757812 480.794921875 829.356445312 480.794921875 853.706054688 c 0
 480.794921875 979.693359375 373.03515625 1066.10058594 281.3359375 1072.07910156 c 0
 255.0859375 1073.79003906 235.112304688 1087.30175781 234.227539062 1105.99316406 c 0
 233 1131.90917969 267.614257812 1159.40917969 308.087890625 1164.67285156 c 0
 381.361328125 1174.20117188 464.948242188 1215.37207031 471.751953125 1311.30273438 c 0
 472.018554688 1315.07226562 472.157226562 1318.93261719 472.157226562 1322.88476562 c 0
 472.157226562 1434.32910156 356.021484375 1486.4453125 259.245117188 1486.4453125 c 0
 184.336914062 1486.4453125 125.538085938 1458.72363281 99.3095703125 1392.61816406 c 0
 89.158203125 1367.03222656 49.759765625 1346.24609375 12.7255859375 1346.80273438 c 0
EndSplineSet
EndChar

StartChar: copyright
Encoding: 169 169 139
Width: 1474
VWidth: 0
Flags: W
HStem: -17 36<607.117 858.781> 206 36<638.607 860.467> 1120 36<628.671 851.115> 1350 36<596.831 848.908>
VStem: 97 54<504.081 886.812> 350 54<510.433 849.263> 1305 54<496.491 881.506>
LayerCount: 2
Fore
SplineSet
721 1350 m 0
 416 1350 151 1076 151 698 c 0
 151 319 423 19 735 19 c 0
 1038 19 1305 308 1305 689 c 0
 1305 1068 1034 1350 721 1350 c 0
97 689 m 0
 97 783 114 872 143 953 c 0
 234 1204 461 1386 735 1386 c 0
 1089 1386 1359 1083 1359 698 c 0
 1359 602 1342 511 1312 427 c 0
 1220 174 995 -17 721 -17 c 0
 366 -17 97 304 97 689 c 0
350 674 m 0
 350 932 510 1156 725 1156 c 0
 878 1156 983 1112 1054 1019 c 0
 1055 1017 1056 1015 1056 1013 c 0
 1056 1009 1053 1004 1050 1001 c 2
 957 907 l 2
 948 898 932 894 920 898 c 0
 908 902 906 912 915 921 c 2
 998 1005 l 1
 933 1086 845 1120 712 1120 c 0
 609 1120 494 1035 437 879 c 0
 416 821 404 754 404 682 c 0
 404 417 571 242 725 242 c 0
 868 242 927 276 1008 342 c 0
 1018 350 1036 353 1046 348 c 0
 1056 343 1056 332 1046 324 c 0
 959 254 874 206 712 206 c 0
 512 206 350 406 350 674 c 0
EndSplineSet
EndChar

StartChar: acute
Encoding: 180 180 140
AltUni2: 000341.ffffffff.0 000301.ffffffff.0
Width: 828
VWidth: 0
Flags: WO
LayerCount: 2
Back
SplineSet
271.98828125 1155 m 29
 523.98828125 1319.41601562 l 29
EndSplineSet
Fore
SplineSet
215.916015625 1118.41601562 m 0
 192.6484375 1134.35546875 198.6328125 1164.28125 229.263671875 1184.265625 c 2
 481.264648438 1348.68164062 l 2
 511.801757812 1368.60644531 556.720703125 1371.98730469 580.060546875 1356 c 0
 603.399414062 1340.01269531 597.25 1310.07421875 566.712890625 1290.15039062 c 2
 314.711914062 1125.73339844 l 2
 284.081054688 1105.74902344 239.184570312 1102.47753906 215.916015625 1118.41601562 c 0
EndSplineSet
EndChar

StartChar: uni00B5
Encoding: 181 181 153
Width: 1160
VWidth: 0
Flags: WO
HStem: -455.55 93.6992<-68.1997 56.4627 197.467 326.428> -46.8486 93.6982<323.948 694.244 838.453 966.659> 867.15 93.6992<-75.1998 56.5068 564.8 696.545 837.558 968.558>
VStem: 56.6348 140.988<-361.851 24.4503 178.032 867.15> 697.396 141.057<74.7022 867.15>
LayerCount: 2
Back
SplineSet
-1 -408.700195312 m 29
 259 -408.700195312 l 29
126.44140625 328.798828125 m 5
 126.627929688 82.7265625 126.813476562 -163.454101562 127 -408.700195312 c 12
901.129882812 4 m 5
 768 0 l 5
 767 914 l 5
632 914 m 21
 901.129882812 914 l 5
-8 914 m 29
 127 914 l 21
 127.129882812 331.200195312 l 6
 127.170898438 148.17578125 255.76171875 0 447.129882812 0 c 7
 604.237304688 0 683.91796875 39.3759765625 771.129882812 67.2001953125 c 5
EndSplineSet
Fore
SplineSet
-76.3896484375 914 m 0
 -67.0791015625 939.515625 -28.263671875 960.849609375 9.095703125 960.849609375 c 2
 144.095703125 960.849609375 l 2
 176.513671875 960.849609375 197.490234375 943.833007812 197.494140625 925.368164062 c 2
 197.623046875 342.568359375 l 2
 197.663085938 167.615234375 324.6875 46.849609375 464.2265625 46.849609375 c 0
 574.346885859 46.849609375 629.971671239 65.8006428324 697.395645483 89.3419427362 c 1
 696.544651557 867.150390625 l 1
 614.903320312 867.150390625 l 2
 577.543945312 867.150390625 554.299804688 888.485351562 563.610351562 914 c 0
 572.920898438 939.514648438 611.736328125 960.849609375 649.095703125 960.849609375 c 2
 918.2265625 960.849609375 l 2
 955.47265625 960.849609375 978.858398438 939.592773438 969.51953125 914 c 0
 960.180664062 888.407226562 921.280273438 867.150390625 884.034179688 867.150390625 c 2
 837.557810186 867.150390625 l 1
 838.405972725 91.6128485948 l 2
 838.847730864 90.777815147 839.246863328 89.9217046447 839.6015625 89.044921875 c 0
 842.688231085 81.4144849155 842.056769048 73.0897203144 838.435132481 64.9499332276 c 1
 838.453125 48.498046875 l 1
 915.178710938 50.8037109375 l 2
 952.916015625 51.9375 977.861328125 31.56640625 970.209960938 6.076171875 c 0
 962.55859375 -19.4140625 924.817382812 -41.6689453125 887.081054688 -42.802734375 c 2
 753.951171875 -46.8037109375 l 2
 721.39453125 -47.78125 697.529296875 -32.5439453125 697.505859375 -11.3935546875 c 0
 697.505859375 -9.16933091551 697.498558859 -6.94510714352 697.498558859 -4.72088337154 c 1
 630.788647591 -25.917315033 545.054497799 -46.8492743841 430.034179688 -46.8486328125 c 0
 334.701646823 -46.8486328125 256.739019283 -19.8686776989 197.174687676 24.4502851976 c 1
 197.467278236 -361.850585938 l 1
 276.096679688 -361.850585938 l 2
 313.342773438 -361.850585938 336.728515625 -383.107421875 327.389648438 -408.700195312 c 0
 318.049804688 -434.29296875 279.150390625 -455.549804688 241.904296875 -455.549804688 c 2
 -18.095703125 -455.549804688 l 2
 -55.4560546875 -455.549804688 -78.7001953125 -434.21484375 -69.3896484375 -408.700195312 c 0
 -60.078125 -383.184570312 -21.263671875 -361.850585938 16.0966796875 -361.850585938 c 2
 56.4626519048 -361.850585938 l 1
 55.947265625 317.415039062 l 2
 55.947265625 319.544392469 56.1802804655 321.68094497 56.6348048807 323.811708233 c 2
 56.5068359375 867.150390625 l 1
 -25.0966796875 867.150390625 l 2
 -62.4560546875 867.150390625 -85.7001953125 888.485351562 -76.3896484375 914 c 0
EndSplineSet
EndChar

StartChar: thorn
Encoding: 254 254 154
Width: 1048
VWidth: 0
Flags: W
HStem: -425 36<64.1948 192 246 375.804> -18 36<482.117 659.933> 896 36<456.316 646.177> 1334 36<56.9567 191>
VStem: 191 54<-389 172 248.064 713.78 762 1334> 921 54<292.945 612.072>
LayerCount: 2
Fore
SplineSet
56 1347 m 0
 56 1361 75 1370 89 1370 c 2
 224 1370 l 2
 236 1370 245 1364 245 1357 c 2
 245 762 l 1
 315 868 444 932 569 932 c 0
 782 932 975 728 975 459 c 0
 975 189 777 -18 556 -18 c 0
 433 -18 312 59 245 172 c 1
 246 -389 l 1
 356 -389 l 2
 370 -389 380 -397 376 -407 c 0
 372 -417 357 -425 343 -425 c 2
 83 -425 l 2
 69 -425 60 -417 64 -407 c 0
 68 -397 82 -389 96 -389 c 2
 192 -389 l 1
 191 1334 l 1
 76 1334 l 2
 64 1334 56 1339 56 1347 c 0
556 896 m 0
 414 896 246 786 246 591 c 0
 246 589 246 588 245 586 c 1
 245 350 l 1
 261 158 431 18 569 18 c 0
 692 18 830 112 891 279 c 0
 910 330 921 388 921 450 c 0
 921 714 726 896 556 896 c 0
EndSplineSet
Validated: 1
EndChar

StartChar: exclamdown
Encoding: 161 161 155
Width: 406
VWidth: 0
Flags: W
HStem: 856 132<156.796 259.15>
VStem: 158 96<-406.811 227.063 856.41 986.73>
LayerCount: 2
Fore
SplineSet
254 -202 m 0
 254 -228 219 -413 204 -413 c 0
 189 -413 158 -228 158 -202 c 0
 158 -176 193 722 208 722 c 0
 223 722 254 -176 254 -202 c 0
263 926 m 0
 263 916 261 906 258 897 c 0
 254 885 241 856 202 856 c 0
 159 856 153 892 153 917 c 0
 153 927 155 938 158 947 c 0
 162 959 176 988 215 988 c 0
 258 988 263 951 263 926 c 0
EndSplineSet
Validated: 1
EndChar

StartChar: questiondown
Encoding: 191 191 156
Width: 933
VWidth: 0
Flags: W
HStem: -427 36<356.743 583.1> 860 132<406.796 509.15>
VStem: 49 54<-166.426 106.869> 403 110<862.005 989.477> 428 54<558.499 748.965>
LayerCount: 2
Fore
SplineSet
513 930 m 0xf0
 513 920 511 910 508 901 c 0
 504 889 491 860 452 860 c 0
 409 860 403 896 403 921 c 0
 403 931 405 942 408 951 c 0
 412 963 426 992 465 992 c 0
 508 992 513 955 513 930 c 0xf0
428 673 m 0xe8
 428 689.179775281 423.960106047 706.167529352 423.960106047 719.968760328 c 0
 423.960106047 736.875268274 430.02247191 749 457 749 c 0
 468 749 475 745 477 738 c 0
 480 720 482 702 482 684 c 0
 482 649 476 613 464 579 c 0
 433 490 366 421 304 356 c 0
 210 257 103 147 103 -31 c 0
 103 -237 263 -386 460 -391 c 1
 471 -391 l 2
 630 -391 749 -302 815 -197 c 0
 822 -185 867 -173 867 -196 c 0
 867 -198 866 -201 865 -203 c 0
 790 -322 645 -427 460 -427 c 2
 444 -427 l 1
 251 -421 98 -293 59 -130 c 0
 52 -101 49 -71 49 -42 c 0
 49 147 164 267 260 369 c 0
 322 434 384 499 412 579 c 0
 422 609 428 641 428 673 c 0xe8
EndSplineSet
EndChar

StartChar: cent
Encoding: 162 162 157
Width: 818
VWidth: 0
Flags: W
HStem: -17 38<353.65 414 468 588.588> 896 35<351.347 414 468 572.105>
VStem: 72 54<290.235 628.515> 414 54<-344.9 -17 21 896 933 1296.9>
LayerCount: 2
Fore
SplineSet
414 896 m 1
 316 886 212 801 159 655 c 0
 138 597 126 531 126 459 c 0
 126 213 270 44 414 21 c 1
 414 896 l 1
72 450 m 0
 72 699 217 908 414 931 c 1
 414 1276 l 2
 414 1285 426 1295 441 1297 c 0
 443 1297 445 1297 447 1297 c 0
 459 1297 468 1292 468 1284 c 2
 468 933 l 1
 610 929 708 884 776 795 c 0
 777 793 778 791 778 789 c 0
 778 785 776 780 773 777 c 2
 680 683 l 2
 671 674 654 670 642 674 c 0
 630 678 628 688 637 697 c 2
 720 781 l 1
 661 855 582 890 468 896 c 1
 468 18 l 1
 596 21 653 55 730 118 c 0
 743 128 776 134 776 113 c 0
 776 109 774 104 769 100 c 0
 688 35 608 -11 468 -17 c 1
 468 -324 l 2
 468 -333 456 -343 441 -345 c 0
 439 -345 437 -345 435 -345 c 0
 423 -345 414 -340 414 -332 c 2
 414 -17 l 1
 223 -4 72 191 72 450 c 0
EndSplineSet
Validated: 1
EndChar

StartChar: uni00B2
Encoding: 178 178 158
Width: 888
VWidth: 0
Flags: W
HStem: 564 36<155 568> 1478 36<279.172 432.193>
VStem: 579 54<1116.16 1341.27>
LayerCount: 2
Fore
SplineSet
668 725 m 2
 676 735 718 747 718 724 c 0
 718 721 716 718 714 715 c 2
 604 577 l 2
 598 569 585 564 574 564 c 2
 110 564 l 2
 97 564 89 570 89 578 c 0
 89 580 90 584 92 586 c 0
 143 663 203 734 267 798 c 0
 331 862 400 919 460 982 c 0
 516 1041 579 1119 579 1232 c 0
 579 1375 463 1478 354 1478 c 0
 279 1478 249 1447 188 1361 c 0
 181 1352 164 1346 151 1348 c 0
 138 1350 133 1360 140 1369 c 0
 198 1451 251 1514 367 1514 c 0
 516 1514 633 1391 633 1241 c 0
 633 1119 563 1031 504 969 c 0
 441 902 372 846 310 784 c 0
 254 728 202 667 155 600 c 1
 568 600 l 1
 668 725 l 2
EndSplineSet
EndChar

StartChar: uni00B3
Encoding: 179 179 159
Width: 888
VWidth: 0
Flags: W
HStem: 565 36<289.22 470.346> 1064 35<362.94 450.168> 1478 36<253.434 460.563>
VStem: 609 54<725.884 931.793 1223.85 1362.03>
LayerCount: 2
Fore
SplineSet
384 601 m 0
 495 601 609 687 609 824 c 0
 609 958 498 1056 380 1064 c 0
 370 1065 362 1070 362 1077 c 0
 362 1087 375 1097 390 1099 c 0
 487 1112 592 1170 600 1280 c 1
 600 1293 l 2
 600 1418 470 1478 354 1478 c 0
 256 1478 174 1436 142 1356 c 0
 138 1346 123 1339 109 1339 c 0
 95 1339 86 1347 90 1357 c 0
 128 1453 241 1514 367 1514 c 0
 508 1514 654 1442 654 1301 c 0
 654 1196 572 1121 473 1085 c 1
 583 1048 663 951 663 832 c 0
 663 803 658 775 648 749 c 0
 611 647 502 565 371 565 c 0
 242 565 142 636 81 704 c 0
 79 706 78 708 78 711 c 0
 78 727 116 742 130 728 c 1
 189 662 283 601 384 601 c 0
EndSplineSet
EndChar

StartChar: uni00B9
Encoding: 185 185 160
Width: 672
VWidth: 0
Flags: W
HStem: 566 36<131.195 276 330 483.316>
VStem: 276 54<602 1449>
LayerCount: 2
Fore
SplineSet
484 588 m 0
 484 574 464 566 450 566 c 2
 150 566 l 2
 136 566 127 574 131 584 c 0
 135 594 149 602 163 602 c 2
 276 602 l 1
 276 1449 l 1
 159 1363 l 2
 146 1354 114 1349 114 1368 c 0
 114 1373 117 1379 123 1383 c 2
 285 1502 l 2
 292 1507 302 1509 310 1509 c 0
 320 1509 330 1504 330 1496 c 2
 330 602 l 1
 463 602 l 2
 475 602 484 596 484 588 c 0
EndSplineSet
EndChar

StartChar: multiply
Encoding: 215 215 161
Width: 824
VWidth: 0
Flags: WO
HStem: 328.941 404.117
LayerCount: 2
Back
SplineSet
571.098632812 371.901367188 m 29
 252.901367188 690.098632812 l 21
252.901367188 371.901367188 m 29
 571.098632812 690.098632812 l 21
EndSplineSet
Fore
SplineSet
209.94140625 328.94140625 m 0
 179.501953125 339.120117188 173.541992188 367.123046875 197.009765625 390.590820312 c 2
 327.895717466 521.476772154 l 1
 191.270507812 658.1015625 l 2
 172.633789062 676.739257812 185.012695312 706.83984375 218.680664062 724.319335938 c 0
 252.34765625 741.798828125 295.89453125 740.732421875 314.532226562 722.095703125 c 2
 421.5234375 615.104492188 l 1
 515.208007812 708.7890625 l 2
 538.604492188 732.185546875 583.526367188 743.268554688 614.05859375 733.05859375 c 0
 644.590820312 722.848632812 650.38671875 694.805664062 626.990234375 671.409179688 c 2
 496.104693034 540.523236653 l 1
 632.729492188 403.8984375 l 2
 651.423828125 385.204101562 638.884765625 355.106445312 605.319335938 337.680664062 c 0
 571.754882812 320.254882812 528.162109375 321.209960938 509.46875 339.904296875 c 2
 402.477231121 446.895487393 l 1
 308.79296875 353.2109375 l 2
 285.325195312 329.743164062 240.380859375 318.762695312 209.94140625 328.94140625 c 0
EndSplineSet
EndChar

StartChar: ordmasculine
Encoding: 186 186 162
Width: 888
VWidth: 0
Flags: W
HStem: 515.055 93.6992<257.887 508.802> 1207.56 93.6982<234.084 474.112>
VStem: -22.7715 140.987<754.351 1075.85> 626.279 140.988<737.741 1055.23>
LayerCount: 2
Back
SplineSet
369.958984375 561.904296875 m 4
 207.75 561.904296875 47.72265625 704.028320312 47.72265625 906.033203125 c 4
 47.72265625 1108.03710938 207.634765625 1254.40527344 369.845703125 1254.40527344 c 5
 532.053710938 1254.40527344 696.7734375 1108.03710938 696.7734375 906.033203125 c 4
 696.7734375 704.028320312 532.168945312 561.904296875 369.958984375 561.904296875 c 4
EndSplineSet
Fore
SplineSet
352.862304688 515.0546875 m 0
 139.056640625 515.0546875 -22.771484375 682.55078125 -22.771484375 894.670898438 c 0
 -22.771484375 942.71484375 -14.3896484375 988.377929688 1.0380859375 1030.76464844 c 0
 53.677734375 1175.38574219 203.427734375 1301.25488281 386.94140625 1301.25390625 c 0
 601.092773438 1301.25488281 767.267578125 1129.72558594 767.267578125 917.39453125 c 0
 767.267578125 870.8203125 759.172851562 826.626953125 744.25390625 785.568359375 c 0
 690.858398438 638.618164062 535.880859375 515.0546875 352.862304688 515.0546875 c 0
387.0546875 608.75390625 m 0
 459.118164062 608.75390625 562.182617188 660.91796875 607.438476562 785.46875 c 0
 619.3359375 818.211914062 626.279296875 854.897460938 626.279296875 894.670898438 c 0
 626.279296875 1086.34863281 463.015625 1207.55566406 352.75 1207.55566406 c 0
 283.515625 1207.55566406 183.309570312 1155.74804688 137.838867188 1030.82421875 c 0
 125.4453125 996.772460938 118.215820312 958.608398438 118.215820312 917.39453125 c 0
 118.216796875 725.505859375 276.443359375 608.75390625 387.0546875 608.75390625 c 0
EndSplineSet
EndChar

StartChar: AE
Encoding: 198 198 163
Width: 1764
VWidth: 0
Flags: W
HStem: -18 36<96.9567 245 297 448.804 826.196 967 1023 1379> 453 36<460 877> 711 36<891 1291.8> 1350 36<566.196 706 769 1425>
VStem: 1425 54<1217.91 1350>
LayerCount: 2
Back
SplineSet
908.513671875 471.166992188 m 29
 428 471 l 29
738 1368 m 29
 998 0 l 21
423 0 m 21
 323 0 223 0 123 0 c 5
265 0 m 13
 738 1368 l 21
 638 1368 692 1368 592 1368 c 5
 693 1368 1352 1368 1452 1368 c 13
 1452 1234 l 29
1266 729 m 29
 855 729 l 29
1566 214 m 21
 1392 0 l 13
 852 0 l 21
EndSplineSet
Fore
SplineSet
96 -5 m 0
 96 9 116 18 130 18 c 2
 245 18 l 1
 706 1350 l 1
 585 1350 l 2
 570 1350 561 1359 566 1369 c 0
 570 1378 586 1386 599 1386 c 2
 1459 1386 l 2
 1471 1386 1479 1379 1479 1372 c 2
 1479 1238 l 2
 1479 1226.35483871 1458.71488033 1216.9635796 1443.01027156 1216.9635796 c 0
 1433.09157128 1216.9635796 1425 1220.70967742 1425 1230 c 2
 1425 1350 l 1
 769 1350 l 1
 884 747 l 1
 1273 747 l 2
 1287 747 1296 739 1292 729 c 0
 1288 719 1273 711 1259 711 c 2
 891 711 l 1
 935 478 l 1
 935 477 l 1
 1023 18 l 1
 1379 18 l 1
 1543 219 l 2
 1552 229 1593 241 1593 218 c 0
 1593 215 1592 212 1589 209 c 2
 1415 -5 l 2
 1409 -13 1396 -18 1385 -18 c 2
 845 -18 l 2
 831 -18 822 -10 826 -0 c 0
 830 10 845 18 859 18 c 2
 967 18 l 1
 884 453 l 1
 448 453 l 1
 297 18 l 1
 430 18 l 2
 444 18 453 10 449 0 c 0
 445 -10 430 -18 416 -18 c 2
 116 -18 l 2
 104 -18 96 -13 96 -5 c 0
729 1267 m 1
 460 489 l 1
 877 489 l 1
 834 715 l 1
 829 718 827 723 829 729 c 0
 829 730 830 732 831 733 c 1
 729 1267 l 1
EndSplineSet
EndChar

StartChar: divide
Encoding: 247 247 164
Width: 826
VWidth: 0
Flags: W
HStem: 245 132<354.85 457.204> 513 36<160.957 663.043> 673 132<370.85 473.204>
VStem: 351 110<247.523 374.995> 367 110<675.523 802.995>
LayerCount: 2
Fore
SplineSet
160 526 m 0xe0
 160 540 180 549 194 549 c 2
 644 549 l 2
 656 549 664 544 664 536 c 0
 664 522 644 513 630 513 c 2
 180 513 l 2
 168 513 160 518 160 526 c 0xe0
351 307 m 0xf0
 351 317 353 327 356 336 c 0
 360 348 373 377 412 377 c 0
 455 377 461 341 461 316 c 0
 461 306 459 295 456 286 c 0
 452 274 438 245 399 245 c 0
 356 245 351 282 351 307 c 0xf0
367 735 m 0xe8
 367 745 369 755 372 764 c 0
 376 776 389 805 428 805 c 0
 471 805 477 769 477 744 c 0
 477 734 475 723 472 714 c 0
 468 702 454 673 415 673 c 0
 372 673 367 710 367 735 c 0xe8
EndSplineSet
Validated: 1
EndChar

StartChar: plusminus
Encoding: 177 177 165
Width: 824
VWidth: 0
Flags: W
HStem: 233 36<160.689 663.311> 663 36<160.689 385 439 663.311>
VStem: 385 54<439.1 663 699 922.9>
LayerCount: 2
Fore
SplineSet
664 255 m 0
 664 242 644 233 630 233 c 0
 480 233 330 233 180 233 c 0
 168 233 160 239 160 247 c 0
 160 260 180 269 194 269 c 0
 344 269 494 269 644 269 c 0
 656 269 664 263 664 255 c 0
664 685 m 0
 664 672 644 663 630 663 c 2
 439 663 l 1
 439 460 l 2
 439 451 427 441 412 439 c 0
 410 439 408 439 406 439 c 0
 394 439 385 444 385 452 c 2
 385 663 l 1
 180 663 l 2
 168 663 160 669 160 677 c 0
 160 690 180 699 194 699 c 2
 385 699 l 1
 385 902 l 2
 385 911 397 921 412 923 c 0
 414 923 416 923 418 923 c 0
 430 923 439 918 439 910 c 2
 439 699 l 1
 644 699 l 2
 656 699 664 693 664 685 c 0
EndSplineSet
EndChar

StartChar: periodcentered
Encoding: 183 183 167
Width: 406
VWidth: 0
Flags: W
HStem: 437 132<156.85 259.204>
VStem: 153 110<439.523 566.995>
LayerCount: 2
Fore
SplineSet
153 499 m 0
 153 509 155 519 158 528 c 0
 162 540 175 569 214 569 c 0
 257 569 263 533 263 508 c 0
 263 498 261 487 258 478 c 0
 254 466 240 437 201 437 c 0
 158 437 153 474 153 499 c 0
EndSplineSet
EndChar

StartChar: Eth
Encoding: 208 208 168
AltUni2: 000189.ffffffff.0 000110.ffffffff.0
Width: 1238
VWidth: 0
Flags: W
HStem: -18 36<74.9567 220 274 685.205> 663 36<74.9567 219 274 677.043> 1350 36<74.9567 219 273 681.847>
VStem: 219 54<18 663 699 1350> 1133 54<519.553 908.412>
LayerCount: 2
Fore
SplineSet
74 676 m 0
 74 690 93 699 108 699 c 2
 219 699 l 1
 219 1350 l 1
 94 1350 l 2
 82 1350 74 1355 74 1363 c 0
 74 1377 93 1386 107 1386 c 2
 567 1386 l 2
 929 1386 1187 1079 1187 735 c 0
 1187 630 1168 525 1133 428 c 0
 1044 185 843 -18 554 -18 c 2
 94 -18 l 2
 82 -18 74 -13 74 -5 c 0
 74 9 93 18 107 18 c 2
 220 18 l 1
 220 663 l 1
 94 663 l 2
 82 663 74 668 74 676 c 0
567 18 m 2
 894 18 1133 342 1133 726 c 0
 1133 1064 875 1350 554 1350 c 2
 273 1350 l 1
 273 699 l 1
 658 699 l 2
 670 699 678 694 678 686 c 0
 678 672 659 663 644 663 c 2
 274 663 l 1
 274 18 l 1
 567 18 l 2
EndSplineSet
EndChar

StartChar: ring
Encoding: 730 730 169
Width: 641
VWidth: 0
Flags: W
HStem: 979 36<293.442 387.496> 1203 36<284.927 378.775>
VStem: 197 54<1046.32 1179.15> 421 54<1037.91 1172.33>
LayerCount: 2
Fore
SplineSet
475 1114 m 0
 475 1038 411 979 329 979 c 0
 248 979 197 1039 197 1105 c 0
 197 1181 262 1239 343 1239 c 0
 424 1239 475 1180 475 1114 c 0
329 1203 m 0
 293 1203 251 1168 251 1114 c 0
 251 1056 301 1015 343 1015 c 0
 380 1015 421 1050 421 1105 c 0
 421 1163 372 1203 329 1203 c 0
EndSplineSet
Validated: 1
EndChar

StartChar: macron
Encoding: 175 175 170
Width: 564
VWidth: 0
Flags: W
HStem: 1143 36<80.9567 483.043>
VStem: 80 404<1143 1179>
LayerCount: 2
Fore
SplineSet
80 1156 m 0
 80 1170 99 1179 114 1179 c 2
 464 1179 l 2
 476 1179 484 1174 484 1166 c 0
 484 1152 465 1143 450 1143 c 2
 100 1143 l 2
 88 1143 80 1148 80 1156 c 0
EndSplineSet
EndChar

StartChar: approxequal
Encoding: 8776 8776 176
Width: 2048
VWidth: 0
Flags: W
HStem: 330 37<563.045 683.128> 483 36<247.228 358.218> 530 37<563.045 683.128> 683 36<247.228 358.218>
VStem: 160 604<417 426 617 626>
LayerCount: 2
Fore
SplineSet
180 403 m 0
 168 403 160 409 160 417 c 0
 160 419 160 420 161 422 c 0
 181 472 240 519 316 519 c 0
 446 519 492 405 588 373 c 0
 601 369 615 367 627 367 c 0
 668 367 696 388 712 422 c 0
 715.746284851 429.492569702 735.086625464 439.324247769 749.087269178 439.324247769 c 0
 757.509870258 439.324247769 764 435.766098979 764 426 c 0
 764 424 763 422 762 420 c 0
 739 373 686 330 613 330 c 0
 486 330 440 439 351 474 c 0
 334 480 317 483 302 483 c 0
 258 483 229 458 213 420 c 0
 209 410 194 403 180 403 c 0
180 603 m 0
 168 603 160 609 160 617 c 0
 160 619 160 620 161 622 c 0
 181 672 240 719 316 719 c 0
 446 719 492 605 588 573 c 0
 601 569 615 567 627 567 c 0
 668 567 696 588 712 622 c 0
 715.746284851 629.492569702 735.086625464 639.324247769 749.087269178 639.324247769 c 0
 757.509870258 639.324247769 764 635.766098979 764 626 c 0
 764 624 763 622 762 620 c 0
 739 573 686 530 613 530 c 0
 486 530 440 639 351 674 c 0
 334 680 317 683 302 683 c 0
 258 683 229 658 213 620 c 0
 209 610 194 603 180 603 c 0
EndSplineSet
Validated: 1
EndChar

StartChar: integral
Encoding: 8747 8747 177
Width: 968
VWidth: 0
Flags: W
HStem: -429 37<199.532 320.944> 1350 36<597.367 730.041>
VStem: 55 55<-319.312 -240.994> 443 54<-281.746 1243.04> 833 54<1201.16 1274.15>
LayerCount: 2
Back
SplineSet
82 -257.200195312 m 4
 82 -329.642578125 182.340820312 -428.276367188 276 -408 c 28
 392.095703125 -382.866210938 469.89453125 -293.2109375 470 -173.200195312 c 4
 472.22265625 260.709960938 471.14453125 697.921875 472 1133.20019531 c 4
 472.10546875 1253.20996094 547.21484375 1368 666 1368 c 31
 761.829101562 1368 860 1289.64257812 860 1217.20019531 c 4
EndSplineSet
Fore
SplineSet
241 -429 m 0
 140 -429 55 -336 55 -262 c 0
 55 -249.683014396 75.4805981392 -240.020921144 91.2158711738 -240.020921144 c 0
 101.031124121 -240.020921144 109 -243.780382725 109 -253 c 0
 109 -256 110 -260 110 -263 c 0
 118 -326 199 -392 259 -392 c 0
 264 -392 269 -392 274 -391 c 0
 369 -370 443 -295 443 -178 c 0
 445 256 444 694 445 1129 c 0
 445 1164 451 1198 463 1230 c 0
 492 1310 563 1386 673 1386 c 0
 785 1386 887 1302 887 1222 c 0
 887 1209.6830144 866.519401861 1200.02092114 850.784128826 1200.02092114 c 0
 840.968875879 1200.02092114 833 1203.78038272 833 1213 c 0
 833 1278 738 1350 659 1350 c 0
 571 1350 499 1254 499 1138 c 0
 498 703 499 265 497 -169 c 0
 497 -292 415 -395 278 -425 c 0
 265 -428 253 -429 241 -429 c 0
EndSplineSet
Validated: 1
EndChar

StartChar: florin
Encoding: 402 402 178
Width: 968
VWidth: 0
Flags: W
HStem: -429 37<199.532 320.944> 896 36<259.957 445 499 699.804> 1350 36<597.367 730.041>
VStem: 55 55<-319.312 -240.994> 445 54<-276.836 896 932 1247.45> 833 54<1201.16 1274.15>
LayerCount: 2
Fore
SplineSet
241 -429 m 0
 140 -429 55 -336 55 -262 c 0
 55 -249.683014396 75.4805981392 -240.020921144 91.2158711738 -240.020921144 c 0
 101.031124121 -240.020921144 109 -243.780382725 109 -253 c 0
 109 -256 110 -260 110 -263 c 0
 118 -326 199 -392 259 -392 c 0
 264 -392 269 -392 274 -391 c 0
 369 -370 443 -295 443 -178 c 0
 445 179 445 538 445 896 c 1
 279 896 l 2
 267 896 259 901 259 909 c 0
 259 923 278 932 292 932 c 2
 445 932 l 1
 445 1129 l 2
 445 1164 451 1198 463 1230 c 0
 492 1310 563 1386 673 1386 c 0
 785 1386 887 1302 887 1222 c 0
 887 1209.6830144 866.519401861 1200.02092114 850.784128826 1200.02092114 c 0
 840.968875879 1200.02092114 833 1203.78038272 833 1213 c 0
 833 1278 738 1350 659 1350 c 0
 571 1350 499 1254 499 1138 c 2
 499 932 l 1
 680 932 l 2
 694 932 704 924 700 914 c 0
 696 904 681 896 667 896 c 2
 499 896 l 1
 499 541 499 185 497 -169 c 0
 497 -292 415 -395 278 -425 c 0
 265 -428 253 -429 241 -429 c 0
EndSplineSet
Validated: 1
EndChar

StartChar: uniF6BE
Encoding: 63166 63166 179
Width: 406
VWidth: 0
Flags: W
HStem: -424 33<24.3804 75.0235> 896 36<68.1948 202>
VStem: 203 54<-242.375 896>
LayerCount: 2
Fore
SplineSet
46 -424 m 0
 35 -424 24 -419 24 -410 c 0
 24 -403 32 -395 44 -391 c 0
 186 -345 203 -165 203 -18 c 2
 203 -4 l 1
 202 896 l 1
 87 896 l 2
 73 896 64 904 68 914 c 0
 72 924 86 932 100 932 c 2
 235 932 l 2
 247 932 256 925 256 918 c 2
 257 4 l 1
 257 -35 l 2
 257 -172 245 -361 58 -422 c 0
 54 -423 50 -424 46 -424 c 0
EndSplineSet
Validated: 1
EndChar

StartChar: perthousand
Encoding: 8240 8240 180
Width: 2124
VWidth: 0
Flags: W
HStem: -89 36<972.937 1096.4 1632.94 1756.4> 639 36<960.427 1083.34 1620.43 1743.34> 756 36<314.937 438.238> 1484 36<302.594 425.344>
VStem: 97 54<982.557 1294.76> 593 54<979.749 1287.87> 755 54<137.961 450.263> 1251 54<135.152 443.296> 1415 54<137.961 450.263> 1911 54<135.152 443.296>
LayerCount: 2
Fore
SplineSet
1035 -53 m 0
 1097 -53 1180 5 1224 126 c 0
 1241 173 1251 228 1251 288 c 0
 1251 500 1120 639 1021 639 c 0
 960 639 880 582 837 463 c 0
 819 415 809 359 809 297 c 0
 809 85 936 -53 1035 -53 c 0
1305 297 m 0
 1305 97 1188 -89 1021 -89 c 0
 872 -89 755 74 755 288 c 0
 755 486 868 675 1035 675 c 0
 1184 675 1305 511 1305 297 c 0
1178 1596 m 0
 1192 1595 1198 1586 1193 1576 c 2
 253 -182 l 2
 248 -191 234 -198 221 -198 c 0
 220 -198 219 -198 218 -198 c 0
 207 -197 201 -192 201 -185 c 0
 201 -183 202 -180 203 -178 c 2
 1143 1580 l 2
 1148 1589 1162 1596 1175 1596 c 0
 1176 1596 1177 1596 1178 1596 c 0
377 792 m 0
 439 792 522 850 566 971 c 0
 583 1018 593 1073 593 1133 c 0
 593 1345 462 1484 363 1484 c 0
 302 1484 222 1426 179 1307 c 0
 161 1259 151 1203 151 1141 c 0
 151 929 278 792 377 792 c 0
647 1141 m 0
 647 941 529 756 363 756 c 0
 214 756 97 919 97 1133 c 0
 97 1331 211 1520 377 1520 c 0
 526 1520 647 1355 647 1141 c 0
1695 -53 m 0
 1757 -53 1840 5 1884 126 c 0
 1901 173 1911 228 1911 288 c 0
 1911 500 1780 639 1681 639 c 0
 1620 639 1540 582 1497 463 c 0
 1479 415 1469 359 1469 297 c 0
 1469 85 1596 -53 1695 -53 c 0
1965 297 m 0
 1965 97 1848 -89 1681 -89 c 0
 1532 -89 1415 74 1415 288 c 0
 1415 486 1528 675 1695 675 c 0
 1844 675 1965 511 1965 297 c 0
EndSplineSet
Validated: 1
EndChar

StartChar: Euro
Encoding: 8364 8364 181
Width: 1360
VWidth: 0
Flags: W
HStem: -18 36<618.642 922.364> 592 36<51.6887 191 246 739.043> 792 36<51.6887 194 250 894.043> 1351 36<605.728 901.796>
VStem: 190 54<399.007 592 628 792 828 963.713> 1132 54<1013.16 1227.86 1269 1345.84>
LayerCount: 2
Back
SplineSet
1027.95758057 1155.49996948 m 25
 127.957580566 21.5000038147 l 29
EndSplineSet
Fore
SplineSet
51 806 m 0
 51 819 71 828 85 828 c 2
 196 828 l 1
 209 970 242 1105 313 1198 c 0
 425 1344 617 1387 770 1387 c 0
 904 1387 1025 1352 1132 1269 c 1
 1132 1325 l 2
 1132 1337.3169856 1152.48059814 1346.97907886 1168.21587117 1346.97907886 c 0
 1178.03112412 1346.97907886 1186 1343.21961728 1186 1334 c 2
 1186 1034 l 2
 1186 1021.6830144 1165.51940186 1012.02092114 1149.78412883 1012.02092114 c 0
 1139.96887588 1012.02092114 1132 1015.78038272 1132 1025 c 2
 1132 1204 l 1
 1019 1311 894 1351 757 1351 c 0
 616 1351 456 1314 360 1188 c 0
 296 1104 263 970 250 828 c 1
 875 828 l 2
 887 828 895 823 895 815 c 0
 895 801 876 792 861 792 c 2
 247 792 l 1
 245 756 244 721 244 685 c 0
 244 666 244 647 245 628 c 1
 720 628 l 2
 732 628 740 623 740 615 c 0
 740 601 721 592 706 592 c 2
 246 592 l 1
 254 426 287 273 369 176 c 1
 468 57 637 18 770 18 c 0
 904 18 1029 47 1143 146 c 0
 1154 156 1190 162 1190 142 c 0
 1190 138 1188 133 1183 129 c 0
 1054 17 903 -18 757 -18 c 0
 610 -18 428 27 321 154 c 0
 232 260 200 420 192 592 c 1
 71 592 l 2
 59 592 51 598 51 606 c 0
 51 619 71 628 85 628 c 2
 191 628 l 1
 191 644 190 661 190 677 c 0
 190 715 192 754 194 792 c 1
 71 792 l 2
 59 792 51 798 51 806 c 0
EndSplineSet
Validated: 1
EndChar

StartChar: sterling
Encoding: 163 163 182
Width: 968
VWidth: 0
Flags: WO
HStem: -46.8496 93.6992<208.553 768.755> 556.15 93.6982<-5.19972 161.006 302.058 679.428> 1321.15 93.6982<344.472 505.826>
VStem: 161.089 140.968<137.123 556.15 649.849 1280.71> 549.506 140.987<1179.07 1275.54>
LayerCount: 2
Back
SplineSet
62 603 m 13
 612 603 l 21
620 1217.20019531 m 4
 620 1289.64257812 521.829101562 1368 426 1368 c 31
 307.21484375 1368 232.10590384 1253.2104472 232 1133.20019531 c 6
 231.309742269 351 l 5
 231 198 177.307827075 87.1548905771 102 0 c 13
 362 0 l 29
 802 0 l 21
 918 141.599609375 l 13
EndSplineSet
Fore
SplineSet
619.999023438 1171.74902344 m 0
 581.607421875 1165.56152344 549.505859375 1181.00976562 549.505859375 1205.83789062 c 0
 549.505859375 1259.20410156 461.228515625 1321.15039062 408.903320312 1321.15039062 c 0
 404.505859375 1321.15039062 400.966796875 1320.8203125 397.951171875 1320.33789062 c 0
 372.114257812 1316.2109375 302.592773438 1256.78710938 302.494140625 1144.53613281 c 2
 302.057500889 649.848632812 l 1
 629.096679688 649.848632812 l 2
 666.342773438 649.848632812 689.728515625 628.592773438 680.389648438 603 c 0
 671.05078125 577.407226562 632.150390625 556.151367188 594.904296875 556.150390625 c 2
 301.974797413 556.150390625 l 1
 301.803710938 362.319335938 l 2
 301.545898438 234.994140625 265.139648438 131.626953125 208.552734375 46.849609375 c 1
 768.754882812 46.849609375 l 1
 857.779296875 155.520507812 l 2
 877.737304688 179.883789062 921.748046875 193.9375 954.645507812 186.333007812 c 0
 987.541992188 178.728515625 998.177734375 152.041015625 978.219726562 127.678710938 c 2
 862.220703125 -13.9208984375 l 2
 847.424804688 -31.9833984375 815.333007812 -46.849609375 784.904296875 -46.849609375 c 2
 84.904296875 -46.849609375 l 2
 83.162109375 -46.849609375 73.3818359375 -46.3056640625 68.4580078125 -45.3818359375 c 0
 32.8173828125 -38.6953125 20.802734375 -10.3232421875 42.8203125 15.158203125 c 0
 110.1640625 93.095703125 160.51953125 193.52734375 160.815429688 339.697265625 c 2
 161.006495873 556.150390625 l 1
 44.904296875 556.150390625 l 2
 7.5439453125 556.150390625 -15.7001953125 577.484375 -6.3896484375 603 c 0
 2.9208984375 628.514648438 41.736328125 649.848632812 79.095703125 649.848632812 c 2
 161.089204615 649.848632812 l 1
 161.505859375 1121.86425781 l 2
 161.6015625 1230.26269531 219.044921875 1382.66308594 398.266601562 1411.29003906 c 0
 413.25390625 1413.68457031 428.3203125 1414.84863281 443.096679688 1414.84863281 c 0
 582.428710938 1414.84960938 690.494140625 1320.08105469 690.493164062 1228.56152344 c 0
 690.493164062 1203.73242188 658.391601562 1177.93652344 619.999023438 1171.74902344 c 0
EndSplineSet
EndChar

StartChar: circumflex
Encoding: 710 710 183
Width: 815
VWidth: 0
Flags: W
HStem: 1126 191
VStem: 264 355<1137 1144>
LayerCount: 2
Fore
SplineSet
285 1126 m 0
 274 1126 264 1132 264 1140 c 0
 264 1144 266 1147 270 1151 c 2
 423 1306 l 2
 430 1313 441 1317 451 1317 c 0
 458 1317 465 1314 468 1311 c 2
 616 1156 l 2
 618 1154 619 1152 619 1149 c 0
 619 1137 601 1126 586 1126 c 0
 579 1126 572 1128 568 1132 c 2
 440 1266 l 1
 312 1137 l 2
 305 1130 295 1126 285 1126 c 0
EndSplineSet
Validated: 1
EndChar

